<svg width="49" height="44" viewBox="0 0 49 44" fill="none" xmlns="http://www.w3.org/2000/svg">
<g id="Vector">
<mask id="path-1-inside-1_454_565" fill="white">
<path d="M3.37247 43.8778H41.0687C42.5447 43.8778 43.7469 42.6756 43.7469 41.1997V33.5422H46.913C48.0636 33.5422 49 32.6058 49 31.4552V25.853C49 24.7023 48.0636 23.766 46.913 23.766H41.0648V7.07822C41.0648 4.72543 39.1524 2.81304 36.7996 2.81304H34.6174V2.05919C34.6174 0.924453 33.693 0 32.5582 0H12.4662C11.3315 0 10.407 0.924453 10.407 2.05919V2.81304H8.22486C5.87206 2.81304 3.95968 4.72543 3.95968 7.07822V37.1289H3.37247C1.51166 37.1289 0 38.6406 0 40.5014C0 42.3622 1.51166 43.8738 3.37247 43.8738V43.8778ZM42.3582 41.1997C42.3582 41.9099 41.7789 42.4891 41.0687 42.4891C40.3585 42.4891 39.7793 41.9099 39.7793 41.1997V33.5422H42.3582V41.1997ZM47.6113 25.8569V31.4592C47.6113 31.844 47.2979 32.1575 46.913 32.1575H35.2245C34.8396 32.1575 34.5261 31.844 34.5261 31.4592V25.8569C34.5261 25.4721 34.8396 25.1586 35.2245 25.1586H46.913C47.2979 25.1586 47.6113 25.4721 47.6113 25.8569ZM22.167 32.1575C21.6989 32.1575 21.314 31.7766 21.314 31.3045V27.7574C21.314 27.2892 21.6949 26.9044 22.167 26.9044H27.4717V32.1535H22.167V32.1575ZM28.8604 26.9083H33.1375V31.4592C33.1375 31.7052 33.1891 31.9393 33.2684 32.1575H28.8604V26.9083ZM5.34834 14.3548H11.1014V17.8265C11.1014 19.4135 9.8119 20.703 8.22486 20.703C6.63781 20.703 5.34834 19.4135 5.34834 17.8265V14.3548ZM12.49 14.3548H18.2431V17.8265C18.2431 19.4135 16.9536 20.703 15.3666 20.703C13.7795 20.703 12.49 19.4135 12.49 17.8265V14.3548ZM19.6317 14.3548H25.3848V17.8265C25.3848 19.4135 24.0953 20.703 22.5083 20.703C20.9212 20.703 19.6317 19.4135 19.6317 17.8265V14.3548ZM26.7734 14.3548H32.5265V17.8265C32.5265 19.4135 31.237 20.703 29.65 20.703C28.0629 20.703 26.7734 19.4135 26.7734 17.8265V14.3548ZM33.9151 14.3548H39.6682V17.8265C39.6682 19.4135 38.3787 20.703 36.7917 20.703C35.2046 20.703 33.9151 19.4135 33.9151 17.8265V14.3548ZM12.4662 1.38866H32.5543C32.9232 1.38866 33.2248 1.6902 33.2248 2.05919V8.01854C33.2248 8.38753 32.9232 8.68907 32.5543 8.68907H12.4662C12.0972 8.68907 11.7957 8.38753 11.7957 8.01854V2.05919C11.7957 1.6902 12.0972 1.38866 12.4662 1.38866ZM5.34834 7.07822C5.34834 5.49117 6.63781 4.2017 8.22486 4.2017H10.407V8.01854C10.407 9.15328 11.3315 10.0777 12.4662 10.0777H32.5543C33.689 10.0777 34.6134 9.15328 34.6134 8.01854V4.2017H36.7956C38.3827 4.2017 39.6721 5.49117 39.6721 7.07822V12.9662H5.34834V7.07822ZM5.34834 20.9688C6.10615 21.6671 7.11789 22.0956 8.22486 22.0956C9.71668 22.0956 11.0339 21.3259 11.7957 20.1594C12.5575 21.3259 13.8747 22.0956 15.3666 22.0956C16.8584 22.0956 18.1756 21.3259 18.9374 20.1594C19.6992 21.3259 21.0164 22.0956 22.5083 22.0956C24.0001 22.0956 25.3173 21.3259 26.0791 20.1594C26.8409 21.3259 28.1581 22.0956 29.65 22.0956C31.1418 22.0956 32.459 21.3259 33.2208 20.1594C33.9826 21.3259 35.2998 22.0956 36.7917 22.0956C37.9026 22.0956 38.9104 21.6671 39.6682 20.9688V23.77H35.2205C34.1849 23.77 33.3319 24.5278 33.1692 25.5157H22.1631C20.9291 25.5157 19.9214 26.5195 19.9214 27.7574V31.3045C19.9214 32.5384 20.9252 33.5462 22.1631 33.5462H38.3866V37.1329H17.4615V27.5789C17.4615 26.4441 16.537 25.5197 15.4023 25.5197H10.4745C9.33976 25.5197 8.4153 26.4441 8.4153 27.5789V37.1329H5.34437V20.9728L5.34834 20.9688ZM9.80793 37.1289V27.5749C9.80793 27.2059 10.1095 26.9044 10.4785 26.9044H15.4062C15.7752 26.9044 16.0768 27.2059 16.0768 27.5749V37.1289H9.80793ZM3.37644 38.5176C11.0577 38.5176 30.7212 38.5176 38.3946 38.5176V41.1997C38.3946 41.6679 38.5136 42.1083 38.7279 42.4891H3.37247C2.27741 42.4891 1.38866 41.5964 1.38866 40.5053C1.38866 39.4142 2.28138 38.5215 3.37247 38.5215L3.37644 38.5176Z"/>
</mask>
<path d="M3.37247 43.8778H41.0687C42.5447 43.8778 43.7469 42.6756 43.7469 41.1997V33.5422H46.913C48.0636 33.5422 49 32.6058 49 31.4552V25.853C49 24.7023 48.0636 23.766 46.913 23.766H41.0648V7.07822C41.0648 4.72543 39.1524 2.81304 36.7996 2.81304H34.6174V2.05919C34.6174 0.924453 33.693 0 32.5582 0H12.4662C11.3315 0 10.407 0.924453 10.407 2.05919V2.81304H8.22486C5.87206 2.81304 3.95968 4.72543 3.95968 7.07822V37.1289H3.37247C1.51166 37.1289 0 38.6406 0 40.5014C0 42.3622 1.51166 43.8738 3.37247 43.8738V43.8778ZM42.3582 41.1997C42.3582 41.9099 41.7789 42.4891 41.0687 42.4891C40.3585 42.4891 39.7793 41.9099 39.7793 41.1997V33.5422H42.3582V41.1997ZM47.6113 25.8569V31.4592C47.6113 31.844 47.2979 32.1575 46.913 32.1575H35.2245C34.8396 32.1575 34.5261 31.844 34.5261 31.4592V25.8569C34.5261 25.4721 34.8396 25.1586 35.2245 25.1586H46.913C47.2979 25.1586 47.6113 25.4721 47.6113 25.8569ZM22.167 32.1575C21.6989 32.1575 21.314 31.7766 21.314 31.3045V27.7574C21.314 27.2892 21.6949 26.9044 22.167 26.9044H27.4717V32.1535H22.167V32.1575ZM28.8604 26.9083H33.1375V31.4592C33.1375 31.7052 33.1891 31.9393 33.2684 32.1575H28.8604V26.9083ZM5.34834 14.3548H11.1014V17.8265C11.1014 19.4135 9.8119 20.703 8.22486 20.703C6.63781 20.703 5.34834 19.4135 5.34834 17.8265V14.3548ZM12.49 14.3548H18.2431V17.8265C18.2431 19.4135 16.9536 20.703 15.3666 20.703C13.7795 20.703 12.49 19.4135 12.49 17.8265V14.3548ZM19.6317 14.3548H25.3848V17.8265C25.3848 19.4135 24.0953 20.703 22.5083 20.703C20.9212 20.703 19.6317 19.4135 19.6317 17.8265V14.3548ZM26.7734 14.3548H32.5265V17.8265C32.5265 19.4135 31.237 20.703 29.65 20.703C28.0629 20.703 26.7734 19.4135 26.7734 17.8265V14.3548ZM33.9151 14.3548H39.6682V17.8265C39.6682 19.4135 38.3787 20.703 36.7917 20.703C35.2046 20.703 33.9151 19.4135 33.9151 17.8265V14.3548ZM12.4662 1.38866H32.5543C32.9232 1.38866 33.2248 1.6902 33.2248 2.05919V8.01854C33.2248 8.38753 32.9232 8.68907 32.5543 8.68907H12.4662C12.0972 8.68907 11.7957 8.38753 11.7957 8.01854V2.05919C11.7957 1.6902 12.0972 1.38866 12.4662 1.38866ZM5.34834 7.07822C5.34834 5.49117 6.63781 4.2017 8.22486 4.2017H10.407V8.01854C10.407 9.15328 11.3315 10.0777 12.4662 10.0777H32.5543C33.689 10.0777 34.6134 9.15328 34.6134 8.01854V4.2017H36.7956C38.3827 4.2017 39.6721 5.49117 39.6721 7.07822V12.9662H5.34834V7.07822ZM5.34834 20.9688C6.10615 21.6671 7.11789 22.0956 8.22486 22.0956C9.71668 22.0956 11.0339 21.3259 11.7957 20.1594C12.5575 21.3259 13.8747 22.0956 15.3666 22.0956C16.8584 22.0956 18.1756 21.3259 18.9374 20.1594C19.6992 21.3259 21.0164 22.0956 22.5083 22.0956C24.0001 22.0956 25.3173 21.3259 26.0791 20.1594C26.8409 21.3259 28.1581 22.0956 29.65 22.0956C31.1418 22.0956 32.459 21.3259 33.2208 20.1594C33.9826 21.3259 35.2998 22.0956 36.7917 22.0956C37.9026 22.0956 38.9104 21.6671 39.6682 20.9688V23.77H35.2205C34.1849 23.77 33.3319 24.5278 33.1692 25.5157H22.1631C20.9291 25.5157 19.9214 26.5195 19.9214 27.7574V31.3045C19.9214 32.5384 20.9252 33.5462 22.1631 33.5462H38.3866V37.1329H17.4615V27.5789C17.4615 26.4441 16.537 25.5197 15.4023 25.5197H10.4745C9.33976 25.5197 8.4153 26.4441 8.4153 27.5789V37.1329H5.34437V20.9728L5.34834 20.9688ZM9.80793 37.1289V27.5749C9.80793 27.2059 10.1095 26.9044 10.4785 26.9044H15.4062C15.7752 26.9044 16.0768 27.2059 16.0768 27.5749V37.1289H9.80793ZM3.37644 38.5176C11.0577 38.5176 30.7212 38.5176 38.3946 38.5176V41.1997C38.3946 41.6679 38.5136 42.1083 38.7279 42.4891H3.37247C2.27741 42.4891 1.38866 41.5964 1.38866 40.5053C1.38866 39.4142 2.28138 38.5215 3.37247 38.5215L3.37644 38.5176Z" fill="#0A71FE" stroke="#0A71FE" stroke-width="6" mask="url(#path-1-inside-1_454_565)"/>
</g>
</svg>
