<svg width="46" height="47" viewBox="0 0 46 47" fill="none" xmlns="http://www.w3.org/2000/svg">
<g id="Layer_1" clip-path="url(#clip0_454_558)">
<path id="Vector" d="M23.7239 0C24.1847 0.133299 24.6616 0.228512 25.1037 0.405337C25.827 0.693697 26.2503 1.21057 26.194 2.05933C26.1699 2.40754 26.2182 2.76391 26.2637 3.10939C26.3896 4.05065 26.8853 4.61104 27.8095 4.77699C28.9642 4.98374 30.135 5.11431 31.287 5.33194C32.5462 5.56862 33.7812 5.91411 34.8904 6.60236C36.5782 7.64699 36.956 9.15408 35.895 10.8516C34.7993 12.609 33.6982 14.3582 32.8971 16.2815C31.9702 18.5067 31.3593 20.8055 31.6915 23.2375C31.8416 24.3447 32.1363 25.4546 32.5274 26.5019C32.9507 27.6391 33.5642 28.7027 34.1617 29.9323C35.319 27.1548 36.4228 24.5133 37.5427 21.8256C36.9935 21.5019 36.4443 21.1945 35.9138 20.8599C34.5233 19.9866 33.9822 18.1613 34.66 16.6814C34.9011 16.1536 35.2387 15.9795 35.6432 16.1781C36.037 16.3712 36.1174 16.7059 35.895 17.2309C35.5226 18.1068 35.7477 19.0563 36.5086 19.6003C36.9961 19.9485 37.532 20.226 38.0973 20.5634C38.5554 19.3065 39.3243 18.4143 40.6183 18.1286C41.4434 17.9463 42.2391 18.0633 42.9678 18.5176C43.8707 19.0807 44.3931 19.9105 44.5137 20.9768C44.6128 21.8746 44.5244 22.1085 43.6403 23.8196C43.7073 23.8686 43.7743 23.923 43.8466 23.9693C45.7032 25.237 46.1935 27.5166 45.0013 29.4372C43.4983 31.8529 41.9712 34.255 40.4602 36.668C39.7261 37.8405 39.8896 39.1544 40.8594 40.0304C41.3068 40.4357 41.8426 40.6044 42.4267 40.6534C44.5673 40.8356 46.0408 42.4978 46.0006 44.6714C45.9899 45.191 46.0059 45.7105 45.9899 46.2301C45.9765 46.6926 45.7407 46.9293 45.3308 46.932C44.9209 46.932 44.6771 46.698 44.6584 46.241C44.6342 45.6289 44.6637 45.0168 44.6182 44.4075C44.5137 43.0582 43.643 42.1305 42.3088 42.0244C39.8199 41.8258 38.6009 39.7257 38.6465 38.001C38.6679 37.2474 38.9144 36.5701 39.3136 35.9389C40.8165 33.5586 42.3115 31.1728 43.8091 28.7898C44.7066 27.3589 44.3663 25.9089 42.8928 25.0085C42.8178 25.1064 42.7321 25.2043 42.6624 25.3131C40.6317 28.4389 38.5982 31.5646 36.5836 34.7012C36.471 34.8753 36.4228 35.1582 36.4684 35.3649C36.822 36.97 36.9961 38.5913 37.0042 40.2317C37.0095 41.4477 36.2406 42.2502 35.0431 42.272C34.0331 42.2883 33.0231 42.2856 32.0157 42.272C31.7264 42.2665 31.5522 42.359 31.3942 42.6093C30.5476 43.9287 29.6822 45.2345 28.8169 46.543C28.5302 46.9755 28.131 47.0707 27.7828 46.8014C27.4666 46.5566 27.4586 46.2492 27.6033 45.901C28.0641 44.7883 28.5168 43.673 28.9723 42.5603C28.9991 42.4923 29.0178 42.4189 29.0526 42.3128H25.168C25.168 43.4009 25.168 44.4673 25.168 45.5337C25.168 45.7622 25.176 45.9935 25.1653 46.222C25.1438 46.6654 24.892 46.9184 24.4901 46.9157C24.0856 46.9157 23.8257 46.6627 23.8231 46.2165C23.8123 45.0849 23.8177 43.9532 23.8177 42.8215C23.8177 42.6583 23.8177 42.4923 23.8177 42.3046H22.1861C22.1861 42.5658 22.1861 42.8188 22.1861 43.0745C22.1861 44.1001 22.1915 45.1257 22.1861 46.1485C22.1834 46.6545 21.9263 46.9266 21.4896 46.9129C21.0743 46.9021 20.8412 46.6409 20.8385 46.1485C20.8332 44.8808 20.8385 43.6131 20.8385 42.2829C19.8928 42.2829 18.9819 42.2829 18.071 42.2883C18.0121 42.2883 17.9451 42.3536 17.8969 42.4053C17.6236 42.6991 17.3932 43.0446 17.0825 43.2894C14.8856 45.0304 12.4959 46.4151 9.70156 46.8531C6.82422 47.3047 4.15048 46.7497 1.8679 44.7992C0.667664 43.7736 0.0273615 42.4923 0.0648687 40.8329C0.126488 38.05 0.0863015 35.2643 0.0782642 32.4813C0.0782642 31.7033 -0.0181831 30.9226 0.00860781 30.1445C0.134525 26.3958 1.97774 23.7544 5.18997 22.0405C7.33057 20.9007 9.65602 20.4219 12.0377 20.1961C12.7397 20.1308 13.4469 20.1036 14.2587 20.0546C14.047 19.2494 13.8756 18.4496 13.6291 17.677C12.8736 15.2994 11.6466 13.1639 10.2722 11.11C10.0445 10.77 9.80873 10.4272 9.63726 10.0572C9.14163 8.99086 9.3372 7.98704 10.1811 7.17364C10.8402 6.53979 11.6546 6.17526 12.5012 5.8869C14.1649 5.31834 15.8983 5.08711 17.6317 4.8722C17.8112 4.85044 17.9907 4.82595 18.1675 4.79059C19.1427 4.6056 19.641 4.06697 19.7482 3.06587C19.7883 2.68501 19.8232 2.30144 19.8125 1.92059C19.791 1.27586 20.075 0.805232 20.6242 0.557678C21.1493 0.318284 21.7226 0.182265 22.2772 0C22.7595 0 23.2417 0 23.7239 0ZM17.9023 40.8819C18.071 40.8955 18.1889 40.9145 18.3041 40.9145C21.9638 40.9145 25.6261 40.9145 29.2857 40.9227C29.5831 40.9227 29.6956 40.8003 29.8028 40.5418C30.9896 37.6365 32.1952 34.7365 33.374 31.8284C33.449 31.6407 33.4222 31.3469 33.3312 31.162C32.8811 30.2452 32.3961 29.3475 31.9193 28.447C30.0412 24.8969 29.7733 21.2217 31.0352 17.4077C31.8362 14.9811 33.0632 12.7803 34.4269 10.6476C34.6385 10.3157 34.8502 9.97563 35.0109 9.61654C35.2521 9.06975 35.177 8.52839 34.6975 8.17202C34.2179 7.81565 33.6928 7.48921 33.1436 7.27157C31.5763 6.64861 29.9153 6.4201 28.2516 6.24599C26.2235 6.0338 25.2296 5.13336 24.9295 3.1502C24.8786 2.81831 24.8384 2.47827 24.8545 2.14638C24.8733 1.77641 24.7286 1.6023 24.3776 1.59958C23.4587 1.59142 22.5424 1.5887 21.6235 1.59142C21.2752 1.59142 21.1172 1.76553 21.1466 2.13822C21.1654 2.39393 21.1199 2.65781 21.1011 2.91625C20.9404 4.86676 20.0268 5.87602 18.1219 6.18614C17.1575 6.34121 16.1823 6.4473 15.2205 6.6214C13.9613 6.84992 12.7048 7.12195 11.585 7.79933C10.6151 8.38421 10.4919 8.96909 11.1 9.9185C11.2715 10.1878 11.4564 10.449 11.6332 10.7156C12.8254 12.5246 13.8756 14.4071 14.6391 16.4474C16.0403 20.1934 16.2144 23.9312 14.4891 27.6227C13.8381 29.0156 13.0665 30.3486 12.3673 31.7169C11.7939 32.8377 11.2983 33.9911 10.9634 35.3595C11.6118 35.0276 12.169 34.7746 12.6968 34.4699C14.1596 33.6293 15.4589 32.5629 16.6511 31.3633C17.0155 30.996 17.4093 30.9362 17.6719 31.268C17.8219 31.4612 17.8942 31.7659 17.8969 32.0216C17.913 34.7909 17.9076 37.5603 17.9076 40.3269C17.9076 40.5065 17.9076 40.686 17.9076 40.8873L17.9023 40.8819ZM4.67291 23.9203C4.30587 24.2277 4.04064 24.4671 3.75934 24.6847C3.36015 24.9949 3.19673 25.3703 3.2128 25.9007C3.25299 27.1385 3.23156 28.3763 3.22084 29.6168C3.21816 30.0629 2.9958 30.2887 2.59929 30.305C2.18403 30.3241 1.92684 30.0983 1.88933 29.6521C1.87058 29.4236 1.88129 29.1951 1.88129 28.9639C1.88129 28.749 1.88129 28.5368 1.88129 28.3219C1.88129 28.126 1.88129 27.9301 1.88129 27.7343L1.76341 27.7424C1.26242 29.2495 1.18205 30.7893 1.55712 32.3317C1.74466 33.1016 2.29923 33.662 2.91542 34.1761C3.68432 32.9982 4.71041 32.1875 5.8785 31.5537C7.56097 30.6424 9.36935 30.1663 11.2501 29.916C11.4805 29.8861 11.81 29.8099 11.9038 29.6467C12.8495 27.9764 13.6988 26.2544 14.114 24.3556C14.3203 23.417 14.4355 22.4676 14.3444 21.4475C13.5648 21.4828 12.8254 21.5182 12.0645 21.5536C12.0645 22.1412 12.0699 22.6444 12.0645 23.1477C12.0592 23.6537 11.81 23.9421 11.3894 23.9393C10.9715 23.9393 10.725 23.651 10.7169 23.1368C10.7089 22.6825 10.7169 22.2282 10.7169 21.725C10.1329 21.8419 9.61047 21.948 9.07465 22.0568C9.07465 22.6417 9.07465 23.1749 9.07465 23.7108C9.07465 24.5514 9.08001 25.392 9.07465 26.2326C9.07197 26.7522 8.83622 27.0297 8.41024 27.0379C7.97891 27.046 7.73511 26.7713 7.72439 26.2598C7.72171 26.0912 7.72439 25.9225 7.72439 25.7566C7.72439 24.6766 7.72439 23.5939 7.72439 22.4323C7.24483 22.6254 6.83225 22.8022 6.41164 22.9518C6.11426 23.0579 5.99102 23.2239 6.01245 23.5585C6.0446 24.0291 6.02585 24.5052 6.01781 24.9812C6.01245 25.4764 5.79009 25.7402 5.38019 25.7566C4.95421 25.7756 4.69166 25.4954 4.67291 24.9921C4.66219 24.6793 4.67291 24.3637 4.67291 23.9257V23.9203ZM1.42317 34.7229C1.42317 34.9487 1.42317 35.0983 1.42317 35.248C1.42317 37.1277 1.45532 39.0102 1.40977 40.8873C1.38298 41.9673 1.75805 42.8433 2.5216 43.5288C3.0467 43.9994 3.6227 44.451 4.24961 44.7557C6.6983 45.9445 9.19253 45.8602 11.6975 44.8971C11.9868 44.7856 12.0779 44.6496 12.0752 44.3395C12.0618 41.8014 12.0672 39.2632 12.0672 36.7278C12.0672 36.6163 12.0511 36.5021 12.0431 36.3742C11.5475 36.551 11.1027 36.736 10.6419 36.8639C10.3794 36.9373 10.3178 37.0652 10.3258 37.3154C10.3419 37.7425 10.3365 38.1724 10.3258 38.5995C10.3151 39.1109 10.0659 39.3857 9.63726 39.3802C9.20861 39.3748 8.98624 39.1082 8.98089 38.5777C8.97553 38.1397 8.98089 37.7017 8.98089 37.2801H7.27966C7.27966 37.4814 7.27966 37.6473 7.27966 37.8133C7.27966 38.915 7.29842 40.0141 7.26359 41.1158C7.25555 41.3307 7.08945 41.6354 6.91263 41.7279C6.72777 41.8231 6.37949 41.7932 6.21338 41.6653C6.04728 41.5375 5.94815 41.2274 5.9428 40.9934C5.91601 39.8019 5.93476 38.6076 5.92404 37.4161C5.92404 37.2774 5.85171 37.0489 5.75794 37.0162C5.28374 36.8503 4.79079 36.7333 4.24961 36.5837C4.24961 36.9944 4.26568 37.359 4.24693 37.7208C4.22282 38.1697 3.96831 38.4145 3.56376 38.4063C3.1619 38.4009 2.92346 38.1533 2.91274 37.6963C2.89935 37.193 2.92078 36.687 2.89935 36.1838C2.89399 36.0341 2.83505 35.8437 2.73324 35.7539C2.33406 35.4112 1.90808 35.0983 1.42317 34.7229ZM31.6701 39.5598C31.6969 39.5734 31.7264 39.5897 31.7532 39.6033C35.0699 34.5135 38.3839 29.4209 41.7167 24.3039C41.3791 24.1053 41.0978 23.9393 40.7924 23.7625C40.7013 23.9121 40.629 24.0427 40.5486 24.1651C40.3182 24.5215 40.0048 24.6167 39.6618 24.4372C39.2975 24.2467 39.1769 23.8985 39.3752 23.5122C39.7315 22.8213 40.0985 22.1385 40.4763 21.4584C40.6879 21.0748 41.0443 20.9687 41.3925 21.1537C41.7408 21.3359 41.848 21.6923 41.6685 22.0895C41.6015 22.2391 41.5238 22.3833 41.4381 22.5547C41.7783 22.7533 42.0998 22.9382 42.4454 23.1395C42.6517 22.7913 42.8634 22.4894 43.0187 22.1629C43.6242 20.8816 42.6678 19.3881 41.272 19.4371C40.4173 19.467 39.8387 19.9159 39.5065 20.7103C37.106 26.4775 34.7055 32.2447 32.3051 38.0146C32.0907 38.5287 31.8818 39.0456 31.6701 39.5625V39.5598ZM13.4175 44.0049C13.4576 44.0375 13.4952 44.0674 13.5353 44.1001C14.4248 43.4826 15.3116 42.8623 16.2064 42.2529C16.4716 42.0734 16.5627 41.8558 16.5627 41.5293C16.5493 38.9776 16.5547 36.4286 16.5547 33.8769C16.5547 33.7327 16.5413 33.5885 16.5332 33.458C15.5232 34.1652 14.5346 34.8508 13.5595 35.5554C13.4657 35.6234 13.4228 35.8138 13.4201 35.9471C13.4067 36.7251 13.4148 37.5059 13.4148 38.2839C13.4148 40.1909 13.4148 42.0979 13.4148 44.0049H13.4175ZM4.08619 34.965C5.72847 35.7757 7.44844 36.0586 9.25147 35.7839C9.35328 35.7676 9.47384 35.6016 9.51402 35.4792C9.65066 35.0603 9.72567 34.6196 9.8757 34.2061C10.2133 33.2648 10.5803 32.3344 10.9339 31.4068C8.67815 31.502 4.90331 33.1125 4.08886 34.965H4.08619ZM32.5113 40.9063C33.4571 40.9063 34.2929 40.92 35.1288 40.8982C35.4583 40.89 35.6432 40.667 35.6486 40.3242C35.6512 40.0331 35.6593 39.742 35.6352 39.4537C35.5602 38.5396 35.4691 37.6283 35.3833 36.7142C35.3405 36.7115 35.3003 36.7088 35.2574 36.7061C34.3626 38.0744 33.4651 39.4428 32.5087 40.9063H32.5113Z" fill="#0A71FE"/>
</g>
<defs>
<clipPath id="clip0_454_558">
<rect width="46" height="47" fill="white"/>
</clipPath>
</defs>
</svg>
