<svg width="49" height="49" viewBox="0 0 49 49" fill="none" xmlns="http://www.w3.org/2000/svg">
<g id="Layer_1" clip-path="url(#clip0_454_562)">
<path id="Vector" d="M0 17.6141C0.605648 16.3538 1.31096 16.0866 2.62448 16.6133C5.15056 17.6256 7.67793 18.6354 10.204 19.6465C10.3203 19.6925 10.4366 19.7347 10.5886 19.7922V14.995C10.4698 15.0525 10.3612 15.0986 10.259 15.1561C9.04511 15.8412 7.61277 15.514 6.89468 14.384C6.17787 13.2553 6.48708 11.8199 7.64854 11.021C11.0103 8.7112 14.3797 6.41165 17.7465 4.10826C19.4689 2.92973 21.1913 1.74863 22.915 0.572653C24.0266 -0.185342 24.9415 -0.196846 26.0544 0.562427C31.1334 4.03285 36.2073 7.50838 41.2825 10.9839C42.2012 11.6128 42.5998 12.4743 42.3877 13.5813C42.2037 14.5374 41.4371 15.2839 40.4596 15.4756C39.7147 15.6214 39.049 15.3977 38.3948 14.9439V19.589C39.1129 19.3206 39.8092 19.0637 40.5043 18.8016C42.5155 18.0449 44.5394 17.3214 46.5301 16.5148C47.7146 16.0355 49.0115 16.6874 49.0013 18.2379C48.9566 24.8554 48.9821 31.4741 48.9821 38.0928C48.9821 39.4119 48.3752 39.9859 47.0476 40.0191C45.8287 40.0485 44.979 39.5398 44.4308 38.4584C44.0066 37.6224 43.5415 36.8069 43.0713 35.9364C41.3374 36.6586 39.6252 37.3719 37.9169 38.0826C38.7755 40.7592 36.5944 42.9821 34.0236 42.3033C33.9278 42.5679 33.8562 42.8466 33.7285 43.0958C33.1842 44.1657 32.3127 44.755 31.104 44.7908C30.8076 44.7997 30.6734 44.8585 30.5929 45.1832C30.2607 46.5113 29.0813 47.2028 27.502 46.9983C27.2376 48.0221 26.5169 48.637 25.5446 48.9962H24.3013C23.3149 48.3443 22.3285 47.6924 21.3344 47.0353C19.9123 48.6114 17.8066 48.095 17.0297 46.3732C15.2562 46.6148 14.4921 46.2352 13.5019 44.6182C11.676 44.9326 10.8301 44.5556 9.87436 42.9999C7.43516 43.6224 5.90315 41.6194 6.48452 39.6011C6.0322 39.3915 5.57733 39.1806 5.10457 38.962C4.83752 39.4746 4.60753 39.9641 4.33537 40.4294C3.71183 41.4942 2.70881 41.7089 1.57545 41.6399C0.744922 41.5888 0.298991 41.0877 0.00383322 40.3834V17.6103L0 17.6141ZM12.3902 24.4246C13.728 24.9487 14.9892 25.5021 16.4407 25.1966C17.4054 24.9947 18.3841 24.8554 19.3552 24.6866C19.4318 24.6738 19.5532 24.6687 19.5737 24.624C19.8292 24.0539 20.3991 23.6359 20.4004 22.9431C20.4017 21.3479 20.3965 19.7539 20.4029 18.1587C20.408 16.9916 21.0469 16.3512 22.2084 16.3474C23.7072 16.341 25.2059 16.3436 26.7047 16.3474C27.9582 16.35 28.5766 16.9737 28.5792 18.2366C28.5817 19.497 28.569 20.756 28.5907 22.0164C28.5945 22.2068 28.6942 22.4625 28.8386 22.5711C30.0422 23.4889 31.2637 24.3837 32.4865 25.2772C33.0104 25.6594 33.6224 25.8767 34.2447 25.7118C35.1749 25.4663 36.0744 25.1084 37.0212 24.7876C36.7197 24.2252 36.4488 23.7382 36.1958 23.2435C35.7256 22.327 35.8559 21.3977 36.5152 20.6193C36.6417 20.4697 36.7248 20.232 36.726 20.0338C36.7414 18.0884 36.7286 16.1429 36.7427 14.1974C36.7452 13.9085 36.6507 13.7411 36.4143 13.58C32.544 10.9404 28.6788 8.29321 24.8201 5.63703C24.5632 5.45936 24.3971 5.47981 24.1531 5.64854C20.293 8.30216 16.4279 10.9494 12.5563 13.5877C12.3136 13.7526 12.2382 13.929 12.2395 14.2127C12.251 16.2375 12.2395 18.2635 12.2548 20.2882C12.2561 20.4876 12.3455 20.719 12.4682 20.8787C13.116 21.7186 13.2169 22.612 12.7966 23.5733C12.6816 23.8353 12.5512 24.0897 12.3902 24.4271V24.4246ZM22.1292 45.4094C22.8639 45.9782 23.5589 46.5368 24.2758 47.0635C24.737 47.4022 25.2967 47.323 25.6583 46.919C26.0275 46.5074 26.0173 45.9834 25.6136 45.5411C25.3554 45.2586 25.0718 45.0004 24.8073 44.7243C24.3946 44.2948 24.3626 43.8052 24.7153 43.4601C25.0654 43.1175 25.5522 43.1585 25.9803 43.5803C26.4696 44.0609 26.9386 44.5607 27.4356 45.0336C27.9339 45.5079 28.6546 45.4197 28.9344 44.8585C29.158 44.4111 29.0162 44.0315 28.6776 43.694C27.649 42.6714 26.6217 41.6463 25.602 40.6148C25.1881 40.1968 25.1625 39.7468 25.5049 39.3902C25.8512 39.0297 26.3393 39.0579 26.7686 39.4682C26.8836 39.5781 26.9948 39.6931 27.1072 39.8056C28.054 40.7528 28.9906 41.7089 29.9502 42.6433C30.7679 43.4409 32.0252 43.115 32.2936 42.0464C32.4418 41.4571 32.2143 40.9893 31.7722 40.6032C30.561 39.5436 29.3484 38.4839 28.1422 37.4179C27.6567 36.9884 27.626 36.4669 28.0464 36.1064C28.3811 35.8201 28.8207 35.8405 29.2142 36.1805C30.0217 36.8785 30.8229 37.5853 31.6266 38.2884C32.4175 38.9812 33.202 39.6842 34.0032 40.3642C34.5437 40.8231 35.1659 40.873 35.7345 40.5483C36.3248 40.2108 36.6187 39.6804 36.436 39.0297C36.3351 38.6718 36.091 38.3075 35.8125 38.0557C33.924 36.3416 32.0099 34.6556 30.1035 32.9632C28.5792 31.6096 27.0536 30.2572 25.4615 28.8447C25.3772 28.9649 25.3133 29.0761 25.2302 29.1694C24.231 30.2853 23.2408 31.4102 22.2224 32.5094C21.2488 33.5602 19.6286 33.7532 18.4659 32.9926C17.2942 32.227 16.8572 30.7583 17.4105 29.4097C17.6098 28.924 17.836 28.4498 18.0481 27.9691C18.2678 27.4706 18.485 26.9708 18.6908 26.5004C17.4756 26.6385 16.2861 26.9376 15.122 26.8584C13.958 26.7791 12.8183 26.3215 11.5942 26.0109C9.70954 29.7651 7.7776 33.6138 5.83288 37.4869C6.28647 37.7029 6.71196 37.9062 7.1745 38.126C7.55271 37.1252 8.08681 36.3135 9.155 36.0476C10.2053 35.7856 11.0959 36.1013 11.828 36.8695C13.5338 35.3356 16.1659 36.0041 16.732 38.5069C18.4557 38.3855 19.589 39.1422 20.0694 40.8167C20.1372 40.8244 20.1844 40.8346 20.2304 40.8333C22.2186 40.8001 23.3903 42.5423 22.6006 44.3587C22.455 44.6936 22.3029 45.026 22.1304 45.4145L22.1292 45.4094ZM37.8236 26.2716C37.057 26.5541 36.3223 26.8111 35.5978 27.0923C34.0568 27.6918 32.6437 27.4821 31.3187 26.4966C29.7713 25.3462 28.2125 24.2137 26.6472 23.0875C25.312 22.1263 23.6931 22.212 22.5674 23.4033C21.9196 24.0884 21.3357 24.8758 20.8987 25.7092C20.1742 27.0872 19.5839 28.5367 18.9565 29.9645C18.8518 30.2022 18.793 30.4898 18.8121 30.7468C18.8479 31.2223 19.1022 31.5853 19.5711 31.7553C20.1218 31.956 20.6176 31.8486 21.0124 31.4204C21.7688 30.601 22.5099 29.7651 23.2548 28.9355C23.5819 28.5712 23.9039 28.2031 24.2246 27.84C24.1633 27.7685 24.1339 27.7301 24.1007 27.6969C23.6561 27.2482 23.5896 26.8098 23.9129 26.4429C24.2604 26.0492 24.7127 26.0684 25.2111 26.5017C25.68 26.9095 26.1476 27.3198 26.6153 27.7288C29.9336 30.6407 33.2544 33.5499 36.5676 36.4681C36.7887 36.6624 36.9624 36.7085 37.2397 36.5832C37.8185 36.3199 38.4178 36.1039 39.0068 35.8635C40.0929 35.4213 41.1777 34.9752 42.288 34.5201C40.7905 31.754 39.316 29.0262 37.8249 26.2729L37.8236 26.2716ZM1.65467 39.9667C2.54909 40.0907 2.7548 39.9897 3.12535 39.2522C5.81627 33.8874 8.50846 28.5226 11.1981 23.1579C11.6057 22.3449 11.469 21.9678 10.6448 21.6329C8.39091 20.7139 6.1357 19.7961 3.88049 18.8796C3.14835 18.5818 2.41365 18.2916 1.65467 17.9874V39.968V39.9667ZM47.3274 17.9516C47.1486 18.0104 46.9978 18.0513 46.8534 18.1075C44.0181 19.1979 41.1815 20.2895 38.3475 21.3824C37.5093 21.7058 37.402 21.9972 37.8287 22.7872C40.5005 27.7314 43.1722 32.6756 45.844 37.6198C46.2299 38.3331 46.4573 38.4443 47.3287 38.3305V17.9503L47.3274 17.9516ZM40.8174 12.8821C40.6794 12.7338 40.48 12.427 40.2028 12.2353C35.2285 8.81474 30.2454 5.40695 25.2634 1.99661C24.5569 1.51344 24.4304 1.51344 23.7302 1.99278C18.761 5.39289 13.7919 8.793 8.82279 12.1918C8.18136 12.6303 8.00759 13.0674 8.29891 13.5174C8.60557 13.9903 9.07322 13.998 9.7517 13.534C14.4052 10.3499 19.0588 7.16581 23.7123 3.98044C24.4265 3.49215 24.562 3.49215 25.2903 3.98938C29.931 7.16453 34.5718 10.3397 39.2138 13.5123C39.371 13.6196 39.5281 13.736 39.7019 13.8101C40.2283 14.0338 40.8123 13.6439 40.8199 12.8808L40.8174 12.8821ZM26.9232 18.0168H22.0742V21.6061C23.6484 20.6078 25.2456 20.5119 26.9232 21.2482V18.0168ZM15.1131 39.0489C15.1016 38.3702 14.7029 37.8461 14.1931 37.7208C13.5926 37.5725 13.0457 37.8103 12.7621 38.3932C12.3085 39.3212 11.8804 40.2607 11.4485 41.1989C11.1048 41.9454 11.3284 42.697 11.9699 42.9961C12.6126 43.2952 13.323 42.9872 13.6846 42.2381C14.105 41.3651 14.5189 40.4882 14.924 39.6088C15.0224 39.3966 15.076 39.164 15.1131 39.0502V39.0489ZM18.4557 41.4712C18.4633 40.8039 18.0877 40.3208 17.5331 40.1687C16.9965 40.0217 16.4445 40.2441 16.1659 40.7784C15.8069 41.4686 15.4824 42.1768 15.1565 42.8836C14.809 43.6403 15.0556 44.3536 15.7647 44.6949C16.3551 44.9787 17.054 44.6655 17.3926 43.9458C17.7043 43.285 18.0033 42.6178 18.2985 41.9492C18.3803 41.7626 18.4275 41.5606 18.4569 41.4699L18.4557 41.4712ZM8.99272 41.5402C9.23166 41.3791 9.5626 41.2705 9.69165 41.0468C10.0941 40.345 10.4481 39.6126 10.7662 38.8687C10.963 38.406 10.687 37.8742 10.2385 37.6786C9.79259 37.4843 9.26999 37.6224 9.04 38.0647C8.67329 38.769 8.32191 39.4848 8.02931 40.2211C7.78398 40.8384 8.27719 41.4635 8.994 41.5402H8.99272ZM21.2424 43.331C21.2002 42.8887 21.0099 42.605 20.6291 42.5091C20.201 42.4017 19.8254 42.5155 19.621 42.9373C19.2811 43.6391 18.9501 44.3459 18.6397 45.0605C18.4327 45.536 18.6473 46.0268 19.1201 46.2556C19.4893 46.4346 19.9506 46.2352 20.1717 45.7724C20.5013 45.0835 20.8156 44.3868 21.13 43.6915C21.1875 43.5637 21.2156 43.4218 21.2424 43.331Z" fill="#0A71FE"/>
<path id="Vector_2" d="M21.2324 11.4274C21.2363 9.63533 22.7018 8.16919 24.4907 8.16919C26.2987 8.16919 27.7617 9.65322 27.7489 11.4747C27.7361 13.2642 26.2514 14.7278 24.4677 14.7074C22.6673 14.6869 21.2286 13.2297 21.2324 11.4274ZM26.1185 11.421C26.1108 10.5199 25.3557 9.7836 24.4613 9.80533C23.5745 9.82579 22.8654 10.5467 22.8628 11.4325C22.8603 12.3414 23.5899 13.0725 24.4958 13.0687C25.403 13.0648 26.1262 12.3299 26.1185 11.4223V11.421Z" fill="#0A71FE"/>
</g>
<defs>
<clipPath id="clip0_454_562">
<rect width="49" height="49" fill="white"/>
</clipPath>
</defs>
</svg>
