<svg width="34" height="50" viewBox="0 0 34 50" fill="none" xmlns="http://www.w3.org/2000/svg">
<g id="Group 232">
<path id="Vector" d="M25.57 22.89L22 22.18V20.24C23.58 18.97 24.67 17.11 24.93 15H25C26.93 15 28.5 13.43 28.5 11.5C28.5 10.11 27.68 8.92 26.5 8.35V2H28.5V6C28.5 6.55 28.95 7 29.5 7C30.05 7 30.5 6.55 30.5 6V2H31C31.55 2 32 1.55 32 1C32 0.45 31.55 0 31 0H21C20.45 0 20 0.45 20 1C20 1.55 20.45 2 21 2H24.5V8H9.5V2H13C13.55 2 14 1.55 14 1C14 0.45 13.55 0 13 0H3C2.45 0 2 0.45 2 1C2 1.55 2.45 2 3 2H7.5V8.35C6.32 8.92 5.5 10.11 5.5 11.5C5.5 13.43 7.07 15 9 15H9.07C9.33 17.11 10.42 18.97 12 20.24V22.18L8.43 22.89C4.7 23.64 2 26.94 2 30.74V37C2 37.55 2.45 38 3 38H31C31.55 38 32 37.55 32 37V30.74C32 26.94 29.3 23.64 25.57 22.89ZM25 10C25.83 10 26.5 10.67 26.5 11.5C26.5 12.33 25.83 13 25 13V10ZM9 13C8.17 13 7.5 12.33 7.5 11.5C7.5 10.67 8.17 10 9 10V13ZM11 14V10H23V14C23 17.31 20.31 20 17 20C13.69 20 11 17.31 11 14ZM20 21.41V22.5L17 24.75L14 22.5V21.41C14.93 21.79 15.94 22 17 22C18.06 22 19.07 21.79 20 21.41ZM13.61 36H10V32C10 31.45 9.55 31 9 31C8.45 31 8 31.45 8 32V36H4V30.74C4 28.05 5.81 25.72 8.36 24.99L12.23 29.64C12.57 30.05 13.17 30.12 13.6 29.8L14.41 29.2L13.61 36ZM13.16 27.63L10.56 24.51L12.76 24.07L15.33 26L13.16 27.63ZM15.62 36L16.61 27.54L17 27.25L17.39 27.54L18.38 36H15.62ZM21.24 24.07L23.44 24.51L20.84 27.63L18.67 26L21.24 24.07ZM30 36H26V32C26 31.45 25.55 31 25 31C24.45 31 24 31.45 24 32V36H20.39L19.59 29.2L20.4 29.8C20.83 30.12 21.43 30.05 21.77 29.64L25.64 24.99C28.19 25.72 30 28.05 30 30.74V36Z" fill="#0A71FE"/>
<path id="Vector_2" d="M15 14.21C15.55 14.21 16 13.76 16 13.21V12.46C16 11.91 15.55 11.46 15 11.46C14.45 11.46 14 11.91 14 12.46V13.21C14 13.76 14.45 14.21 15 14.21Z" fill="#0A71FE"/>
<path id="Vector_3" d="M19 14.21C19.55 14.21 20 13.76 20 13.21V12.46C20 11.91 19.55 11.46 19 11.46C18.45 11.46 18 11.91 18 12.46V13.21C18 13.76 18.45 14.21 19 14.21Z" fill="#0A71FE"/>
<path id="Vector_4" d="M14.4097 16.09C14.0297 16.49 14.0397 17.12 14.4297 17.5C15.1397 18.18 16.0697 18.53 16.9997 18.53C17.9297 18.53 18.8597 18.19 19.5697 17.5C19.9697 17.12 19.9797 16.48 19.5997 16.09C19.2197 15.69 18.5797 15.68 18.1897 16.07C17.5397 16.7 16.4797 16.7 15.8297 16.07C15.4297 15.69 14.7997 15.7 14.4197 16.09H14.4097Z" fill="#0A71FE"/>
<path id="Vector_5" d="M30 40H4C1.79 40 0 42.24 0 45C0 47.76 1.79 50 4 50H30C32.21 50 34 47.76 34 45C34 42.24 32.21 40 30 40ZM21 45C21 46.63 20.08 48 19 48H18.18C18.69 47.16 19 46.13 19 45C19 43.87 18.69 42.84 18.18 42H19C20.08 42 21 43.37 21 45ZM7.18 48C7.69 47.16 8 46.13 8 45C8 43.87 7.69 42.84 7.18 42H15C16.08 42 17 43.37 17 45C17 46.63 16.08 48 15 48H7.18ZM2 45C2 43.37 2.92 42 4 42C5.08 42 6 43.37 6 45C6 46.63 5.08 48 4 48C2.92 48 2 46.63 2 45ZM30 48H22.18C22.69 47.16 23 46.13 23 45C23 43.87 22.69 42.84 22.18 42H30C31.08 42 32 43.37 32 45C32 46.63 31.08 48 30 48Z" fill="#0A71FE"/>
<path id="Vector_6" d="M17 2C17.5523 2 18 1.55228 18 1C18 0.447715 17.5523 0 17 0C16.4477 0 16 0.447715 16 1C16 1.55228 16.4477 2 17 2Z" fill="#0A71FE"/>
</g>
</svg>
