<svg width="50" height="52" viewBox="0 0 50 52" fill="none" xmlns="http://www.w3.org/2000/svg">
<path id="Vector" d="M46.9734 0.923518C45.0241 -0.283996 42.7224 -0.306609 40.4831 0.851158C36.4908 2.92247 32.949 2.98579 32.9222 2.98579H5.24356C1.30476 2.98579 0.136051 5.2154 0.0869837 5.31037C-0.0289946 5.53649 -0.0289946 5.80332 0.0869837 6.02945C0.136051 6.12442 1.30476 8.34951 5.24356 8.34951H32.9133C32.949 8.34951 36.4908 8.4083 40.4831 10.4841C41.3485 10.9364 42.2272 11.2032 43.0881 11.2982V34.4897C43.0881 35.0369 42.8785 35.548 42.4949 35.9369C42.1202 36.3213 41.6117 36.5339 41.0719 36.5339C39.1895 36.5339 37.655 38.0896 37.655 39.9981V47.7678C37.655 48.7899 36.8432 49.6085 35.8395 49.6085C34.8358 49.6085 34.024 48.7809 34.024 47.7678V42.2594C34.024 41.3866 33.6894 40.568 33.0873 39.9665C33.0471 39.9213 32.9936 39.8896 32.949 39.8489C35.3622 36.6922 36.803 32.7395 36.803 28.4476C36.803 18.1589 28.5507 9.79219 18.4026 9.79219C8.25453 9.79219 0.00223035 18.1634 0.00223035 28.4476C0.00223035 38.7318 8.25453 47.103 18.4026 47.103C19.8122 47.103 21.1816 46.9357 22.4975 46.6327V47.9397C22.4975 49.7351 23.9384 51.1959 25.7137 51.1959H25.9457C27.7166 51.1959 29.1574 49.7351 29.1574 47.9397V43.5709C30.17 42.8292 31.1067 41.9881 31.9498 41.0564C31.9587 41.0655 31.9721 41.0745 31.981 41.0835C32.2933 41.3956 32.4628 41.8162 32.4628 42.2639V47.7724C32.4628 49.6583 33.9794 51.1959 35.8395 51.1959C37.6996 51.1959 39.2163 49.6718 39.2163 47.7724V40.0027C39.2163 38.967 40.0504 38.1213 41.0719 38.1213C42.031 38.1213 42.932 37.7414 43.5967 37.0585C44.2747 36.3756 44.6494 35.4666 44.6494 34.4942V11.2756C45.4568 11.158 46.2419 10.8731 46.969 10.4208C48.7265 9.33089 50.0022 7.33646 50.0022 5.67217C50.0022 4.00788 48.7309 2.01345 46.9734 0.928041V0.923518ZM18.4026 45.5201C9.11544 45.5201 1.56348 37.8635 1.56348 28.4476C1.56348 19.0317 9.11544 11.3751 18.4026 11.3751C27.6898 11.3751 35.2418 19.0317 35.2418 28.4476C35.2418 32.4727 33.859 36.1721 31.5528 39.0936C31.3119 39.0348 31.0666 39.0032 30.8123 39.0032C29.0369 39.0032 27.5961 40.464 27.5961 42.2594V42.7388C26.4988 43.4669 25.3123 44.0684 24.0588 44.5252V41.3594C28.9343 39.1569 32.3423 34.2003 32.3423 28.4476C32.3423 20.6553 26.0884 14.3147 18.4026 14.3147C10.7168 14.3147 4.46293 20.6553 4.46293 28.4476C4.46293 36.2399 10.7168 42.5805 18.4026 42.5805C19.8256 42.5805 21.2039 42.3634 22.4975 41.9564V45.0046C21.1861 45.3392 19.8167 45.5156 18.4026 45.5156V45.5201ZM29.9871 40.8167C29.8086 40.9886 29.6302 41.1559 29.4429 41.3187C29.5811 41.1107 29.7685 40.9433 29.9871 40.8167ZM23.2782 31.1566C24.322 31.1566 25.174 32.0204 25.174 33.0787C25.174 34.1369 24.322 35.0007 23.2782 35.0007C22.2344 35.0007 21.3824 34.1369 21.3824 33.0787C21.3824 32.0204 22.2344 31.1566 23.2782 31.1566ZM24.0588 36.4887C25.5888 36.1269 26.7352 34.7384 26.7352 33.0787C26.7352 31.1476 25.1829 29.5737 23.2782 29.5737C22.5288 29.5737 21.8374 29.8179 21.2709 30.234L19.5089 28.4476L21.2709 26.6612C21.8374 27.0728 22.5332 27.3215 23.2826 27.3215C25.1874 27.3215 26.7397 25.7477 26.7397 23.8165C26.7397 21.8854 25.1874 20.3116 23.2826 20.3116C21.3779 20.3116 19.8256 21.8854 19.8256 23.8165C19.8256 24.4135 19.9728 24.9788 20.236 25.4718L18.4026 27.3305L16.5693 25.4763C16.8325 24.9834 16.9797 24.418 16.9797 23.8165C16.9797 21.8854 15.4273 20.3116 13.5226 20.3116C11.6179 20.3116 10.0656 21.8854 10.0656 23.8165C10.0656 25.7477 11.6179 27.3215 13.5226 27.3215C14.272 27.3215 14.9634 27.0773 15.5299 26.6612L17.2919 28.4476L15.5299 30.234C14.9634 29.8225 14.2676 29.5737 13.5182 29.5737C11.6134 29.5737 10.0611 31.1476 10.0611 33.0787C10.0611 35.0098 11.6134 36.5836 13.5182 36.5836C15.4229 36.5836 16.9752 35.0098 16.9752 33.0787C16.9752 32.4817 16.828 31.9164 16.5648 31.4234L18.3982 29.5647L20.2315 31.4189C19.9683 31.9119 19.8211 32.4772 19.8211 33.0787C19.8211 34.7384 20.9675 36.1269 22.4975 36.4887V40.2876C21.2129 40.7444 19.839 40.9976 18.4026 40.9976C11.5778 40.9976 6.02418 35.3671 6.02418 28.4476C6.02418 21.5281 11.5778 15.8976 18.4026 15.8976C25.2275 15.8976 30.7811 21.5281 30.7811 28.4476C30.7811 33.3003 28.0467 37.5198 24.0588 39.6047V36.4932V36.4887ZM21.3824 23.812C21.3824 22.7538 22.2344 21.8899 23.2782 21.8899C24.322 21.8899 25.174 22.7538 25.174 23.812C25.174 24.8703 24.322 25.7341 23.2782 25.7341C22.2344 25.7341 21.3824 24.8703 21.3824 23.812ZM13.5226 25.7341C12.4788 25.7341 11.6268 24.8703 11.6268 23.812C11.6268 22.7538 12.4788 21.8899 13.5226 21.8899C14.5664 21.8899 15.4184 22.7538 15.4184 23.812C15.4184 24.8703 14.5664 25.7341 13.5226 25.7341ZM15.4184 33.0787C15.4184 34.1369 14.5664 35.0007 13.5226 35.0007C12.4788 35.0007 11.6268 34.1369 11.6268 33.0787C11.6268 32.0204 12.4788 31.1566 13.5226 31.1566C14.5664 31.1566 15.4184 32.0204 15.4184 33.0787ZM27.5917 47.9352C27.5917 48.8578 26.8512 49.6085 25.9412 49.6085H25.7093C24.7948 49.6085 24.0543 48.8578 24.0543 47.9352V46.194C25.2944 45.787 26.481 45.2488 27.5917 44.593V47.9352ZM43.8822 6.77114H43.8732H43.8643C42.4993 6.77114 41.625 6.1199 41.625 5.67217C41.625 5.22444 42.4993 4.5732 43.8732 4.5732C45.2471 4.5732 46.1259 5.22444 46.1259 5.67217C46.1259 6.1199 45.2516 6.76662 43.8866 6.77114H43.8822ZM46.1571 9.06859C45.7512 9.31733 45.2471 9.54797 44.6494 9.67008V8.29976C46.4024 8.05102 47.6827 6.98823 47.6827 5.67217C47.6827 4.16617 46.0099 2.99031 43.8688 2.99031C41.7276 2.99031 40.0593 4.17069 40.0593 5.67217C40.0593 6.98823 41.3396 8.05554 43.0881 8.29976V9.71079C42.5083 9.62486 41.8793 9.43039 41.1968 9.07763C36.8565 6.82541 33.0873 6.77114 32.9222 6.77114H5.24356C3.23624 6.77114 2.22366 6.10633 1.77759 5.67217C2.22366 5.24253 3.2407 4.5732 5.24356 4.5732H32.9267C33.0828 4.5732 36.8565 4.51893 41.1968 2.26671C43.4227 1.11346 45.1222 1.63808 46.1616 2.28028C47.589 3.16669 48.441 4.69983 48.441 5.67669C48.441 6.65356 47.589 8.1867 46.1571 9.07311V9.06859Z" fill="#0A71FE"/>
</svg>
