<svg width="42" height="47" viewBox="0 0 42 47" fill="none" xmlns="http://www.w3.org/2000/svg">
<g id="Layer_1" clip-path="url(#clip0_454_517)">
<g id="Group">
<path id="Vector" d="M21.0869 32.0015V30.0932C20.8241 30.0932 20.5489 30.1418 20.301 30.0786C20.0779 30.0227 19.7333 29.872 19.7085 29.7213C19.6491 29.3639 19.9912 29.3469 20.2738 29.3469C21.3249 29.3469 22.3735 29.3469 23.4246 29.3445C23.5288 29.3445 23.6304 29.325 23.851 29.3056C23.0181 28.287 23.4841 27.3778 23.9328 26.4468C25.0286 24.169 26.107 21.8839 27.1705 19.5939C27.8795 18.0673 29.0669 17.3356 30.7676 17.3453C33.1946 17.3575 35.6191 17.3453 38.0461 17.3502C40.364 17.3526 41.8142 18.7674 41.8167 21.0331C41.8192 24.2468 41.8167 27.4605 41.8167 30.6742C41.8167 32.4828 40.6391 33.2753 38.9088 32.6409C38.8765 32.6287 38.8393 32.6409 38.7377 32.6409C38.7377 32.8475 38.7377 33.0541 38.7377 33.2632C38.7377 36.7953 38.7427 40.33 38.7377 43.8621C38.7352 45.3936 37.8403 46.4389 36.4 46.5702C35.4183 46.6602 34.6547 46.2274 34.0498 45.452C33.4549 46.2153 32.7062 46.6431 31.7443 46.5751C30.3238 46.4754 29.3694 45.4228 29.362 43.9618C29.3496 41.7958 29.3595 39.6298 29.3595 37.4639C29.3595 33.2559 29.3595 29.0479 29.3595 24.8399C29.3595 24.6527 29.3595 24.4656 29.3595 24.2784C29.3223 24.2687 29.2826 24.2589 29.2454 24.2492C29.0967 24.5409 28.9455 24.8302 28.8017 25.1219C28.2365 26.2718 27.6712 27.4216 27.111 28.5739C26.6226 29.5803 25.8244 30.1005 24.684 30.1054C24.5947 30.1054 24.508 30.1224 24.3816 30.137V32.1012C24.9096 32.1012 25.4104 32.0963 25.9111 32.1012C27.1953 32.1182 27.8373 32.7502 27.8398 34.0168C27.8448 37.267 27.8101 40.5147 27.8572 43.7649C27.877 45.0898 27.0688 45.926 25.7673 45.7972C25.5913 45.7801 25.4128 45.7972 25.274 45.7972C25.0087 46.1521 25.4029 46.823 24.7584 46.8157C24.1584 46.8109 24.4906 46.191 24.2774 45.7972C23.8262 45.7972 23.328 45.7972 22.8297 45.7972C22.1058 45.7972 21.3819 45.8045 20.658 45.7947C20.3754 45.7899 20.2143 45.8555 20.2217 46.1764C20.2267 46.4632 20.2986 46.8595 19.8226 46.8279C19.4185 46.8036 19.4755 46.4487 19.4631 46.1667C19.4582 46.0646 19.4408 45.9625 19.4259 45.8239C19.2326 45.8142 19.0566 45.8045 18.8805 45.7972C17.9137 45.7558 17.1948 45.0873 17.1898 44.1344C17.1725 40.6897 17.175 37.2451 17.1898 33.8004C17.1948 32.8232 17.8964 32.1547 18.9128 32.1109C19.5995 32.0817 20.2886 32.0915 20.9753 32.0793C21.0076 32.0793 21.0373 32.0477 21.0993 32.0137L21.0869 32.0015ZM30.1453 33.234C30.1453 33.234 30.1329 33.234 30.1255 33.234C30.1255 36.6787 30.1255 40.1233 30.1255 43.568C30.1255 43.8159 30.1255 44.0663 30.1577 44.3118C30.2718 45.1991 31.0006 45.819 31.9055 45.8142C32.9417 45.8093 33.6532 45.046 33.6532 43.9205C33.6557 39.4645 33.6507 35.0086 33.6631 30.5502C33.6631 30.2366 33.502 29.714 34.0474 29.7164C34.5952 29.7189 34.4242 30.2366 34.4242 30.5527C34.4366 34.9211 34.4316 39.2871 34.4316 43.6555C34.4316 43.833 34.4242 44.0104 34.4341 44.1879C34.4787 44.9366 35.0365 45.5978 35.7529 45.768C36.5066 45.9454 37.3197 45.6683 37.6668 44.9925C37.8601 44.6181 37.9395 44.1465 37.9395 43.7211C37.9568 36.8683 37.9518 30.0154 37.9518 23.1626C37.9518 23.0021 37.9072 22.8247 37.9642 22.6885C38.0485 22.4868 38.1849 22.1805 38.3336 22.1586C38.6956 22.1075 38.7303 22.4284 38.7327 22.7104C38.7327 22.8514 38.7327 22.9948 38.7327 23.1358C38.7377 25.7102 38.7327 28.2846 38.7551 30.859C38.7625 31.6563 39.2286 32.1376 39.8979 32.1376C40.5846 32.1376 41.0556 31.6077 41.0556 30.8055C41.0606 27.5043 41.0631 24.2006 41.0556 20.8994C41.0507 19.2536 39.9103 18.1111 38.2295 18.0965C35.6959 18.077 33.1599 18.0868 30.6263 18.094C29.3644 18.0989 28.4497 18.6556 27.9192 19.7908C27.3911 20.9188 26.8581 22.0443 26.3276 23.1699C25.6459 24.6187 24.9517 26.0627 24.2824 27.5164C23.9452 28.2506 24.3097 28.9798 25.0534 29.1306C25.5864 29.2375 26.0574 28.958 26.3673 28.3283C27.3564 26.3155 28.3356 24.2978 29.3396 22.2947C29.4239 22.1294 29.6743 22.0443 29.8478 21.9204C29.947 22.1051 30.1305 22.2899 30.1305 22.4746C30.1478 26.0603 30.1429 29.6459 30.1429 33.234H30.1453ZM27.0688 38.9662C27.0688 37.3156 27.0713 35.665 27.0688 34.0143C27.0688 33.1611 26.7614 32.8548 25.8987 32.8523C23.6354 32.8475 21.3745 32.8475 19.1111 32.8523C18.2657 32.8523 17.9385 33.1781 17.936 34.0265C17.9311 37.3107 17.9311 40.5949 17.936 43.8791C17.936 44.7154 18.2781 45.0436 19.1235 45.0436C21.3869 45.0484 23.6478 45.0484 25.9111 45.0436C26.7391 45.0436 27.0639 44.7227 27.0664 43.918C27.0713 42.2674 27.0664 40.6168 27.0664 38.9662H27.0688ZM21.9446 30.1175V32.055H23.5461V30.1175H21.9446Z" fill="#0A71FE"/>
<path id="Vector_2" d="M19.8594 47.0005C19.8395 47.0005 19.8197 47.0005 19.7999 47.0005C19.2768 46.9688 19.2718 46.5143 19.2693 46.2712C19.2693 46.2347 19.2693 46.2007 19.2693 46.1666C19.2693 46.1107 19.2594 46.0524 19.252 45.9892H19.2173C19.0958 45.9819 18.9793 45.9746 18.8628 45.9697C17.7844 45.9235 16.9985 45.1481 16.9936 44.1246C16.9787 40.804 16.9787 37.4249 16.9936 33.7907C16.9985 32.7186 17.7621 31.9675 18.895 31.9188C19.3462 31.8994 19.8048 31.897 20.2486 31.8945C20.4667 31.8945 20.6849 31.8921 20.903 31.8897V30.2852C20.8882 30.2852 20.8733 30.2852 20.8584 30.2852C20.6601 30.295 20.4568 30.3071 20.256 30.2561C20.1866 30.239 19.5792 30.0786 19.5247 29.7504C19.4974 29.59 19.5296 29.4563 19.6189 29.3542C19.7726 29.1792 20.0378 29.1646 20.2734 29.1646H20.903C21.7434 29.1646 22.5838 29.1646 23.4217 29.1621C23.4515 29.1621 23.4812 29.1621 23.5135 29.1573C22.8912 28.1776 23.3176 27.2903 23.7316 26.4297L23.7614 26.369C24.8373 24.1325 25.9256 21.828 26.9965 19.5186C27.7328 17.9336 28.955 17.163 30.7325 17.163C30.7424 17.163 30.7548 17.163 30.7647 17.163C32.2893 17.1703 33.8114 17.1703 35.3336 17.1678C36.2359 17.1678 37.1383 17.1678 38.0407 17.1678C40.4776 17.1703 41.9948 18.6507 41.9972 21.033C41.9997 24.0766 41.9972 27.1226 41.9972 30.1661V30.6742C41.9972 31.6223 41.6923 32.3297 41.1147 32.721C40.552 33.1027 39.7934 33.144 38.9158 32.8402V36.2897C38.9158 38.813 38.9158 41.3363 38.9158 43.8621C38.9133 45.503 37.9514 46.6115 36.407 46.7501C35.4922 46.8327 34.6989 46.4924 34.0395 45.7412C33.3974 46.4778 32.614 46.8206 31.7216 46.7549C30.2019 46.648 29.1731 45.5249 29.1657 43.9618C29.1583 42.4278 29.1583 40.8939 29.1607 39.36V24.7937C29.0938 24.9299 29.0244 25.0636 28.9575 25.2021L28.6947 25.7369C28.2162 26.7093 27.7402 27.6793 27.2692 28.6541C26.7461 29.7358 25.871 30.2852 24.6737 30.2877C24.6365 30.2877 24.5993 30.2925 24.5571 30.2974V31.9188H24.8621C25.2141 31.9188 25.5612 31.9164 25.9057 31.9188C27.2841 31.9383 28.0154 32.6627 28.0179 34.0167C28.0179 35.0937 28.0179 36.1706 28.0154 37.2475C28.0105 39.3819 28.0055 41.5916 28.0352 43.7624C28.0452 44.4966 27.8097 45.1189 27.3709 45.5127C26.9593 45.8822 26.3941 46.0451 25.7421 45.9795C25.6306 45.9673 25.5116 45.9722 25.4075 45.9746C25.3975 45.9746 25.3901 45.9746 25.3802 45.9746C25.348 46.0645 25.3455 46.1812 25.343 46.2955C25.338 46.558 25.3281 46.9956 24.7604 46.9956H24.7505C24.1927 46.9907 24.1803 46.5483 24.1729 46.2857C24.1704 46.1788 24.1679 46.0718 24.1431 45.977H22.1921C21.6765 45.9795 21.1609 45.9819 20.6452 45.9746C20.4915 45.9722 20.4469 45.994 20.4271 46.0111C20.4047 46.0329 20.3948 46.0913 20.3948 46.1691V46.2566C20.4072 46.4583 20.4171 46.7112 20.2436 46.874C20.1494 46.964 20.0205 47.0077 19.8569 47.0077L19.8594 47.0005ZM21.084 29.9084H21.2699V32.106L21.1757 32.1595C21.1584 32.1692 21.146 32.1789 21.1336 32.1862C21.0939 32.213 21.0394 32.2494 20.965 32.2494C20.727 32.2543 20.4866 32.2543 20.2461 32.2567C19.8073 32.2592 19.3511 32.2616 18.9074 32.281C17.9728 32.3199 17.3654 32.9131 17.363 33.7907C17.3481 37.4249 17.3481 40.804 17.363 44.1222C17.3679 44.956 17.9902 45.5662 18.8752 45.6027C18.9942 45.6075 19.1132 45.6148 19.2346 45.6197L19.5792 45.6367L19.6114 45.9162C19.6238 46.0013 19.6313 46.0743 19.6362 46.1496C19.6362 46.1861 19.6362 46.225 19.6362 46.2663C19.6387 46.5921 19.6734 46.6261 19.8197 46.6358C19.9015 46.6407 19.9585 46.6309 19.9833 46.6066C20.0354 46.5556 20.0304 46.3879 20.0254 46.2639V46.1691C20.018 45.9819 20.0651 45.8433 20.1618 45.7461C20.2957 45.6148 20.4915 45.6002 20.6477 45.6027C21.1609 45.6099 21.674 45.6075 22.1872 45.6075H24.3787L24.4307 45.7023C24.5299 45.8846 24.5348 46.0888 24.5398 46.2687C24.5497 46.6018 24.5745 46.6237 24.748 46.6237C24.934 46.6237 24.9588 46.5969 24.9662 46.2809C24.9711 46.084 24.9736 45.8628 25.1125 45.6804L25.1695 45.6051H25.2637C25.3033 45.6051 25.3455 45.6051 25.3901 45.6027C25.5066 45.5978 25.638 45.5954 25.7744 45.6075C26.3222 45.661 26.7858 45.5322 27.1155 45.2356C27.4799 44.9074 27.6708 44.3969 27.6609 43.7576C27.6287 41.5843 27.6336 39.3746 27.6411 37.2378C27.6436 36.1608 27.646 35.0839 27.6436 34.0095C27.6436 32.8426 27.0858 32.2908 25.8983 32.2762C25.5562 32.2713 25.2116 32.2738 24.8621 32.2762H24.1853V29.9668L24.3514 29.9498C24.3935 29.9449 24.4307 29.94 24.4629 29.9352C24.5398 29.9255 24.6067 29.9157 24.6737 29.9157C25.7297 29.9133 26.471 29.4466 26.9346 28.4888C27.408 27.514 27.884 26.5416 28.3625 25.5716L28.6253 25.0368C28.7244 24.8375 28.8261 24.6381 28.9277 24.4388L29.1384 24.028L29.5375 24.1301V39.3551C29.5351 40.889 29.5326 42.4205 29.54 43.9545C29.5475 45.3158 30.435 46.293 31.7513 46.3879C32.5967 46.4486 33.2983 46.1034 33.8957 45.3377L34.042 45.1481L34.1907 45.3377C34.803 46.1204 35.5195 46.4632 36.3772 46.3854C37.7134 46.2639 38.5439 45.2964 38.5464 43.8597C38.5514 41.3363 38.5489 38.813 38.5489 36.2897V32.4585H38.7348C38.7695 32.4585 38.7968 32.4585 38.8166 32.4585C38.8662 32.4561 38.9158 32.4536 38.9703 32.4731C39.7636 32.7648 40.433 32.7478 40.9065 32.4245C41.3775 32.1036 41.6279 31.5007 41.6279 30.6766V30.1685C41.6279 27.125 41.6279 24.079 41.6279 21.0355C41.6279 18.8792 40.252 17.5373 38.0432 17.5349C37.1408 17.5349 36.2384 17.5349 35.336 17.5349C33.8114 17.5349 32.2868 17.5373 30.7647 17.53C29.1211 17.5276 28.0105 18.2229 27.3362 19.6717C26.2627 21.9835 25.1744 24.2905 24.0985 26.527L24.0688 26.5902C23.63 27.5018 23.2507 28.2894 23.9944 29.1962L24.2101 29.4587L23.868 29.4927C23.7886 29.5 23.7242 29.5073 23.6721 29.5146C23.568 29.5268 23.4961 29.5341 23.4242 29.5341C22.5838 29.5341 21.7434 29.5341 20.903 29.5341H20.2734C20.1866 29.5341 19.9536 29.5341 19.9015 29.5973C19.8817 29.6192 19.8866 29.6702 19.8916 29.6994C19.9164 29.7383 20.1221 29.855 20.3452 29.9109C20.4915 29.9473 20.6576 29.9376 20.8336 29.9279C20.9179 29.923 21.0022 29.9182 21.084 29.9182V29.9084ZM36.2062 46.0062C36.0426 46.0062 35.8765 45.9867 35.7079 45.9478C34.9121 45.7582 34.2973 45.0241 34.2453 44.2C34.2378 44.0687 34.2378 43.9399 34.2403 43.8086V43.6579V40.8745C34.2403 37.4347 34.2403 33.9949 34.2329 30.5551C34.2329 30.4919 34.2378 30.4189 34.2453 30.346C34.2577 30.1977 34.275 30.013 34.213 29.9473C34.1783 29.9084 34.0965 29.9036 34.037 29.9011C33.9775 29.9011 33.9031 29.9084 33.8684 29.9473C33.804 30.0154 33.8189 30.2026 33.8313 30.3533C33.8362 30.4238 33.8412 30.4919 33.8412 30.5551C33.8337 33.5962 33.8313 36.6349 33.8313 39.676C33.8313 41.0932 33.8313 42.5081 33.8313 43.9253C33.8313 45.1432 33.0355 45.9965 31.8976 46.0013H31.8877C30.8961 46.0013 30.0879 45.3036 29.9639 44.3386C29.9317 44.0857 29.9317 43.8305 29.9317 43.5825C29.9317 40.7019 29.9317 37.8309 29.9317 34.96V33.0565H29.9516V31.4108C29.9516 28.4839 29.9515 25.4574 29.9392 22.4795C29.9392 22.409 29.8673 22.302 29.7978 22.2023C29.7929 22.195 29.7855 22.1853 29.7805 22.178C29.7706 22.1829 29.7631 22.1877 29.7532 22.1926C29.6491 22.2509 29.5326 22.3166 29.5004 22.3798C28.8013 23.7751 28.1022 25.2021 27.4254 26.5805C27.1254 27.1906 26.828 27.8032 26.528 28.4134C26.1834 29.1111 25.6306 29.4393 25.0083 29.3153C24.6018 29.2326 24.2795 28.9993 24.1035 28.6565C23.9176 28.2967 23.9176 27.8567 24.1035 27.4459C24.5745 26.4249 25.0629 25.3917 25.5364 24.3926C25.7397 23.9623 25.9454 23.5296 26.1487 23.0993L26.6172 22.1075C26.9916 21.3126 27.3684 20.5177 27.7402 19.7203C28.298 18.5267 29.2673 17.9214 30.6159 17.9166H31.1415C33.4619 17.9068 35.8616 17.902 38.2216 17.919C39.9917 17.9336 41.2287 19.1612 41.2337 20.9018C41.2411 24.2711 41.2386 27.7449 41.2337 30.8103C41.2337 31.7 40.6809 32.3248 39.89 32.3248C39.1042 32.3248 38.5687 31.7389 38.5613 30.8662C38.5439 29.0017 38.5439 27.1056 38.5414 25.2702V22.9997C38.539 22.9049 38.5414 22.8125 38.539 22.7177C38.539 22.6448 38.534 22.4187 38.4671 22.3603C38.4423 22.3385 38.3902 22.3409 38.353 22.3458C38.3431 22.3555 38.2712 22.4235 38.1299 22.7639C38.1076 22.8198 38.115 22.9146 38.1225 23.0045C38.1274 23.0604 38.1324 23.1164 38.1324 23.1698V27.0132C38.1324 32.4925 38.1324 38.1567 38.12 43.7308C38.12 44.2389 38.0159 44.7202 37.8275 45.0849C37.5275 45.6683 36.8978 46.0135 36.2012 46.0135L36.2062 46.0062ZM34.0395 29.5365H34.0445C34.2378 29.5365 34.389 29.5924 34.4882 29.7018C34.6593 29.8866 34.6345 30.1588 34.6146 30.3776C34.6097 30.4408 34.6022 30.5016 34.6047 30.5551C34.6146 33.9949 34.6122 37.4347 34.6122 40.8745V43.8135C34.6097 43.935 34.6072 44.0566 34.6146 44.1805C34.6543 44.8491 35.1501 45.4422 35.7922 45.5954C36.5037 45.7631 37.2052 45.4835 37.4978 44.9171C37.6614 44.6035 37.7506 44.1805 37.7506 43.726C37.763 38.1542 37.763 32.4877 37.763 27.0107V23.1674C37.763 23.1237 37.7581 23.0775 37.7556 23.0313C37.7457 22.9024 37.7333 22.759 37.7878 22.6229C37.9366 22.2607 38.0828 22.0127 38.301 21.9835C38.4671 21.9592 38.6034 21.9933 38.71 22.0808C38.8836 22.2266 38.9108 22.4697 38.9133 22.7128C38.9133 22.8076 38.9133 22.9049 38.9133 22.9997V25.2702C38.9183 27.1031 38.9207 28.9993 38.9356 30.8638C38.9406 31.542 39.3075 31.9626 39.8925 31.9626C40.4825 31.9626 40.8643 31.5104 40.8643 30.8128C40.8668 27.7473 40.8717 24.2735 40.8643 20.9066C40.8594 19.3533 39.7983 18.2982 38.2216 18.2861C35.8641 18.2666 33.4644 18.2739 31.1465 18.2812H30.6209C29.4111 18.2861 28.5806 18.8063 28.0823 19.8735C27.7105 20.6708 27.3337 21.4657 26.9593 22.2607L26.4908 23.2525C26.2875 23.6852 26.0818 24.1155 25.8785 24.5458C25.405 25.5449 24.9166 26.5756 24.4456 27.5966C24.3018 27.9102 24.2993 28.2262 24.4357 28.4912C24.5621 28.7319 24.7927 28.8972 25.0852 28.9579C25.5314 29.0479 25.9281 28.7999 26.1958 28.2554C26.4958 27.6452 26.7957 27.0351 27.0932 26.4249C27.77 25.0441 28.4666 23.6171 29.1682 22.2218C29.25 22.0589 29.4186 21.9641 29.5698 21.879C29.6268 21.8474 29.6838 21.8158 29.7334 21.7793L29.9069 21.6554L30.0061 21.8425C30.0334 21.896 30.0705 21.9495 30.1077 22.003C30.2019 22.1416 30.311 22.2996 30.311 22.4819C30.3259 25.4598 30.3234 28.4863 30.3234 31.4156V33.426H30.3036V34.9648C30.3036 37.8358 30.3036 40.7067 30.3036 43.5752C30.3036 43.8232 30.3036 44.0663 30.3333 44.2972C30.435 45.0897 31.0746 45.6391 31.8877 45.6391H31.8951C32.8297 45.6343 33.4569 44.9487 33.4569 43.9277C33.4569 42.5105 33.4569 41.0957 33.4569 39.6784C33.4569 36.6373 33.4569 33.5962 33.4668 30.5575C33.4668 30.5065 33.4619 30.4481 33.4569 30.3873C33.4396 30.1661 33.4173 29.889 33.5908 29.7042C33.6924 29.5973 33.8412 29.5414 34.0321 29.5414L34.0395 29.5365ZM22.5119 45.2307C21.379 45.2307 20.2486 45.2307 19.1181 45.2283C18.1711 45.2283 17.7472 44.8102 17.7447 43.8815C17.7398 40.5973 17.7398 37.3131 17.7447 34.0289C17.7447 33.0808 18.1538 32.6749 19.1057 32.6724C21.3691 32.6676 23.63 32.6676 25.8934 32.6724C26.8552 32.6724 27.2469 33.0638 27.2494 34.0143C27.2519 35.1885 27.2494 36.3602 27.2494 37.5343V38.9686V40.4855C27.2494 41.6305 27.2494 42.7779 27.2494 43.9229C27.2469 44.8247 26.8329 45.2283 25.9082 45.2307C24.7778 45.2307 23.6473 45.2332 22.5144 45.2332L22.5119 45.2307ZM22.4971 33.0322C21.3666 33.0322 20.2362 33.0322 19.1032 33.0346C18.3546 33.0346 18.1141 33.2777 18.1141 34.0265C18.1091 37.3107 18.1091 40.5949 18.1141 43.8767C18.1141 44.6108 18.367 44.8588 19.1156 44.8612C21.379 44.8661 23.6399 44.8661 25.9033 44.8612C26.6271 44.8612 26.8726 44.623 26.8751 43.918C26.8775 42.773 26.8775 41.628 26.8751 40.4831V38.9662V37.5319C26.8751 36.3602 26.8751 35.186 26.8751 34.0143C26.8751 33.2559 26.6519 33.0371 25.8909 33.0346C24.7604 33.0346 23.6275 33.0322 22.4971 33.0322ZM23.7267 32.2397H21.7533V29.9376H23.7267V32.2397ZM22.1252 31.8751H23.3548V30.3023H22.1252V31.8751Z" fill="#0A71FE"/>
</g>
<g id="Group_2">
<path id="Vector_3" d="M0.958919 25.416V26.1307C0.958919 32.3101 0.958919 38.4872 0.953961 44.6667C0.953961 44.9754 1.1027 45.4494 0.584583 45.4592C0.0491094 45.4689 0.210247 44.9851 0.210247 44.6813C0.20281 37.6509 0.205289 30.6206 0.205289 23.5903C0.205289 23.0458 0.492859 22.7727 1.068 22.7711C2.56782 22.7711 4.06764 22.7711 5.65175 22.7711C5.65175 22.5304 5.65175 22.3262 5.65175 22.122C5.65175 19.4237 5.64927 16.7253 5.65175 14.027C5.65423 12.0117 7.08712 10.6358 9.15217 10.6407C11.9386 10.6455 14.7251 10.6504 17.5115 10.6407C19.5914 10.6334 21.0293 12.0141 21.0342 14.0683C21.0417 16.7302 21.0342 19.3945 21.0342 22.0564C21.0342 22.2679 21.0342 22.4794 21.0342 22.7711C21.711 22.7711 22.3556 22.7711 23.0001 22.7711C23.4538 22.7711 23.9099 22.7395 24.3562 22.7905C24.5049 22.8076 24.6313 23.0336 24.7677 23.1649C24.6338 23.2767 24.5148 23.4299 24.3586 23.4907C24.2173 23.5466 24.0388 23.5052 23.8752 23.5052C16.4901 23.5052 9.10259 23.5052 1.71751 23.5052H0.991147V24.6794H1.63074C6.89871 24.6794 12.1667 24.6794 17.4347 24.6794C17.5983 24.6794 17.7817 24.6381 17.9181 24.7013C18.0544 24.7645 18.228 24.9322 18.2255 25.0489C18.223 25.1704 18.0495 25.3333 17.9106 25.3941C17.7743 25.4549 17.5908 25.4135 17.4272 25.4135C12.1766 25.4135 6.92846 25.4135 1.67784 25.4135H0.958919V25.416ZM9.6331 22.7371H17.0554C17.0554 22.5158 17.0554 22.3262 17.0554 22.1342C17.0554 20.2697 17.0554 18.4051 17.0554 16.543C17.0554 16.2756 17.0231 15.9596 17.4123 15.945C17.8487 15.928 17.809 16.2707 17.809 16.5527C17.809 18.4173 17.809 20.2818 17.809 22.1439C17.809 22.3335 17.809 22.5231 17.809 22.7395H20.2633C20.2633 22.5134 20.2633 22.3044 20.2633 22.0977C20.2633 19.4869 20.2633 16.8785 20.2633 14.2676C20.2633 14.0367 20.2583 13.8058 20.2335 13.5772C20.1294 12.5684 19.4055 11.7516 18.404 11.5012C17.9106 11.3772 17.5437 11.438 17.2165 11.9266C16.1951 13.4557 15.1143 14.9434 14.0532 16.4458C13.6045 17.0802 13.4484 17.0802 12.9972 16.4409C11.9039 14.8948 10.823 13.3414 9.70995 11.8099C9.58104 11.6301 9.29099 11.4696 9.07036 11.4623C7.4565 11.4088 6.41034 12.4177 6.40786 14.01C6.40043 16.7448 6.40786 19.4772 6.40786 22.212C6.40786 22.3821 6.42769 22.5547 6.43761 22.7371H8.8646C8.8646 22.4988 8.8646 22.2898 8.8646 22.0807C8.8646 20.3231 8.8646 18.5656 8.8646 16.808C8.8646 16.6475 8.82493 16.4701 8.88443 16.3339C8.95136 16.1808 9.10754 16.0665 9.22406 15.9377C9.35793 16.0738 9.53394 16.1881 9.61575 16.3485C9.6802 16.4774 9.6331 16.6621 9.6331 16.8226C9.6331 18.7746 9.6331 20.7267 9.6331 22.7371ZM16.6042 11.4963C15.3473 11.2921 14.8019 11.3748 14.5416 11.7832C13.9417 12.7215 13.969 13.2175 14.6978 14.2069C15.3275 13.3123 15.9448 12.4323 16.6067 11.4963H16.6042ZM10.3966 11.4283C10.7834 11.9801 11.0883 12.4152 11.3932 12.848C11.7056 13.2904 12.0204 13.7328 12.3873 14.253C12.5138 13.9467 12.5633 13.7377 12.6749 13.5675C13.1385 12.8601 12.8732 12.2548 12.4121 11.686C12.3154 11.5668 12.1369 11.4502 11.9882 11.4404C11.5048 11.4088 11.0164 11.4283 10.3966 11.4283ZM13.5178 15.7918C14.1995 15.0844 14.1945 14.7441 13.493 13.6891C12.8311 14.8754 12.8336 15.031 13.5178 15.7918Z" fill="#0A71FE"/>
<path id="Vector_4" d="M0.569638 45.6391C0.381231 45.6391 0.237446 45.5856 0.138284 45.4835C-0.0278117 45.3085 -0.00550032 45.0508 0.011853 44.8442C0.0168111 44.7858 0.0217692 44.7299 0.0217692 44.6813C0.0143321 38.3365 0.0143321 31.9917 0.0168111 25.647V23.5904C0.0168111 22.6739 0.106057 22.5888 1.06545 22.5888H5.46328V19.7154C5.46328 17.8193 5.46328 15.9232 5.46328 14.027C5.46328 12.989 5.82274 12.0968 6.49456 11.4478C7.1639 10.8011 8.07867 10.4608 9.1397 10.4608H9.14962C11.6411 10.4657 14.5812 10.4705 17.509 10.4608H17.5263C18.5923 10.4608 19.5096 10.8036 20.1789 11.4551C20.8557 12.1114 21.2151 13.0157 21.2176 14.0708C21.2226 15.928 21.2226 17.7853 21.2201 19.6425V22.5937H23C23.1215 22.5986 23.248 22.5937 23.3719 22.5888C23.7016 22.584 24.0412 22.5767 24.3784 22.6156C24.5569 22.635 24.6784 22.7833 24.7874 22.9146C24.8246 22.9608 24.8618 23.0045 24.899 23.041L25.0453 23.1795L24.8916 23.3084C24.8544 23.34 24.8172 23.374 24.7825 23.4105C24.6858 23.5029 24.5767 23.6098 24.4329 23.6657C24.2941 23.7217 24.1454 23.7095 24.014 23.6998C23.9694 23.6973 23.9223 23.6925 23.8801 23.6925H1.17948V24.502H17.4346C17.4767 24.502 17.5214 24.4996 17.5635 24.4971C17.6998 24.4874 17.8535 24.4777 17.9949 24.5409C18.1659 24.6187 18.4138 24.8375 18.4089 25.0587C18.4039 25.2799 18.1585 25.489 17.9849 25.5667C17.8461 25.6299 17.6924 25.6178 17.5561 25.6081C17.5114 25.6056 17.4668 25.6008 17.4247 25.6008H1.14478V29.2983C1.14478 34.4227 1.14478 39.5447 1.13982 44.6692C1.13982 44.7202 1.14478 44.7761 1.14974 44.832C1.16709 45.0411 1.18692 45.3012 1.02082 45.4787C0.921663 45.5856 0.775399 45.6391 0.586992 45.644C0.582034 45.644 0.577076 45.644 0.569638 45.644V45.6391ZM4.46422 22.951H1.06545C0.745651 22.951 0.495267 22.951 0.440728 23.0021C0.388668 23.0507 0.388668 23.2987 0.388668 23.5855V25.6421C0.388668 31.9869 0.388668 38.3317 0.393626 44.6764C0.393626 44.7372 0.388668 44.8029 0.381231 44.8709C0.368836 44.9998 0.353961 45.1748 0.4085 45.2307C0.433291 45.2574 0.497746 45.2745 0.579555 45.2696C0.636573 45.2696 0.710944 45.2599 0.745651 45.2234C0.802669 45.1626 0.787795 44.99 0.777878 44.8515C0.77292 44.7834 0.767962 44.7202 0.767962 44.6594C0.77292 39.535 0.77292 34.413 0.77292 29.2885V25.2264H17.4272C17.4792 25.2264 17.5313 25.2288 17.5833 25.2337C17.68 25.241 17.7792 25.2483 17.8312 25.224C17.9279 25.1802 18.0271 25.0757 18.037 25.0344C18.0271 25.0076 17.9304 24.9031 17.8387 24.8618C17.7841 24.8375 17.685 24.8448 17.5908 24.852C17.5387 24.8545 17.4866 24.8593 17.4371 24.8593H0.807627V23.3205H23.8776C23.9297 23.3205 23.9867 23.3254 24.0412 23.3278C24.1355 23.3351 24.2346 23.3424 24.2916 23.3181C24.3635 23.2889 24.4354 23.2209 24.5123 23.1479C24.5073 23.1431 24.5024 23.1382 24.4999 23.1334C24.4528 23.075 24.371 22.9778 24.3338 22.9656C24.0264 22.9316 23.714 22.9365 23.3818 22.9437C23.2554 22.9462 23.1339 22.951 23.0025 22.9486H20.8507V19.6328C20.8507 17.7755 20.8507 15.9183 20.8482 14.0611C20.8458 13.1057 20.5235 12.2889 19.9211 11.703C19.3211 11.122 18.4956 10.8157 17.5288 10.8157H17.5139C14.5862 10.8255 11.6435 10.823 9.1521 10.8157H9.14218C8.18031 10.8157 7.35727 11.122 6.75734 11.6982C6.15741 12.2792 5.83761 13.0814 5.83761 14.0197C5.83513 15.9159 5.83761 17.812 5.83761 19.7082V22.9462H4.4667L4.46422 22.951ZM20.4491 22.9219H17.623V20.8531C17.623 19.4189 17.623 17.9846 17.623 16.5503V16.4798C17.623 16.3559 17.6255 16.2027 17.5759 16.1541C17.5511 16.1298 17.4966 16.1176 17.4197 16.1225C17.271 16.1274 17.2387 16.159 17.2412 16.4798V16.5382V22.9146H9.4471V16.8178C9.4471 16.7643 9.45206 16.7108 9.45702 16.6549C9.46446 16.5674 9.47189 16.4701 9.44958 16.4264C9.40992 16.3461 9.32315 16.2708 9.23143 16.1906C9.15706 16.2635 9.08764 16.334 9.05541 16.4045C9.03062 16.4628 9.03806 16.5625 9.04302 16.6573C9.0455 16.7084 9.05046 16.7594 9.05046 16.808V22.9194H6.26153L6.25161 22.7468C6.24913 22.6885 6.24418 22.6326 6.23922 22.5791C6.2293 22.4551 6.22186 22.3336 6.22186 22.212V20.8191C6.21938 18.5486 6.21691 16.2805 6.22186 14.01C6.22186 13.1689 6.49952 12.4663 7.01764 11.9753C7.52832 11.4915 8.23733 11.2509 9.07773 11.2776C9.3529 11.2873 9.69749 11.4745 9.86358 11.703C10.6792 12.8261 11.4923 13.9784 12.2757 15.0942C12.5657 15.5075 12.8583 15.9207 13.1508 16.334C13.3838 16.6646 13.4855 16.7351 13.5276 16.7351C13.5698 16.7351 13.6689 16.667 13.8995 16.3389C14.1722 15.9523 14.4473 15.5658 14.7225 15.1793C15.5009 14.0854 16.3041 12.955 17.0627 11.8221C17.4891 11.1828 18.0023 11.2095 18.451 11.3214C19.5343 11.5912 20.3078 12.4688 20.4194 13.5554C20.4466 13.8082 20.4491 14.0562 20.4491 14.2653C20.4491 16.3534 20.4491 18.4416 20.4491 20.5298V22.9219ZM17.9949 22.5572H20.0773V20.5298C20.0773 18.4416 20.0773 16.3534 20.0773 14.2677C20.0773 14.0683 20.0748 13.8325 20.05 13.5943C19.9533 12.6633 19.2889 11.9097 18.3593 11.6763C17.8833 11.5572 17.6255 11.6496 17.3751 12.0239C16.614 13.1616 15.8083 14.2944 15.0299 15.3908C14.7547 15.7773 14.482 16.1614 14.2094 16.5479C13.9614 16.898 13.773 17.1022 13.5301 17.1022C13.2896 17.1022 13.0963 16.898 12.8484 16.5455C12.5558 16.1322 12.2633 15.719 11.9733 15.3033C11.1874 14.1899 10.3767 13.0376 9.56362 11.917C9.46446 11.7808 9.22895 11.6496 9.06781 11.6447C8.33649 11.6204 7.71673 11.827 7.27794 12.2403C6.83419 12.6608 6.59868 13.2734 6.5962 14.0124C6.59124 16.2829 6.59372 18.551 6.5962 20.8215V22.2145C6.5962 22.3263 6.60612 22.4381 6.61355 22.5548C6.61355 22.5548 6.61355 22.5548 6.61355 22.5572H8.68108V16.8105C8.68108 16.7691 8.68108 16.7254 8.67612 16.684C8.6662 16.5528 8.65877 16.4021 8.71826 16.2659C8.77776 16.1274 8.88684 16.0204 8.98352 15.9256C9.02071 15.8891 9.05541 15.8551 9.08764 15.8186L9.21903 15.6703L9.36034 15.8113C9.39752 15.8502 9.43967 15.8867 9.48181 15.9207C9.59089 16.0155 9.71484 16.1249 9.78673 16.2684C9.85615 16.4045 9.84375 16.5552 9.83136 16.6913C9.8264 16.7351 9.82392 16.7813 9.82392 16.8226V22.5548H16.8743V16.4871C16.8743 16.2416 16.8694 15.7822 17.4098 15.7627C17.5908 15.7554 17.737 15.8016 17.8387 15.8964C18.0023 16.0544 17.9998 16.2927 17.9998 16.4871V16.5528C17.9998 17.987 17.9998 19.4213 17.9998 20.8556V22.5597L17.9949 22.5572ZM13.5127 16.0617L13.3789 15.9134C12.6079 15.0577 12.6599 14.8025 13.3293 13.6016L13.478 13.3342L13.6466 13.5894C14.3928 14.7125 14.3953 15.1477 13.6516 15.9183L13.5127 16.0642V16.0617ZM13.5053 14.0489C13.0591 14.8779 13.0913 15.0334 13.5202 15.5196C13.9292 15.0626 13.9664 14.7976 13.5053 14.0489ZM12.4294 14.6348L11.8766 13.8544C11.6535 13.5384 11.4452 13.2443 11.237 12.9501C11.0163 12.6365 10.7982 12.3254 10.5478 11.968L10.0396 11.2436H10.3941C10.5751 11.2436 10.7436 11.2436 10.9048 11.2412C11.3039 11.2363 11.6485 11.2339 11.998 11.2557C12.2187 11.2703 12.4418 11.4283 12.5558 11.5693C12.9773 12.0944 13.3913 12.8067 12.8285 13.6648C12.7665 13.7596 12.7219 13.8787 12.6674 14.0295C12.6352 14.117 12.6005 14.2118 12.5558 14.3212L12.4269 14.6348H12.4294ZM10.7461 11.6082L10.8552 11.7614C11.1056 12.1187 11.3237 12.4299 11.5444 12.7435C11.7501 13.0376 11.9584 13.3293 12.184 13.6454L12.3377 13.8617C12.3922 13.7134 12.4418 13.5846 12.5186 13.4679C12.8682 12.9355 12.7938 12.4518 12.2683 11.7954C12.1964 11.7055 12.0625 11.6252 11.9782 11.6204C11.6411 11.5985 11.3039 11.6009 10.9122 11.6058C10.8602 11.6058 10.8056 11.6058 10.7511 11.6058L10.7461 11.6082ZM14.6977 14.5229L14.544 14.3139C13.7805 13.2759 13.7433 12.6851 14.3829 11.686C14.7374 11.1293 15.5084 11.1318 16.6339 11.3165L16.9239 11.3627L14.7002 14.5229H14.6977ZM15.5232 11.5693C15.02 11.5693 14.8167 11.6909 14.6952 11.8781C14.1796 12.6876 14.1598 13.1033 14.6928 13.886L16.2794 11.6301C15.9695 11.5888 15.724 11.5693 15.5232 11.5693Z" fill="#0A71FE"/>
</g>
<g id="Group_3">
<path id="Vector_5" d="M13.6568 0.190112C14.7055 0.190112 15.7541 0.199836 16.8052 0.18525C17.2415 0.177957 17.4275 0.355417 17.4349 0.780833C17.4572 2.21752 17.5117 3.65179 17.5241 5.08848C17.539 7.22042 15.8111 8.91236 13.6444 8.91722C11.4728 8.91966 9.75977 7.2423 9.75977 5.10063C9.75977 3.68096 9.78951 2.26371 9.78208 0.844038C9.7796 0.36514 9.96553 0.175526 10.4564 0.182819C11.5224 0.202267 12.5908 0.187681 13.6568 0.187681V0.190112ZM13.6345 4.54151C12.747 4.54151 11.862 4.55124 10.9745 4.53665C10.6572 4.53179 10.5332 4.62903 10.5134 4.95721C10.4093 6.69047 11.862 8.18551 13.6667 8.17579C15.4417 8.16606 16.8647 6.6686 16.7556 4.95234C16.7333 4.62417 16.6094 4.53179 16.2945 4.53665C15.4095 4.55124 14.522 4.54151 13.6345 4.54151ZM10.5531 3.76847H16.6143V0.941276C14.6683 0.941276 12.7569 0.936414 10.8456 0.953431C10.7464 0.953431 10.5679 1.13575 10.5655 1.23785C10.5431 2.06681 10.5531 2.89576 10.5531 3.76604V3.76847Z" fill="#0A71FE"/>
<path id="Vector_6" d="M13.6354 9.09706C12.5397 9.09706 11.5183 8.68623 10.7572 7.94236C9.9937 7.19362 9.57227 6.18235 9.57227 5.09815C9.57227 4.49284 9.57722 3.88753 9.58466 3.28223C9.5921 2.48244 9.59954 1.65592 9.59458 0.843983C9.59458 0.542545 9.65903 0.338345 9.8053 0.19735C9.94908 0.0563546 10.1648 -0.0068501 10.4598 0.000442749C11.2134 0.0150285 11.9844 0.0125975 12.7281 0.0077356C13.3404 0.0077356 13.9527 0.0077356 14.5651 0.0077356C15.2989 0.0077356 16.0575 0.0125975 16.8012 0.000442749C17.3416 -0.0068501 17.6093 0.245969 17.6193 0.775916C17.6292 1.38852 17.644 2.00355 17.6589 2.61615C17.6787 3.42565 17.7011 4.2619 17.706 5.08356C17.7135 6.15804 17.2995 7.16445 16.5384 7.91805C15.7724 8.67407 14.7436 9.0922 13.6429 9.09463H13.6354V9.09706ZM10.4226 0.365085C10.2466 0.365085 10.1301 0.394257 10.0656 0.457461C9.99618 0.523097 9.96395 0.649507 9.96643 0.843983C9.97139 1.65835 9.96395 2.48731 9.95652 3.28709C9.95156 3.89239 9.9466 4.49527 9.94412 5.10058C9.94412 6.08754 10.3259 7.00644 11.02 7.68711C11.7092 8.36291 12.6388 8.73485 13.6354 8.73485H13.6429C14.6444 8.73485 15.5815 8.35319 16.2756 7.66523C16.9673 6.98213 17.3441 6.06566 17.3366 5.09085C17.3317 4.27162 17.3094 3.43538 17.2895 2.6283C17.2747 2.01327 17.2573 1.39824 17.2499 0.78564C17.2449 0.457461 17.1433 0.365085 16.8086 0.367516C16.0599 0.37724 15.3013 0.374809 14.5651 0.374809C13.9552 0.374809 13.3429 0.374809 12.7306 0.374809C11.9844 0.37724 11.2134 0.379671 10.4548 0.367516C10.4449 0.367516 10.435 0.367516 10.4251 0.367516L10.4226 0.365085ZM13.6478 8.35562C12.738 8.35562 11.8555 7.98368 11.2258 7.33219C10.6011 6.68556 10.2738 5.81528 10.3259 4.945C10.3507 4.5293 10.554 4.34941 10.9779 4.35428C11.61 4.364 12.2571 4.36157 12.8793 4.36157H13.6329H14.3866C15.0113 4.36157 15.6558 4.36643 16.2905 4.35428C16.7268 4.35184 16.9152 4.52201 16.94 4.94013C16.997 5.80555 16.6747 6.67583 16.0599 7.32247C15.4402 7.97396 14.5675 8.35319 13.6677 8.35805H13.6478V8.35562ZM10.9407 4.71649C10.7424 4.71649 10.7126 4.75295 10.6978 4.96444C10.6507 5.74721 10.9333 6.49837 11.496 7.07937C12.0563 7.65794 12.8396 7.99098 13.6478 7.99098H13.6652C14.4609 7.98611 15.2344 7.65064 15.7872 7.07208C16.3351 6.49837 16.6177 5.72776 16.5706 4.96201C16.5557 4.7408 16.521 4.71162 16.2979 4.71892C15.6608 4.72864 15.0138 4.72864 14.3866 4.72621H13.6354H12.8818C12.2546 4.72621 11.61 4.73107 10.9729 4.71892C10.963 4.71892 10.9506 4.71892 10.9407 4.71892V4.71649ZM16.8012 3.94831H10.368V3.15339C10.3656 2.49217 10.3631 1.86498 10.3804 1.2305C10.3854 1.02873 10.6457 0.771054 10.844 0.768623C12.4256 0.754037 13.9701 0.756468 15.6063 0.756468H16.8012V3.94831ZM10.7399 3.58366H16.4293V1.12354H15.6063C13.9726 1.12354 12.4256 1.12354 10.8465 1.1357C10.8341 1.14542 10.7597 1.22321 10.7473 1.25724C10.7325 1.87227 10.7349 2.4946 10.7349 3.15339V3.58366H10.7399Z" fill="#0A71FE"/>
</g>
<g id="Group_4">
<path id="Vector_7" d="M34.1841 15.1915C32.1314 15.1842 30.4556 13.5336 30.4531 11.5232C30.4531 9.49089 32.1513 7.84271 34.2362 7.85C36.2888 7.85729 37.9622 9.50548 37.9646 11.5207C37.9646 13.5554 36.2714 15.1988 34.1841 15.1915ZM37.1837 11.5086C37.1763 9.89929 35.8574 8.5963 34.2238 8.58901C32.5727 8.58172 31.2291 9.90658 31.2365 11.5353C31.2439 13.1446 32.5653 14.4476 34.1965 14.4525C35.8525 14.4598 37.1912 13.1397 37.1837 11.5086Z" fill="#0A71FE"/>
<path id="Vector_8" d="M34.2013 15.3738H34.1839C32.0247 15.3641 30.2695 13.6382 30.2695 11.5232C30.2695 10.4974 30.6786 9.52984 31.4248 8.80299C32.1734 8.07127 33.1675 7.67017 34.2261 7.67017H34.241C36.3977 7.67746 38.1529 9.40587 38.1554 11.5232C38.1554 12.5515 37.7463 13.5166 37.0026 14.2435C36.2564 14.9727 35.2623 15.3763 34.2038 15.3763L34.2013 15.3738ZM34.2236 8.03238C33.2642 8.03238 32.3643 8.39702 31.6851 9.06067C31.0108 9.71946 30.6389 10.5946 30.6389 11.5232C30.6389 13.4388 32.2305 15.0019 34.1839 15.0092H34.1988C35.1582 15.0092 36.0581 14.6446 36.7349 13.9833C37.4092 13.3246 37.7786 12.4494 37.7786 11.5208C37.7786 9.6052 36.187 8.03967 34.236 8.03238H34.2236ZM34.2087 14.6348H34.1963C32.4684 14.6275 31.0579 13.237 31.0504 11.5354C31.048 10.6967 31.3777 9.90664 31.9826 9.31349C32.58 8.72763 33.3683 8.40674 34.2087 8.40674H34.2236C35.9515 8.41404 37.3621 9.80697 37.367 11.5086C37.3695 12.3497 37.0398 13.1398 36.4374 13.7305C35.8424 14.314 35.0491 14.6348 34.2063 14.6348H34.2087ZM34.2087 8.77139C33.4675 8.77139 32.7734 9.05581 32.2453 9.57117C31.7099 10.0963 31.4173 10.7915 31.4223 11.5329C31.4297 13.0353 32.6742 14.2629 34.1963 14.2702C34.9376 14.2751 35.6466 13.9906 36.1746 13.4704C36.7076 12.9478 37.0001 12.2501 36.9952 11.5086C36.9902 10.0063 35.7457 8.77868 34.2211 8.77139H34.2087Z" fill="#0A71FE"/>
</g>
<g id="Group_5">
<path id="Vector_9" d="M21.4435 25.4136C20.8311 25.4136 20.2138 25.4379 19.604 25.3966C19.4255 25.3844 19.1454 25.2069 19.1156 25.0635C19.0487 24.7402 19.3239 24.677 19.6065 24.677C20.8336 24.6819 22.0607 24.6648 23.2879 24.694C23.4614 24.6989 23.7465 24.8836 23.7762 25.0246C23.8432 25.3455 23.568 25.416 23.2829 25.4136C22.6706 25.4087 22.0558 25.4136 21.4435 25.4136Z" fill="#0A71FE"/>
<path id="Vector_10" d="M20.4269 25.6057C20.1492 25.6057 19.8691 25.6008 19.589 25.5814C19.3659 25.5668 18.9841 25.3529 18.9295 25.1025C18.8874 24.8983 18.9519 24.767 19.0114 24.6941C19.1229 24.5628 19.3138 24.4972 19.5989 24.4972H19.6038C19.9782 24.4972 20.35 24.4972 20.7244 24.4972C21.5648 24.4972 22.4349 24.4947 23.2877 24.5142C23.5381 24.519 23.905 24.7524 23.9546 24.9907C23.9967 25.1949 23.9323 25.3286 23.8703 25.4015C23.7562 25.5376 23.553 25.5984 23.2803 25.5984C22.844 25.596 22.4076 25.596 21.9713 25.5984H21.4408C21.2722 25.5984 21.1037 25.5984 20.9351 25.6033C20.7665 25.6033 20.5979 25.6081 20.4269 25.6081V25.6057ZM19.5989 24.8618C19.3708 24.8618 19.3138 24.9104 19.3014 24.925C19.2816 24.9493 19.289 25.0004 19.2964 25.0295C19.3188 25.083 19.5022 25.2094 19.6162 25.2167C20.0501 25.2459 20.4988 25.241 20.9326 25.2362C21.1037 25.2362 21.2722 25.2313 21.4433 25.2313H21.9713C22.4101 25.2313 22.8464 25.2313 23.2852 25.2313C23.4637 25.2313 23.5604 25.1973 23.5852 25.1657C23.605 25.1414 23.6001 25.0952 23.5926 25.0587C23.5678 25.0004 23.377 24.8764 23.2827 24.874C22.4324 24.8545 21.5672 24.8545 20.7269 24.8569C20.3525 24.8569 19.9782 24.8569 19.6038 24.8569H19.5989V24.8618Z" fill="#0A71FE"/>
</g>
<g id="Group_6">
<path id="Vector_11" d="M24.6813 38.9006C24.6813 39.9654 24.6987 41.0301 24.6664 42.0925C24.6615 42.2845 24.4731 42.6103 24.3293 42.6321C23.9773 42.688 23.9178 42.3769 23.9178 42.0925C23.9178 39.9459 23.9079 37.7994 23.9351 35.6553C23.9351 35.4754 24.1781 35.3004 24.307 35.1229C24.4309 35.3004 24.659 35.4754 24.6664 35.6577C24.7012 36.7395 24.6838 37.8213 24.6838 38.9031L24.6813 38.9006Z" fill="#0A71FE"/>
<path id="Vector_12" d="M24.2496 42.8217C24.0984 42.8217 23.9992 42.7658 23.9372 42.7148C23.7513 42.5592 23.729 42.2845 23.729 42.0924V40.8113C23.729 39.1194 23.724 37.3715 23.7463 35.6504C23.7463 35.4584 23.8926 35.3028 24.0215 35.1667C24.0686 35.1156 24.1157 35.0646 24.1529 35.0159L24.3066 34.8044L24.4578 35.0184C24.4925 35.0694 24.5396 35.1205 24.5843 35.1691C24.7057 35.3052 24.8446 35.4608 24.8495 35.6504C24.8743 36.4624 24.8718 37.2889 24.8693 38.0887C24.8693 38.3609 24.8693 38.6308 24.8693 38.903C24.8693 39.1753 24.8693 39.4451 24.8693 39.7174C24.8718 40.4977 24.8768 41.3048 24.852 42.0997C24.8446 42.3525 24.619 42.7731 24.3562 42.8144C24.319 42.8193 24.2843 42.8242 24.2496 42.8242V42.8217ZM24.3016 35.4073C24.3016 35.4073 24.2992 35.4122 24.2967 35.4122C24.2248 35.4875 24.1207 35.6018 24.1182 35.6553C24.0984 37.374 24.0984 39.1218 24.1008 40.8113V42.0924C24.1008 42.338 24.1504 42.4133 24.1777 42.4376C24.2 42.4571 24.2397 42.4619 24.2967 42.4522C24.3438 42.4255 24.4752 42.2116 24.4777 42.0876C24.5024 41.2999 24.5 40.4953 24.495 39.7174C24.495 39.4451 24.495 39.1729 24.495 38.9006C24.495 38.6283 24.495 38.3561 24.495 38.0862C24.4975 37.2913 24.5024 36.4672 24.4752 35.6626C24.4752 35.6042 24.3735 35.4924 24.3016 35.4098V35.4073Z" fill="#0A71FE"/>
</g>
<g id="Group_7">
<path id="Vector_13" d="M20.407 38.8471C20.407 37.8018 20.407 36.7541 20.407 35.7087C20.407 35.4413 20.3822 35.1253 20.7789 35.1302C21.1557 35.135 21.1631 35.4316 21.1631 35.7087C21.1631 37.8383 21.1631 39.9653 21.1631 42.0949C21.1631 42.3866 21.1086 42.688 20.7566 42.6345C20.6153 42.6127 20.4268 42.2869 20.4219 42.0924C20.3897 41.0107 20.407 39.9289 20.407 38.8471Z" fill="#0A71FE"/>
<path id="Vector_14" d="M20.8337 42.8217C20.8015 42.8217 20.7668 42.8193 20.7296 42.8144C20.452 42.7731 20.2437 42.3258 20.2363 42.0997C20.2115 41.2902 20.2165 40.4661 20.2189 39.6712C20.2189 39.3965 20.2189 39.1218 20.2189 38.8495V37.9768C20.2189 37.2208 20.2189 36.4648 20.2189 35.7088V35.6626C20.2189 35.4754 20.2189 35.2396 20.3776 35.084C20.4743 34.9916 20.6156 34.9454 20.7792 34.9454C21.3469 34.9527 21.3469 35.4608 21.3469 35.7063C21.3469 37.8358 21.3469 39.9629 21.3469 42.0924C21.3469 42.3015 21.3246 42.564 21.1436 42.7148C21.0816 42.7658 20.9825 42.8217 20.8313 42.8217H20.8337ZM20.7718 35.3101C20.7321 35.3101 20.6701 35.3149 20.6429 35.3417C20.5933 35.3903 20.5933 35.5386 20.5958 35.6601V35.7063C20.5958 36.4623 20.5958 37.2184 20.5958 37.9744V38.8471C20.5958 39.1218 20.5958 39.3965 20.5958 39.6712C20.5933 40.4637 20.5883 41.2829 20.6131 42.0876C20.6156 42.2115 20.7445 42.4279 20.8065 42.4571C20.8461 42.4619 20.8858 42.4571 20.9081 42.4376C20.9354 42.4133 20.9825 42.338 20.9825 42.0924C20.98 39.9629 20.9825 37.8358 20.9825 35.7063C20.9825 35.3514 20.9428 35.3125 20.7817 35.3101H20.7767H20.7718Z" fill="#0A71FE"/>
</g>
<g id="Group_8">
<path id="Vector_15" d="M13.4579 17.6808C13.6538 17.9142 13.8744 18.0697 13.8521 18.1767C13.8174 18.3347 13.6116 18.4563 13.4778 18.5924C13.3489 18.4684 13.1381 18.3566 13.1183 18.218C13.101 18.0892 13.2869 17.9336 13.4555 17.6832L13.4579 17.6808Z" fill="#0A71FE"/>
<path id="Vector_16" d="M13.482 18.8525L13.3481 18.7212C13.3134 18.6872 13.2713 18.6556 13.2316 18.6216C13.1052 18.5219 12.9614 18.4077 12.9366 18.2399C12.9143 18.0795 13.0184 17.9458 13.1424 17.7926C13.192 17.7294 13.249 17.6589 13.3035 17.5787L13.4424 17.3721L13.6035 17.5617C13.6679 17.637 13.7349 17.7051 13.7944 17.7659C13.9506 17.9239 14.072 18.0479 14.0373 18.2107C14.0001 18.3809 13.8613 18.5 13.7374 18.607C13.6952 18.6435 13.6531 18.6775 13.6184 18.7164L13.487 18.8501L13.482 18.8525ZM13.4721 17.9701C13.4597 17.9871 13.4448 18.0041 13.4324 18.0187C13.3804 18.0843 13.3085 18.1719 13.3035 18.2035C13.3134 18.2205 13.4076 18.2934 13.4622 18.3372C13.4647 18.3396 13.4696 18.342 13.4721 18.3445C13.4771 18.3396 13.482 18.3372 13.487 18.3323C13.5489 18.2788 13.6258 18.2132 13.6555 18.1646C13.6283 18.1281 13.5688 18.0673 13.5217 18.0211C13.5043 18.0041 13.487 17.9871 13.4696 17.9701H13.4721Z" fill="#0A71FE"/>
</g>
<g id="Group_9">
<path id="Vector_17" d="M14.0358 19.876C13.778 20.034 13.6168 20.2091 13.4805 20.1921C13.3392 20.175 13.2227 19.9708 13.0938 19.8469C13.2351 19.7205 13.364 19.5163 13.5226 19.4895C13.6391 19.4701 13.7953 19.684 14.0358 19.8736V19.876Z" fill="#0A71FE"/>
<path id="Vector_18" d="M13.501 20.3743C13.4861 20.3743 13.4713 20.3743 13.4589 20.3719C13.2878 20.35 13.1713 20.2114 13.0672 20.0899C13.0325 20.051 13.0002 20.0097 12.9655 19.9781L12.8242 19.8444L12.968 19.7131C13.0052 19.6791 13.0424 19.6377 13.0796 19.5964C13.1911 19.4749 13.3151 19.3387 13.4911 19.3096C13.6621 19.2828 13.791 19.4068 13.9447 19.5478C14.0067 19.6037 14.0737 19.6693 14.153 19.7301L14.3563 19.8906L14.1332 20.0267C14.0513 20.0777 13.977 20.1288 13.9125 20.1774C13.7687 20.2819 13.6448 20.3719 13.4985 20.3719L13.501 20.3743ZM13.3473 19.8517C13.3473 19.8517 13.3498 19.8565 13.3523 19.8565C13.3969 19.91 13.4737 20 13.506 20.0097C13.5283 20.0048 13.6225 19.9343 13.6919 19.8857C13.7043 19.876 13.7192 19.8663 13.734 19.8565C13.7192 19.8419 13.7018 19.8274 13.6869 19.8128C13.6349 19.7642 13.5679 19.7034 13.5307 19.6766C13.4812 19.7009 13.4093 19.7787 13.3547 19.8395C13.3523 19.8444 13.3473 19.8468 13.3448 19.8517H13.3473Z" fill="#0A71FE"/>
</g>
<g id="Group_10">
<path id="Vector_19" d="M14.0377 21.4099C13.7874 21.5898 13.6237 21.7916 13.5072 21.7697C13.351 21.7381 13.2321 21.5315 13.0957 21.3978C13.2271 21.2811 13.3535 21.0793 13.4948 21.0696C13.6337 21.0599 13.7874 21.2422 14.0377 21.4099Z" fill="#0A71FE"/>
<path id="Vector_20" d="M13.5277 21.9544C13.5079 21.9544 13.4906 21.9544 13.4707 21.9496C13.2972 21.9155 13.1782 21.7745 13.0716 21.6481C13.0369 21.6068 13.0022 21.5655 12.965 21.529L12.8262 21.3929L12.9724 21.264C13.0071 21.2324 13.0418 21.1935 13.079 21.1547C13.1881 21.0355 13.3096 20.9018 13.4831 20.8897C13.6567 20.88 13.7806 20.9821 13.9318 21.1012C13.9938 21.1498 14.0632 21.2057 14.145 21.2592L14.3632 21.405L14.15 21.5582C14.0682 21.6165 13.9963 21.6773 13.9343 21.7308C13.7955 21.8499 13.6715 21.9544 13.5302 21.9544H13.5277ZM13.3492 21.405C13.3492 21.405 13.3567 21.4123 13.3592 21.4172C13.4087 21.4755 13.4782 21.5582 13.5253 21.5849C13.5649 21.5631 13.6343 21.5023 13.6889 21.4561C13.7038 21.4439 13.7186 21.4294 13.736 21.4172C13.7236 21.4075 13.7087 21.3977 13.6963 21.3856C13.6294 21.3321 13.5352 21.2592 13.503 21.2519C13.4782 21.2616 13.4013 21.3467 13.3542 21.3977C13.3542 21.3977 13.3517 21.4026 13.3492 21.4026V21.405Z" fill="#0A71FE"/>
</g>
</g>
<defs>
<clipPath id="clip0_454_517">
<rect width="42" height="47" fill="white" transform="translate(0 0.000488281)"/>
</clipPath>
</defs>
</svg>
