<svg width="50" height="51" viewBox="0 0 50 51" fill="none" xmlns="http://www.w3.org/2000/svg">
<g id="Group 226">
<path id="Vector" d="M49.3848 15.4001C49.3799 15.1452 49.2481 14.9045 49.0333 14.7535C43.5562 10.907 36.9564 7.54664 35.7945 0.693781C35.7262 0.292615 35.3698 0 34.95 0H14.4524C14.0326 0 13.6762 0.292615 13.6079 0.693781C12.4461 7.54664 5.81202 10.9306 0.369078 14.7535C0.154289 14.9045 0.0224872 15.1452 0.0176057 15.4001C-0.294814 27.0103 3.5665 37.9597 10.347 44.6852C14.511 48.8195 19.4755 51 24.7036 51C29.9318 51 34.8963 48.8148 39.0603 44.6852C45.8408 37.955 49.7021 27.0103 49.3897 15.4001H49.3848ZM15.1553 1.65658H34.2422C34.9696 4.89423 36.805 7.40977 39.0652 9.53359C38.4501 10.4445 37.8692 11.261 37.3957 11.917C37.0198 11.7754 36.6098 11.6952 36.1851 11.6952C34.3398 11.6952 32.8363 13.1488 32.8363 14.9328C32.8363 15.6644 33.0902 16.3345 33.51 16.8773C33.2122 17.2218 32.9291 17.5522 32.6508 17.8637C32.1822 17.623 31.655 17.4908 31.0887 17.4908C29.2435 17.4908 27.74 18.9445 27.74 20.7285C27.74 21.2618 27.8767 21.7621 28.111 22.2057C27.164 22.9325 26.2902 23.4659 25.4945 23.7915C24.938 23.6924 24.44 23.6924 23.8933 23.7915C23.1025 23.4659 22.2287 22.9325 21.2817 22.2057C21.5209 21.7621 21.6576 21.2571 21.6576 20.7238C21.6576 18.9398 20.154 17.4861 18.3088 17.4861C17.7474 17.4861 17.2153 17.623 16.7467 17.8637C16.4685 17.5522 16.1853 17.2265 15.8876 16.882C16.322 16.3298 16.5612 15.6549 16.5612 14.9375C16.5612 13.1535 15.0577 11.6999 13.2125 11.6999C12.7926 11.6999 12.3875 11.7848 12.0018 11.9264C11.5283 11.2751 10.9425 10.4539 10.3226 9.54303C12.5827 7.41921 14.4231 4.90367 15.1456 1.66602L15.1553 1.65658ZM29.922 21.8282C29.922 21.8282 29.922 21.8234 29.9172 21.8187C29.9172 21.8187 29.9171 21.8187 29.9123 21.814C29.6291 21.5308 29.4583 21.1438 29.4583 20.7238C29.4583 19.8506 30.1954 19.138 31.0985 19.138C32.0016 19.138 32.7387 19.8506 32.7387 20.7238C32.7387 21.5969 32.0016 22.3096 31.0985 22.3096C30.6396 22.3096 30.2247 22.1255 29.9269 21.8282H29.922ZM34.5449 14.9281C34.5449 14.055 35.282 13.3423 36.1851 13.3423C37.0882 13.3423 37.8253 14.055 37.8253 14.9281C37.8253 15.8012 37.0882 16.5139 36.1851 16.5139C35.282 16.5139 34.5449 15.8012 34.5449 14.9281ZM24.7036 32.183C25.2455 32.183 25.7581 32.0838 26.2365 31.9092C28.8481 34.9298 30.2198 38.3232 29.8342 40.8717C29.0287 46.2238 20.3737 46.2002 19.5682 40.8717C19.1826 38.3184 20.5543 34.925 23.166 31.9092C23.6443 32.0838 24.1618 32.183 24.6988 32.183H24.7036ZM24.7036 30.5311C23.2392 30.5311 22.0286 29.3748 22.0286 27.9448C22.0286 26.5147 23.2636 25.3584 24.7036 25.3584C26.1437 25.3584 27.3787 26.4958 27.3787 27.9448C27.3787 29.3937 26.1583 30.5311 24.7036 30.5311ZM13.2222 13.3423C14.1253 13.3423 14.8624 14.055 14.8624 14.9281C14.8624 15.8012 14.096 16.5139 13.2222 16.5139C12.3484 16.5139 11.582 15.8012 11.582 14.9281C11.582 14.055 12.3387 13.3423 13.2222 13.3423ZM18.3137 19.1333C19.2168 19.1333 19.9539 19.8459 19.9539 20.719C19.9539 21.1391 19.783 21.5167 19.5097 21.7998C19.5048 21.8046 19.495 21.8093 19.4901 21.8187C19.4853 21.8282 19.4804 21.8376 19.4706 21.8423C19.1728 22.1302 18.7628 22.3048 18.3137 22.3048C17.4106 22.3048 16.6735 21.5922 16.6735 20.719C16.6735 19.8459 17.4106 19.1333 18.3137 19.1333ZM37.8399 43.5336C34.003 47.3376 29.4632 49.3529 24.7036 49.3529C19.9441 49.3529 15.4043 47.3423 11.5674 43.5336C5.18229 37.1999 1.51136 26.8734 1.71639 15.8531C4.05465 14.2343 6.70534 12.6108 9.05825 10.6616C9.63916 11.5111 10.181 12.271 10.6301 12.8845C10.1517 13.4556 9.87347 14.1777 9.87347 14.9281C9.87347 16.7121 11.377 18.1657 13.2222 18.1657C13.6811 18.1657 14.1302 18.0619 14.5451 17.892C14.8722 18.279 15.1895 18.6377 15.4921 18.9822C15.1553 19.4872 14.9601 20.0819 14.9601 20.7238C14.9601 22.5078 16.4636 23.9614 18.3088 23.9614C18.9825 23.9614 19.6122 23.7679 20.1394 23.4328C20.7642 23.9142 21.3647 24.3248 21.9407 24.6599C20.9497 25.4386 20.3151 26.6233 20.3151 27.9495C20.3151 29.1624 20.8472 30.2574 21.6966 31.0314C18.8848 34.3634 17.4301 38.1674 17.8743 41.1172C18.3918 44.5436 21.5013 46.5494 24.6988 46.5494C27.8962 46.5494 31.0009 44.5625 31.5232 41.1172C31.9674 38.1674 30.5127 34.3634 27.7009 31.0314C28.5503 30.2574 29.0824 29.1624 29.0824 27.9495C29.0824 26.6233 28.4478 25.4386 27.4568 24.6599C28.0378 24.3201 28.6382 23.9142 29.263 23.4281C29.7902 23.7632 30.42 23.9567 31.0936 23.9567C32.9388 23.9567 34.4424 22.5031 34.4424 20.719C34.4424 20.0772 34.2471 19.4778 33.9103 18.9775C34.2129 18.6377 34.5253 18.279 34.8524 17.8967C35.2625 18.0714 35.7116 18.1657 36.1851 18.1657C38.0303 18.1657 39.5338 16.7121 39.5338 14.9281C39.5338 14.1541 39.2507 13.4414 38.7772 12.8845C39.2214 12.271 39.7633 11.5064 40.3442 10.6616C42.702 12.6155 45.3478 14.2343 47.686 15.8531C47.8862 26.8734 44.2201 37.1999 37.835 43.5336H37.8399Z" fill="#0A71FE"/>
<path id="Vector_2" d="M24.7024 42.9058C26.323 42.9058 27.6411 41.6315 27.6411 40.0646C27.6411 38.4977 26.323 37.2234 24.7024 37.2234C23.0817 37.2234 21.7637 38.4977 21.7637 40.0646C21.7637 41.6315 23.0817 42.9058 24.7024 42.9058ZM24.7024 38.8705C25.3809 38.8705 25.9325 39.4038 25.9325 40.0599C25.9325 40.7159 25.3809 41.2492 24.7024 41.2492C24.0238 41.2492 23.4722 40.7159 23.4722 40.0599C23.4722 39.4038 24.0238 38.8705 24.7024 38.8705Z" fill="#0A71FE"/>
</g>
</svg>
