<svg width="50" height="50" viewBox="0 0 50 50" fill="none" xmlns="http://www.w3.org/2000/svg">
<g id="Group 229">
<path id="Vector" d="M7 10C8.65 10 10 8.65 10 7C10 5.35 8.65 4 7 4C5.35 4 4 5.35 4 7C4 8.65 5.35 10 7 10ZM7 6C7.55 6 8 6.45 8 7C8 7.55 7.55 8 7 8C6.45 8 6 7.55 6 7C6 6.45 6.45 6 7 6Z" fill="#0A71FE"/>
<path id="Vector_2" d="M6.55 16.89C6.69 16.96 6.84 17 7 17C7.16 17 7.31 16.96 7.45 16.89C7.72 16.76 14 13.54 14 7C14 3.14 10.86 0 7 0C3.14 0 0 3.14 0 7C0 13.54 6.29 16.76 6.55 16.89ZM7 2C9.76 2 12 4.24 12 7C12 11.38 8.3 14.05 7 14.85C5.7 14.05 2 11.38 2 7C2 4.24 4.24 2 7 2Z" fill="#0A71FE"/>
<path id="Vector_3" d="M38 40H34C33.45 40 33 40.45 33 41C33 41.55 33.45 42 34 42H38C38.55 42 39 41.55 39 41C39 40.45 38.55 40 38 40Z" fill="#0A71FE"/>
<path id="Vector_4" d="M49 34H48V29C48 27.35 46.65 26 45 26H27C25.35 26 24 27.35 24 29V34H23C22.45 34 22 34.45 22 35C22 35.55 22.45 36 23 36H24V43C24 44.3 24.84 45.4 26 45.82V47.5C26 48.88 27.12 50 28.5 50H29.5C30.88 50 32 48.88 32 47.5V46H40V47.5C40 48.88 41.12 50 42.5 50H43.5C44.88 50 46 48.88 46 47.5V45.82C47.16 45.4 48 44.3 48 43V36H49C49.55 36 50 35.55 50 35C50 34.45 49.55 34 49 34ZM30 47.5C30 47.78 29.78 48 29.5 48H28.5C28.22 48 28 47.78 28 47.5V46H30V47.5ZM44 47.5C44 47.78 43.78 48 43.5 48H42.5C42.22 48 42 47.78 42 47.5V46H44V47.5ZM46 40H45C44.45 40 44 40.45 44 41C44 41.55 44.45 42 45 42H46V43C46 43.55 45.55 44 45 44H27C26.45 44 26 43.55 26 43V42H27C27.55 42 28 41.55 28 41C28 40.45 27.55 40 27 40H26V38H46V40ZM46 36H26V29C26 28.45 26.45 28 27 28H45C45.55 28 46 28.45 46 29V36Z" fill="#0A71FE"/>
<path id="Vector_5" d="M31.0498 33.8901C31.5098 34.1201 32.1398 33.9401 32.3898 33.4401L33.3898 31.4401C33.6398 30.9501 33.4398 30.3501 32.9398 30.1001C32.4398 29.8501 31.8498 30.0501 31.5998 30.5501L30.5998 32.5501C30.3498 33.0401 30.5498 33.6401 31.0498 33.8901Z" fill="#0A71FE"/>
<path id="Vector_6" d="M35.0498 33.8901C35.5398 34.1301 36.1498 33.9301 36.3898 33.4401L37.3898 31.4401C37.6398 30.9501 37.4398 30.3501 36.9398 30.1001C36.4498 29.8501 35.8498 30.0501 35.5998 30.5501L34.5998 32.5501C34.3498 33.0401 34.5498 33.6401 35.0498 33.8901Z" fill="#0A71FE"/>
<path id="Vector_7" d="M39.0498 33.8901C39.5398 34.1301 40.1498 33.9301 40.3898 33.4401L41.3898 31.4401C41.6398 30.9501 41.4398 30.3501 40.9398 30.1001C40.4398 29.8501 39.8398 30.0501 39.5998 30.5501L38.5998 32.5501C38.3498 33.0401 38.5498 33.6401 39.0498 33.8901Z" fill="#0A71FE"/>
<path id="Vector_8" d="M21 40H4C2.9 40 2 39.1 2 38C2 36.9 2.9 36 4 36H16C18.76 36 21 33.76 21 31C21 28.24 18.76 26 16 26H7.5C6.67 26 6 25.33 6 24.5C6 23.67 6.67 23 7.5 23H46C48.21 23 50 21.21 50 19C50 16.79 48.21 15 46 15H13C12.45 15 12 15.45 12 16C12 16.55 12.45 17 13 17H46C47.1 17 48 17.9 48 19C48 20.1 47.1 21 46 21H7.5C5.57 21 4 22.57 4 24.5C4 26.43 5.57 28 7.5 28H16C17.65 28 19 29.35 19 31C19 32.65 17.65 34 16 34H4C1.79 34 0 35.79 0 38C0 40.21 1.79 42 4 42H21C21.55 42 22 41.55 22 41C22 40.45 21.55 40 21 40Z" fill="#0A71FE"/>
</g>
</svg>
