<svg width="50" height="43" viewBox="0 0 50 43" fill="none" xmlns="http://www.w3.org/2000/svg">
<g id="O" clip-path="url(#clip0_454_589)">
<g id="Vector">
<mask id="path-1-inside-1_454_589" fill="white">
<path d="M30.5989 34.668C29.275 34.668 28.1981 35.7449 28.1981 37.0688C28.1981 38.3927 29.275 39.4696 30.5989 39.4696C31.9228 39.4696 32.9997 38.3927 32.9997 37.0688C32.9997 35.7449 31.9228 34.668 30.5989 34.668ZM30.5989 38.0526C30.0564 38.0526 29.6151 37.6113 29.6151 37.0688C29.6151 36.5263 30.0564 36.085 30.5989 36.085C31.1414 36.085 31.5827 36.5263 31.5827 37.0688C31.5827 37.6113 31.1414 38.0526 30.5989 38.0526Z"/>
<path d="M25.6839 20.498H18.854C18.4613 20.498 18.1455 20.8138 18.1455 21.2065C18.1455 21.5992 18.4613 21.915 18.854 21.915H25.6839C26.0766 21.915 26.3924 21.5992 26.3924 21.2065C26.3924 20.8138 26.0766 20.498 25.6839 20.498Z"/>
<path d="M25.6839 23.3239H18.854C18.4613 23.3239 18.1455 23.6397 18.1455 24.0324C18.1455 24.4251 18.4613 24.7409 18.854 24.7409H25.6839C26.0766 24.7409 26.3924 24.4251 26.3924 24.0324C26.3924 23.6397 26.0766 23.3239 25.6839 23.3239Z"/>
<path d="M22.0645 26.1458H18.858C18.4653 26.1458 18.1495 26.4615 18.1495 26.8543C18.1495 27.247 18.4653 27.5628 18.858 27.5628H22.0645C22.4572 27.5628 22.773 27.247 22.773 26.8543C22.773 26.4615 22.4572 26.1458 22.0645 26.1458Z"/>
<path d="M17.4289 7.94737H20.5098C20.9025 7.94737 21.2183 7.63158 21.2183 7.23887C21.2183 6.84615 20.9025 6.53036 20.5098 6.53036H17.4289C17.0362 6.53036 16.7204 6.84615 16.7204 7.23887C16.7204 7.63158 17.0362 7.94737 17.4289 7.94737Z"/>
<path d="M5.11308 42.2267C6.35599 42.2267 7.54223 41.7692 8.46935 40.9636C9.4734 41.753 10.7325 42.2267 12.105 42.2267C13.4774 42.2267 14.7366 41.753 15.7406 40.9636C16.6677 41.7692 17.854 42.2267 19.0969 42.2267C20.4451 42.2267 21.6677 41.7004 22.5827 40.8421C23.0523 41.664 23.9349 42.2227 24.9471 42.2227H43.105C47.6192 42.2227 49.9997 38.4777 49.9997 34.6478C49.9997 31.5911 49.9997 28.4089 49.9997 24.2146C49.9997 21.9919 49.1293 19.6721 47.2993 17.9595C45.1819 15.9798 42.4694 15.2591 39.858 15.7206C39.6111 15.7652 39.356 15.8381 39.105 15.9271V12.1093C39.105 12.0445 39.0928 11.9474 39.0604 11.8623C38.3803 10.0162 36.3317 4.48178 36.3317 4.48178V2.39676C36.3317 1.07287 35.2548 0 33.9349 0H14.6718C13.3479 0 12.275 1.07692 12.275 2.39676V4.48178L9.54627 11.8623C9.52198 11.9271 9.50174 12.0162 9.50174 12.1093V29.0121C8.82967 29.5749 8.23453 30.3239 7.74465 31.1619C6.93089 30.3401 6.0321 29.9069 5.10903 29.9069C2.1981 29.9069 0.0078125 34.2794 0.0078125 37.1134C0.0078125 39.9474 2.30336 42.2267 5.12117 42.2267H5.11308ZM19.0928 40.8097C18.2264 40.8097 17.4005 40.502 16.7447 39.9595C17.5301 38.9555 18.0038 37.6964 18.0038 36.3279C18.0038 35.2672 17.6839 33.8826 17.1171 32.5466C17.5665 31.9919 18.271 31.3239 19.0807 31.3239C20.3722 31.3239 21.607 32.9676 22.275 34.7045C22.275 34.7126 22.2791 34.7206 22.2831 34.7247C22.5989 35.5547 22.7892 36.4089 22.7892 37.1093C22.7892 39.1498 21.1293 40.8057 19.0928 40.8057V40.8097ZM10.9106 12.8178H15.0402V16.7126H10.9106V12.8178ZM35.1252 5.31984L37.3762 11.4008H16.2426L13.9916 5.31984H35.1252ZM34.4936 22.0162C34.4936 23.2429 33.4977 24.2389 32.271 24.2389C31.9592 24.2389 31.6596 24.17 31.3843 24.0486L34.3519 21.2348C34.4451 21.4818 34.4936 21.749 34.4936 22.0162ZM34.9228 18.7409C34.9228 18.7409 23.2467 29.8057 22.4491 30.5668C22.3358 30.6761 22.2264 30.8543 22.2264 31.081V31.7206C21.7689 31.1458 21.2426 30.668 20.6718 30.3441C20.9511 30.251 21.1536 29.9879 21.1536 29.6761C21.1536 29.2834 20.8378 28.9676 20.4451 28.9676H18.858C18.4653 28.9676 18.1495 29.2834 18.1495 29.6761C18.1495 29.8057 18.186 29.9231 18.2467 30.0283C17.6232 30.2065 17.02 30.587 16.4613 31.1579V18.1336H35.607C35.2831 18.4089 35.0402 18.6316 34.9268 18.7409H34.9228ZM42.5868 40.8057C42.7892 39.7854 43.692 39.0162 44.769 39.0162C45.4208 39.0162 46.024 39.2996 46.441 39.7773C45.7082 40.3968 44.1779 40.8057 43.105 40.8057H42.5868ZM48.5827 34.6478C48.5827 36.1053 48.1495 37.498 47.3519 38.6802C46.6799 38 45.7568 37.5992 44.769 37.5992C42.9107 37.5992 41.3722 39 41.1576 40.8057H24.9511C24.2345 40.8057 23.6475 40.2227 23.6475 39.502V39.4413C24.0078 38.7409 24.2143 37.9514 24.2143 37.1093C24.2143 36.2672 24.0119 35.251 23.6475 34.2713V31.7854H44.6273V35.7206C44.6273 36.1134 44.943 36.4292 45.3358 36.4292C45.7285 36.4292 46.0443 36.1134 46.0443 35.7206V31.4615C47.0888 30.7895 47.9471 29.9231 48.5908 28.9352C48.5908 30.8381 48.5908 32.7409 48.5908 34.6397L48.5827 34.6478ZM37.19 30.3765C37.5544 29.6437 38.3115 29.1498 39.1779 29.1498C40.0443 29.1498 40.8013 29.6437 41.1657 30.3765H37.19ZM48.5098 23.2146C48.2831 23.2915 48.0483 23.332 47.8094 23.332C46.5827 23.332 45.5868 22.336 45.5868 21.1093C45.5868 20.3441 45.9714 19.6559 46.5949 19.251C46.9835 19.6599 47.3317 20.1134 47.6192 20.6154C48.0969 21.4413 48.3884 22.3198 48.5098 23.2105V23.2146ZM45.4855 18.3077C44.6637 18.9838 44.1698 20 44.1698 21.1093C44.1698 23.1174 45.8054 24.749 47.8094 24.749C48.0645 24.749 48.3196 24.7126 48.5706 24.6599C48.4289 26.9352 47.2143 29.1053 45.1374 30.3765H42.6839C42.2507 28.83 40.8418 27.7328 39.1819 27.7328C37.522 27.7328 36.1171 28.834 35.6799 30.3765H24.7163L30.3034 25.081C30.8864 25.4575 31.5665 25.6599 32.275 25.6599C34.2831 25.6599 35.9147 24.0283 35.9147 22.0202C35.9147 21.3846 35.7447 20.7611 35.4329 20.2146L35.8985 19.7733C36.7447 18.9717 37.7528 18.1943 38.8094 17.6154C40.858 16.4939 43.5827 16.9879 45.4855 18.3077ZM37.5301 16.7206H16.4613V12.8259H37.688V16.6275C37.6353 16.6599 37.5827 16.6883 37.5301 16.7206ZM33.9268 1.417C34.4694 1.417 34.9066 1.8583 34.9066 2.39676V3.90283H13.6799V2.39676C13.6799 1.85425 14.1212 1.417 14.6596 1.417H33.9268ZM12.9754 6.65587L14.7325 11.4049H11.2224L12.9795 6.65587H12.9754ZM10.9106 18.1336H15.0402V29.3522C14.19 28.5101 13.19 27.9636 12.0888 27.9636C11.6839 27.9636 11.2912 28.0405 10.9106 28.1741V18.1336ZM12.0888 29.3806C14.4086 29.3806 16.5868 33.7166 16.5868 36.3279C16.5868 38.8016 14.5746 40.8097 12.105 40.8097C9.63534 40.8097 7.6232 38.7976 7.6232 36.3279C7.6232 33.7166 9.78919 29.3806 12.0928 29.3806H12.0888ZM5.10093 31.3239C5.8985 31.3239 6.60295 31.9757 7.05235 32.5223C6.50984 33.8138 6.20214 35.1781 6.20214 36.3239C6.20214 37.6964 6.67583 38.9555 7.46125 39.9555C6.80538 40.498 5.97542 40.8057 5.11308 40.8057C3.07259 40.8057 1.41672 39.1458 1.41672 37.1093C1.41672 34.9312 3.20214 31.3198 5.10093 31.3198V31.3239Z"/>
<path d="M12.105 39.9798C12.4977 39.9798 12.8135 39.664 12.8135 39.2713C12.8135 38.8785 12.4977 38.5628 12.105 38.5628C10.8499 38.5628 9.87016 37.5789 9.87016 36.3279C9.87016 35.9352 9.55437 35.6194 9.16166 35.6194C8.76895 35.6194 8.45316 35.9352 8.45316 36.3279C8.45316 38.3765 10.0564 39.9798 12.105 39.9798Z"/>
</mask>
<path d="M30.5989 34.668C29.275 34.668 28.1981 35.7449 28.1981 37.0688C28.1981 38.3927 29.275 39.4696 30.5989 39.4696C31.9228 39.4696 32.9997 38.3927 32.9997 37.0688C32.9997 35.7449 31.9228 34.668 30.5989 34.668ZM30.5989 38.0526C30.0564 38.0526 29.6151 37.6113 29.6151 37.0688C29.6151 36.5263 30.0564 36.085 30.5989 36.085C31.1414 36.085 31.5827 36.5263 31.5827 37.0688C31.5827 37.6113 31.1414 38.0526 30.5989 38.0526Z" fill="#0A71FE"/>
<path d="M25.6839 20.498H18.854C18.4613 20.498 18.1455 20.8138 18.1455 21.2065C18.1455 21.5992 18.4613 21.915 18.854 21.915H25.6839C26.0766 21.915 26.3924 21.5992 26.3924 21.2065C26.3924 20.8138 26.0766 20.498 25.6839 20.498Z" fill="#0A71FE"/>
<path d="M25.6839 23.3239H18.854C18.4613 23.3239 18.1455 23.6397 18.1455 24.0324C18.1455 24.4251 18.4613 24.7409 18.854 24.7409H25.6839C26.0766 24.7409 26.3924 24.4251 26.3924 24.0324C26.3924 23.6397 26.0766 23.3239 25.6839 23.3239Z" fill="#0A71FE"/>
<path d="M22.0645 26.1458H18.858C18.4653 26.1458 18.1495 26.4615 18.1495 26.8543C18.1495 27.247 18.4653 27.5628 18.858 27.5628H22.0645C22.4572 27.5628 22.773 27.247 22.773 26.8543C22.773 26.4615 22.4572 26.1458 22.0645 26.1458Z" fill="#0A71FE"/>
<path d="M17.4289 7.94737H20.5098C20.9025 7.94737 21.2183 7.63158 21.2183 7.23887C21.2183 6.84615 20.9025 6.53036 20.5098 6.53036H17.4289C17.0362 6.53036 16.7204 6.84615 16.7204 7.23887C16.7204 7.63158 17.0362 7.94737 17.4289 7.94737Z" fill="#0A71FE"/>
<path d="M5.11308 42.2267C6.35599 42.2267 7.54223 41.7692 8.46935 40.9636C9.4734 41.753 10.7325 42.2267 12.105 42.2267C13.4774 42.2267 14.7366 41.753 15.7406 40.9636C16.6677 41.7692 17.854 42.2267 19.0969 42.2267C20.4451 42.2267 21.6677 41.7004 22.5827 40.8421C23.0523 41.664 23.9349 42.2227 24.9471 42.2227H43.105C47.6192 42.2227 49.9997 38.4777 49.9997 34.6478C49.9997 31.5911 49.9997 28.4089 49.9997 24.2146C49.9997 21.9919 49.1293 19.6721 47.2993 17.9595C45.1819 15.9798 42.4694 15.2591 39.858 15.7206C39.6111 15.7652 39.356 15.8381 39.105 15.9271V12.1093C39.105 12.0445 39.0928 11.9474 39.0604 11.8623C38.3803 10.0162 36.3317 4.48178 36.3317 4.48178V2.39676C36.3317 1.07287 35.2548 0 33.9349 0H14.6718C13.3479 0 12.275 1.07692 12.275 2.39676V4.48178L9.54627 11.8623C9.52198 11.9271 9.50174 12.0162 9.50174 12.1093V29.0121C8.82967 29.5749 8.23453 30.3239 7.74465 31.1619C6.93089 30.3401 6.0321 29.9069 5.10903 29.9069C2.1981 29.9069 0.0078125 34.2794 0.0078125 37.1134C0.0078125 39.9474 2.30336 42.2267 5.12117 42.2267H5.11308ZM19.0928 40.8097C18.2264 40.8097 17.4005 40.502 16.7447 39.9595C17.5301 38.9555 18.0038 37.6964 18.0038 36.3279C18.0038 35.2672 17.6839 33.8826 17.1171 32.5466C17.5665 31.9919 18.271 31.3239 19.0807 31.3239C20.3722 31.3239 21.607 32.9676 22.275 34.7045C22.275 34.7126 22.2791 34.7206 22.2831 34.7247C22.5989 35.5547 22.7892 36.4089 22.7892 37.1093C22.7892 39.1498 21.1293 40.8057 19.0928 40.8057V40.8097ZM10.9106 12.8178H15.0402V16.7126H10.9106V12.8178ZM35.1252 5.31984L37.3762 11.4008H16.2426L13.9916 5.31984H35.1252ZM34.4936 22.0162C34.4936 23.2429 33.4977 24.2389 32.271 24.2389C31.9592 24.2389 31.6596 24.17 31.3843 24.0486L34.3519 21.2348C34.4451 21.4818 34.4936 21.749 34.4936 22.0162ZM34.9228 18.7409C34.9228 18.7409 23.2467 29.8057 22.4491 30.5668C22.3358 30.6761 22.2264 30.8543 22.2264 31.081V31.7206C21.7689 31.1458 21.2426 30.668 20.6718 30.3441C20.9511 30.251 21.1536 29.9879 21.1536 29.6761C21.1536 29.2834 20.8378 28.9676 20.4451 28.9676H18.858C18.4653 28.9676 18.1495 29.2834 18.1495 29.6761C18.1495 29.8057 18.186 29.9231 18.2467 30.0283C17.6232 30.2065 17.02 30.587 16.4613 31.1579V18.1336H35.607C35.2831 18.4089 35.0402 18.6316 34.9268 18.7409H34.9228ZM42.5868 40.8057C42.7892 39.7854 43.692 39.0162 44.769 39.0162C45.4208 39.0162 46.024 39.2996 46.441 39.7773C45.7082 40.3968 44.1779 40.8057 43.105 40.8057H42.5868ZM48.5827 34.6478C48.5827 36.1053 48.1495 37.498 47.3519 38.6802C46.6799 38 45.7568 37.5992 44.769 37.5992C42.9107 37.5992 41.3722 39 41.1576 40.8057H24.9511C24.2345 40.8057 23.6475 40.2227 23.6475 39.502V39.4413C24.0078 38.7409 24.2143 37.9514 24.2143 37.1093C24.2143 36.2672 24.0119 35.251 23.6475 34.2713V31.7854H44.6273V35.7206C44.6273 36.1134 44.943 36.4292 45.3358 36.4292C45.7285 36.4292 46.0443 36.1134 46.0443 35.7206V31.4615C47.0888 30.7895 47.9471 29.9231 48.5908 28.9352C48.5908 30.8381 48.5908 32.7409 48.5908 34.6397L48.5827 34.6478ZM37.19 30.3765C37.5544 29.6437 38.3115 29.1498 39.1779 29.1498C40.0443 29.1498 40.8013 29.6437 41.1657 30.3765H37.19ZM48.5098 23.2146C48.2831 23.2915 48.0483 23.332 47.8094 23.332C46.5827 23.332 45.5868 22.336 45.5868 21.1093C45.5868 20.3441 45.9714 19.6559 46.5949 19.251C46.9835 19.6599 47.3317 20.1134 47.6192 20.6154C48.0969 21.4413 48.3884 22.3198 48.5098 23.2105V23.2146ZM45.4855 18.3077C44.6637 18.9838 44.1698 20 44.1698 21.1093C44.1698 23.1174 45.8054 24.749 47.8094 24.749C48.0645 24.749 48.3196 24.7126 48.5706 24.6599C48.4289 26.9352 47.2143 29.1053 45.1374 30.3765H42.6839C42.2507 28.83 40.8418 27.7328 39.1819 27.7328C37.522 27.7328 36.1171 28.834 35.6799 30.3765H24.7163L30.3034 25.081C30.8864 25.4575 31.5665 25.6599 32.275 25.6599C34.2831 25.6599 35.9147 24.0283 35.9147 22.0202C35.9147 21.3846 35.7447 20.7611 35.4329 20.2146L35.8985 19.7733C36.7447 18.9717 37.7528 18.1943 38.8094 17.6154C40.858 16.4939 43.5827 16.9879 45.4855 18.3077ZM37.5301 16.7206H16.4613V12.8259H37.688V16.6275C37.6353 16.6599 37.5827 16.6883 37.5301 16.7206ZM33.9268 1.417C34.4694 1.417 34.9066 1.8583 34.9066 2.39676V3.90283H13.6799V2.39676C13.6799 1.85425 14.1212 1.417 14.6596 1.417H33.9268ZM12.9754 6.65587L14.7325 11.4049H11.2224L12.9795 6.65587H12.9754ZM10.9106 18.1336H15.0402V29.3522C14.19 28.5101 13.19 27.9636 12.0888 27.9636C11.6839 27.9636 11.2912 28.0405 10.9106 28.1741V18.1336ZM12.0888 29.3806C14.4086 29.3806 16.5868 33.7166 16.5868 36.3279C16.5868 38.8016 14.5746 40.8097 12.105 40.8097C9.63534 40.8097 7.6232 38.7976 7.6232 36.3279C7.6232 33.7166 9.78919 29.3806 12.0928 29.3806H12.0888ZM5.10093 31.3239C5.8985 31.3239 6.60295 31.9757 7.05235 32.5223C6.50984 33.8138 6.20214 35.1781 6.20214 36.3239C6.20214 37.6964 6.67583 38.9555 7.46125 39.9555C6.80538 40.498 5.97542 40.8057 5.11308 40.8057C3.07259 40.8057 1.41672 39.1458 1.41672 37.1093C1.41672 34.9312 3.20214 31.3198 5.10093 31.3198V31.3239Z" fill="#0A71FE"/>
<path d="M12.105 39.9798C12.4977 39.9798 12.8135 39.664 12.8135 39.2713C12.8135 38.8785 12.4977 38.5628 12.105 38.5628C10.8499 38.5628 9.87016 37.5789 9.87016 36.3279C9.87016 35.9352 9.55437 35.6194 9.16166 35.6194C8.76895 35.6194 8.45316 35.9352 8.45316 36.3279C8.45316 38.3765 10.0564 39.9798 12.105 39.9798Z" fill="#0A71FE"/>
<path d="M30.5989 34.668C29.275 34.668 28.1981 35.7449 28.1981 37.0688C28.1981 38.3927 29.275 39.4696 30.5989 39.4696C31.9228 39.4696 32.9997 38.3927 32.9997 37.0688C32.9997 35.7449 31.9228 34.668 30.5989 34.668ZM30.5989 38.0526C30.0564 38.0526 29.6151 37.6113 29.6151 37.0688C29.6151 36.5263 30.0564 36.085 30.5989 36.085C31.1414 36.085 31.5827 36.5263 31.5827 37.0688C31.5827 37.6113 31.1414 38.0526 30.5989 38.0526Z" stroke="#0A71FE" stroke-width="18" mask="url(#path-1-inside-1_454_589)"/>
<path d="M25.6839 20.498H18.854C18.4613 20.498 18.1455 20.8138 18.1455 21.2065C18.1455 21.5992 18.4613 21.915 18.854 21.915H25.6839C26.0766 21.915 26.3924 21.5992 26.3924 21.2065C26.3924 20.8138 26.0766 20.498 25.6839 20.498Z" stroke="#0A71FE" stroke-width="18" mask="url(#path-1-inside-1_454_589)"/>
<path d="M25.6839 23.3239H18.854C18.4613 23.3239 18.1455 23.6397 18.1455 24.0324C18.1455 24.4251 18.4613 24.7409 18.854 24.7409H25.6839C26.0766 24.7409 26.3924 24.4251 26.3924 24.0324C26.3924 23.6397 26.0766 23.3239 25.6839 23.3239Z" stroke="#0A71FE" stroke-width="18" mask="url(#path-1-inside-1_454_589)"/>
<path d="M22.0645 26.1458H18.858C18.4653 26.1458 18.1495 26.4615 18.1495 26.8543C18.1495 27.247 18.4653 27.5628 18.858 27.5628H22.0645C22.4572 27.5628 22.773 27.247 22.773 26.8543C22.773 26.4615 22.4572 26.1458 22.0645 26.1458Z" stroke="#0A71FE" stroke-width="18" mask="url(#path-1-inside-1_454_589)"/>
<path d="M17.4289 7.94737H20.5098C20.9025 7.94737 21.2183 7.63158 21.2183 7.23887C21.2183 6.84615 20.9025 6.53036 20.5098 6.53036H17.4289C17.0362 6.53036 16.7204 6.84615 16.7204 7.23887C16.7204 7.63158 17.0362 7.94737 17.4289 7.94737Z" stroke="#0A71FE" stroke-width="18" mask="url(#path-1-inside-1_454_589)"/>
<path d="M5.11308 42.2267C6.35599 42.2267 7.54223 41.7692 8.46935 40.9636C9.4734 41.753 10.7325 42.2267 12.105 42.2267C13.4774 42.2267 14.7366 41.753 15.7406 40.9636C16.6677 41.7692 17.854 42.2267 19.0969 42.2267C20.4451 42.2267 21.6677 41.7004 22.5827 40.8421C23.0523 41.664 23.9349 42.2227 24.9471 42.2227H43.105C47.6192 42.2227 49.9997 38.4777 49.9997 34.6478C49.9997 31.5911 49.9997 28.4089 49.9997 24.2146C49.9997 21.9919 49.1293 19.6721 47.2993 17.9595C45.1819 15.9798 42.4694 15.2591 39.858 15.7206C39.6111 15.7652 39.356 15.8381 39.105 15.9271V12.1093C39.105 12.0445 39.0928 11.9474 39.0604 11.8623C38.3803 10.0162 36.3317 4.48178 36.3317 4.48178V2.39676C36.3317 1.07287 35.2548 0 33.9349 0H14.6718C13.3479 0 12.275 1.07692 12.275 2.39676V4.48178L9.54627 11.8623C9.52198 11.9271 9.50174 12.0162 9.50174 12.1093V29.0121C8.82967 29.5749 8.23453 30.3239 7.74465 31.1619C6.93089 30.3401 6.0321 29.9069 5.10903 29.9069C2.1981 29.9069 0.0078125 34.2794 0.0078125 37.1134C0.0078125 39.9474 2.30336 42.2267 5.12117 42.2267H5.11308ZM19.0928 40.8097C18.2264 40.8097 17.4005 40.502 16.7447 39.9595C17.5301 38.9555 18.0038 37.6964 18.0038 36.3279C18.0038 35.2672 17.6839 33.8826 17.1171 32.5466C17.5665 31.9919 18.271 31.3239 19.0807 31.3239C20.3722 31.3239 21.607 32.9676 22.275 34.7045C22.275 34.7126 22.2791 34.7206 22.2831 34.7247C22.5989 35.5547 22.7892 36.4089 22.7892 37.1093C22.7892 39.1498 21.1293 40.8057 19.0928 40.8057V40.8097ZM10.9106 12.8178H15.0402V16.7126H10.9106V12.8178ZM35.1252 5.31984L37.3762 11.4008H16.2426L13.9916 5.31984H35.1252ZM34.4936 22.0162C34.4936 23.2429 33.4977 24.2389 32.271 24.2389C31.9592 24.2389 31.6596 24.17 31.3843 24.0486L34.3519 21.2348C34.4451 21.4818 34.4936 21.749 34.4936 22.0162ZM34.9228 18.7409C34.9228 18.7409 23.2467 29.8057 22.4491 30.5668C22.3358 30.6761 22.2264 30.8543 22.2264 31.081V31.7206C21.7689 31.1458 21.2426 30.668 20.6718 30.3441C20.9511 30.251 21.1536 29.9879 21.1536 29.6761C21.1536 29.2834 20.8378 28.9676 20.4451 28.9676H18.858C18.4653 28.9676 18.1495 29.2834 18.1495 29.6761C18.1495 29.8057 18.186 29.9231 18.2467 30.0283C17.6232 30.2065 17.02 30.587 16.4613 31.1579V18.1336H35.607C35.2831 18.4089 35.0402 18.6316 34.9268 18.7409H34.9228ZM42.5868 40.8057C42.7892 39.7854 43.692 39.0162 44.769 39.0162C45.4208 39.0162 46.024 39.2996 46.441 39.7773C45.7082 40.3968 44.1779 40.8057 43.105 40.8057H42.5868ZM48.5827 34.6478C48.5827 36.1053 48.1495 37.498 47.3519 38.6802C46.6799 38 45.7568 37.5992 44.769 37.5992C42.9107 37.5992 41.3722 39 41.1576 40.8057H24.9511C24.2345 40.8057 23.6475 40.2227 23.6475 39.502V39.4413C24.0078 38.7409 24.2143 37.9514 24.2143 37.1093C24.2143 36.2672 24.0119 35.251 23.6475 34.2713V31.7854H44.6273V35.7206C44.6273 36.1134 44.943 36.4292 45.3358 36.4292C45.7285 36.4292 46.0443 36.1134 46.0443 35.7206V31.4615C47.0888 30.7895 47.9471 29.9231 48.5908 28.9352C48.5908 30.8381 48.5908 32.7409 48.5908 34.6397L48.5827 34.6478ZM37.19 30.3765C37.5544 29.6437 38.3115 29.1498 39.1779 29.1498C40.0443 29.1498 40.8013 29.6437 41.1657 30.3765H37.19ZM48.5098 23.2146C48.2831 23.2915 48.0483 23.332 47.8094 23.332C46.5827 23.332 45.5868 22.336 45.5868 21.1093C45.5868 20.3441 45.9714 19.6559 46.5949 19.251C46.9835 19.6599 47.3317 20.1134 47.6192 20.6154C48.0969 21.4413 48.3884 22.3198 48.5098 23.2105V23.2146ZM45.4855 18.3077C44.6637 18.9838 44.1698 20 44.1698 21.1093C44.1698 23.1174 45.8054 24.749 47.8094 24.749C48.0645 24.749 48.3196 24.7126 48.5706 24.6599C48.4289 26.9352 47.2143 29.1053 45.1374 30.3765H42.6839C42.2507 28.83 40.8418 27.7328 39.1819 27.7328C37.522 27.7328 36.1171 28.834 35.6799 30.3765H24.7163L30.3034 25.081C30.8864 25.4575 31.5665 25.6599 32.275 25.6599C34.2831 25.6599 35.9147 24.0283 35.9147 22.0202C35.9147 21.3846 35.7447 20.7611 35.4329 20.2146L35.8985 19.7733C36.7447 18.9717 37.7528 18.1943 38.8094 17.6154C40.858 16.4939 43.5827 16.9879 45.4855 18.3077ZM37.5301 16.7206H16.4613V12.8259H37.688V16.6275C37.6353 16.6599 37.5827 16.6883 37.5301 16.7206ZM33.9268 1.417C34.4694 1.417 34.9066 1.8583 34.9066 2.39676V3.90283H13.6799V2.39676C13.6799 1.85425 14.1212 1.417 14.6596 1.417H33.9268ZM12.9754 6.65587L14.7325 11.4049H11.2224L12.9795 6.65587H12.9754ZM10.9106 18.1336H15.0402V29.3522C14.19 28.5101 13.19 27.9636 12.0888 27.9636C11.6839 27.9636 11.2912 28.0405 10.9106 28.1741V18.1336ZM12.0888 29.3806C14.4086 29.3806 16.5868 33.7166 16.5868 36.3279C16.5868 38.8016 14.5746 40.8097 12.105 40.8097C9.63534 40.8097 7.6232 38.7976 7.6232 36.3279C7.6232 33.7166 9.78919 29.3806 12.0928 29.3806H12.0888ZM5.10093 31.3239C5.8985 31.3239 6.60295 31.9757 7.05235 32.5223C6.50984 33.8138 6.20214 35.1781 6.20214 36.3239C6.20214 37.6964 6.67583 38.9555 7.46125 39.9555C6.80538 40.498 5.97542 40.8057 5.11308 40.8057C3.07259 40.8057 1.41672 39.1458 1.41672 37.1093C1.41672 34.9312 3.20214 31.3198 5.10093 31.3198V31.3239Z" stroke="#0A71FE" stroke-width="18" mask="url(#path-1-inside-1_454_589)"/>
<path d="M12.105 39.9798C12.4977 39.9798 12.8135 39.664 12.8135 39.2713C12.8135 38.8785 12.4977 38.5628 12.105 38.5628C10.8499 38.5628 9.87016 37.5789 9.87016 36.3279C9.87016 35.9352 9.55437 35.6194 9.16166 35.6194C8.76895 35.6194 8.45316 35.9352 8.45316 36.3279C8.45316 38.3765 10.0564 39.9798 12.105 39.9798Z" stroke="#0A71FE" stroke-width="18" mask="url(#path-1-inside-1_454_589)"/>
</g>
</g>
<defs>
<clipPath id="clip0_454_589">
<rect width="50" height="42.2267" fill="white"/>
</clipPath>
</defs>
</svg>
