<svg width="47" height="50" viewBox="0 0 47 50" fill="none" xmlns="http://www.w3.org/2000/svg">
<g id="Group 230">
<path id="Vector" d="M8.23958 48.5336H1.46745V28.6326L33.2253 22.281C33.6224 22.2016 33.8789 21.8162 33.7995 21.419C33.7201 21.0219 33.3346 20.7654 32.9375 20.8448L26.5091 22.1313L25.7318 12.8044C25.7005 12.4255 25.3828 12.1326 25.0013 12.1326H18.9349C18.5534 12.1326 18.237 12.4242 18.2044 12.8044L17.2734 23.9776L14.5716 24.518L13.5964 12.8044C13.5651 12.4255 13.2474 12.1326 12.8659 12.1326H6.79948C6.41797 12.1326 6.10156 12.4242 6.07031 12.8044L4.93229 26.4451L0.588542 27.3136C0.246094 27.3826 0 27.6834 0 28.0323V49.2667C0 49.6703 0.328125 49.9985 0.731771 49.9985H8.23698C8.64193 49.9985 8.96875 49.6703 8.96875 49.2667C8.96875 48.863 8.64063 48.5349 8.23698 48.5349L8.23958 48.5336ZM19.3568 16.63H24.5807L24.7109 18.1977H19.2253L19.3555 16.63H19.3568ZM24.3281 13.5961L24.4583 15.1651H19.4779L19.6081 13.5961H24.3268H24.3281ZM19.1042 19.6625H24.8333L25.0638 22.4177L18.7695 23.6768L19.1042 19.6625ZM7.22266 16.63H12.4466L12.5768 18.1977H7.09245L7.22266 16.63ZM12.194 13.5961L12.3242 15.1651H7.34375L7.47526 13.5961H12.194ZM6.97005 19.6625H12.6992L13.1276 24.8057L6.42969 26.1456L6.97005 19.6638V19.6625Z" fill="#0A71FE"/>
<path id="Vector_2" d="M46.0924 18.2146L36.0664 20.2185C35.6693 20.2979 35.4128 20.6833 35.4922 21.0805C35.5716 21.4763 35.957 21.7341 36.3542 21.6547L45.5039 19.8253V48.5336H39.3854V42.7654C39.3854 42.3604 39.0573 42.0336 38.6536 42.0336C38.25 42.0336 37.9219 42.3617 37.9219 42.7654V48.5336H30.2865V34.8318H37.9219V39.5753C37.9219 39.9802 38.25 40.307 38.6536 40.307C39.0573 40.307 39.3854 39.9789 39.3854 39.5753V34.1C39.3854 33.6951 39.0573 33.3682 38.6536 33.3682H29.5534C29.1484 33.3682 28.8216 33.6964 28.8216 34.1V48.5349H27.2539V34.1C27.2539 33.6951 26.9258 33.3682 26.5221 33.3682H17.4219C17.0169 33.3682 16.6901 33.6964 16.6901 34.1V48.5349H11.4349C11.0299 48.5349 10.7031 48.863 10.7031 49.2667C10.7031 49.6703 11.0299 49.9984 11.4349 49.9984H46.2409C46.6458 49.9984 46.9727 49.6703 46.9727 49.2667V18.932C46.9727 18.35 46.487 18.1378 46.0964 18.2146H46.0924ZM18.151 34.8318H25.7865V48.5336H18.151V34.8318Z" fill="#0A71FE"/>
<path id="Vector_3" d="M8.31901 10.5638C8.72396 10.5638 9.05078 10.2357 9.05078 9.83203C9.05078 6.89062 11.444 4.4974 14.3854 4.4974H26.5195C26.9232 4.4974 27.2513 4.16927 27.2513 3.76563C27.2513 2.49609 28.2839 1.46484 29.5521 1.46484H43.8672C43.5599 2.3763 42.6979 3.03385 41.6862 3.03385H29.5521C29.1471 3.03385 28.8203 3.36198 28.8203 3.76563C28.8203 5.03385 27.7878 6.06641 26.5195 6.06641H25.0026C22.9271 6.06641 21.237 7.75521 21.237 9.83203C21.237 10.237 21.5651 10.5638 21.9687 10.5638C22.3724 10.5638 22.7005 10.2357 22.7005 9.83203C22.7005 8.5625 23.7331 7.53125 25.0013 7.53125H26.5182C28.3437 7.53125 29.8711 6.22526 30.2122 4.4974H41.6849C43.7617 4.4974 45.4505 2.80729 45.4505 0.731771C45.4505 0.326823 45.1224 0 44.7188 0H29.5521C27.7266 0 26.1992 1.30599 25.8581 3.03385H14.3854C10.6367 3.03385 7.58594 6.08464 7.58594 9.83333C7.58594 10.2383 7.91406 10.5651 8.31771 10.5651L8.31901 10.5638Z" fill="#0A71FE"/>
<path id="Vector_4" d="M32.5859 27.2993H29.5521C29.1471 27.2993 28.8203 27.6274 28.8203 28.0311V31.0649C28.8203 31.4686 29.1484 31.7967 29.5521 31.7967H32.5859C32.9909 31.7967 33.3177 31.4686 33.3177 31.0649V28.0311C33.3177 27.6261 32.9896 27.2993 32.5859 27.2993ZM31.8542 30.3332H30.2852V28.7642H31.8542V30.3332Z" fill="#0A71FE"/>
<path id="Vector_5" d="M17.4193 27.2993C17.0143 27.2993 16.6875 27.6274 16.6875 28.0311V31.0649C16.6875 31.4686 17.0156 31.7967 17.4193 31.7967H20.4531C20.8581 31.7967 21.1849 31.4686 21.1849 31.0649V28.0311C21.1849 27.6261 20.8568 27.2993 20.4531 27.2993H17.4193ZM19.7201 30.3332H18.151V28.7642H19.7201V30.3332Z" fill="#0A71FE"/>
<path id="Vector_6" d="M23.4857 27.2993C23.0807 27.2993 22.7539 27.6274 22.7539 28.0311V31.0649C22.7539 31.4686 23.082 31.7967 23.4857 31.7967H26.5195C26.9232 31.7967 27.2513 31.4686 27.2513 31.0649V28.0311C27.2513 27.6261 26.9232 27.2993 26.5195 27.2993H23.4857ZM25.7865 30.3332H24.2174V28.7642H25.7865V30.3332Z" fill="#0A71FE"/>
<path id="Vector_7" d="M35.6198 31.7979H38.6536C39.0586 31.7979 39.3854 31.4698 39.3854 31.0662V28.0323C39.3854 27.6274 39.0573 27.3005 38.6536 27.3005H35.6198C35.2148 27.3005 34.8867 27.6287 34.8867 28.0323V31.0662C34.8867 31.4698 35.2148 31.7979 35.6198 31.7979ZM36.3516 28.7641H37.9206V30.3331H36.3516V28.7641Z" fill="#0A71FE"/>
<path id="Vector_8" d="M12.8672 36.3997H5.28385C4.87891 36.3997 4.55078 36.7278 4.55078 37.1327C4.55078 37.5377 4.87891 37.8645 5.28385 37.8645H12.8672C13.2721 37.8645 13.599 37.5364 13.599 37.1327C13.599 36.7291 13.2708 36.3997 12.8672 36.3997Z" fill="#0A71FE"/>
<path id="Vector_9" d="M12.8672 39.4336H5.28385C4.87891 39.4336 4.55078 39.7617 4.55078 40.1654C4.55078 40.569 4.87891 40.8971 5.28385 40.8971H12.8672C13.2721 40.8971 13.599 40.569 13.599 40.1654C13.599 39.7617 13.2708 39.4336 12.8672 39.4336Z" fill="#0A71FE"/>
<path id="Vector_10" d="M12.8672 33.3669H5.28385C4.87891 33.3669 4.55078 33.6951 4.55078 34.0987C4.55078 34.5024 4.87891 34.8305 5.28385 34.8305H12.8672C13.2721 34.8305 13.599 34.5024 13.599 34.0987C13.599 33.6951 13.2708 33.3669 12.8672 33.3669Z" fill="#0A71FE"/>
</g>
</svg>
