<svg width="38" height="38" viewBox="0 0 38 38" fill="none" xmlns="http://www.w3.org/2000/svg">
<g id="Group 222">
<path id="Vector" d="M37 12.9975C37.55 12.9975 38 12.5475 38 11.9975V5.9975C38 5.5475 37.7 5.1575 37.27 5.0375L19.27 0.0375C19.09 -0.0125 18.91 -0.0125 18.73 0.0375L0.73 5.0375C0.3 5.1575 0 5.5475 0 5.9975V11.9975C0 12.5475 0.45 12.9975 1 12.9975H2V27.9975C1.45 27.9975 1 28.4475 1 28.9975V31.9975C0.45 31.9975 0 32.4475 0 32.9975V36.9975C0 37.5475 0.45 37.9975 1 37.9975H37C37.55 37.9975 38 37.5475 38 36.9975V32.9975C38 32.4475 37.55 31.9975 37 31.9975V28.9975C37 28.4475 36.55 27.9975 36 27.9975V12.9975H37ZM36 35.9975H2V33.9975H36V35.9975ZM7 29.9975V31.9975H3V29.9975H7ZM4 27.9975V12.9975H6V27.9975H4ZM8 27.9975V12.9975H30V27.9975C29.45 27.9975 29 28.4475 29 28.9975V31.9975H9V28.9975C9 28.4475 8.55 27.9975 8 27.9975ZM35 29.9975V31.9975H31V29.9975H35ZM32 27.9975V12.9975H34V27.9975H32ZM2 10.9975V6.7575L19 2.0375L36 6.7575V10.9975H2Z" fill="#0A71FE"/>
<path id="Vector_2" d="M19 9.99756C20.65 9.99756 22 8.64756 22 6.99756C22 5.34756 20.65 3.99756 19 3.99756C17.35 3.99756 16 5.34756 16 6.99756C16 8.64756 17.35 9.99756 19 9.99756ZM19 5.99756C19.55 5.99756 20 6.44756 20 6.99756C20 7.54756 19.55 7.99756 19 7.99756C18.45 7.99756 18 7.54756 18 6.99756C18 6.44756 18.45 5.99756 19 5.99756Z" fill="#0A71FE"/>
<path id="Vector_3" d="M25.69 17.2675C25.53 17.1075 25.23 16.9875 25 16.9875H21.82C21.41 15.8275 20.31 14.9875 19 14.9875C17.69 14.9875 16.6 15.8275 16.18 16.9875H13C12.76 16.9875 12.48 17.0975 12.31 17.2675C11.77 17.7775 10 19.5775 10 20.9875C10 22.6375 11.35 23.9875 13 23.9875C14.65 23.9875 16 22.6375 16 20.9875C16 20.3475 15.63 19.6275 15.18 18.9875H16.18C16.48 19.8375 17.15 20.4975 18 20.8075V27.9875H17C16.45 27.9875 16 28.4375 16 28.9875C16 29.5375 16.45 29.9875 17 29.9875H21C21.55 29.9875 22 29.5375 22 28.9875C22 28.4375 21.55 27.9875 21 27.9875H20V20.8075C20.85 20.5075 21.51 19.8375 21.82 18.9875H22.82C22.37 19.6275 22 20.3475 22 20.9875C22 22.6375 23.35 23.9875 25 23.9875C26.65 23.9875 28 22.6375 28 20.9875C28 19.5675 26.23 17.7775 25.69 17.2675ZM13 21.9875C12.45 21.9875 12 21.5375 12 20.9875C12.01 20.7275 12.44 20.0775 13 19.4375C13.55 20.0775 13.98 20.7275 14 20.9875C14 21.5375 13.55 21.9875 13 21.9875ZM19 18.9875C18.45 18.9875 18 18.5375 18 17.9875C18 17.4375 18.45 16.9875 19 16.9875C19.55 16.9875 20 17.4375 20 17.9875C20 18.5375 19.55 18.9875 19 18.9875ZM25 21.9875C24.45 21.9875 24 21.5375 24 20.9875C24.01 20.7275 24.44 20.0775 25 19.4375C25.55 20.0775 25.98 20.7275 26 20.9875C26 21.5375 25.55 21.9875 25 21.9875Z" fill="#0A71FE"/>
</g>
</svg>
