<svg width="50" height="42" viewBox="0 0 50 42" fill="none" xmlns="http://www.w3.org/2000/svg">
<g id="Group 220">
<path id="Vector" d="M20.5254 16.0554L18.7885 13.0049C18.4464 12.3998 17.657 12.1774 17.0122 12.4986C16.3675 12.8197 16.1307 13.573 16.4728 14.1658L17.5517 16.0554H11.407L12.4859 14.1658C12.828 13.5607 12.5912 12.8197 11.9464 12.4986C11.3017 12.1774 10.5122 12.3998 10.1701 13.0049L8.43328 16.0554H6.59118C5.8675 16.0554 5.27539 16.6112 5.27539 17.2905C5.27539 17.9697 5.8675 18.5255 6.59118 18.5255H7.05171L7.65697 22.0947C7.90697 23.6015 9.27539 24.7006 10.907 24.7006H18.0649C19.6964 24.7006 21.0517 23.6015 21.3149 22.0947L21.9201 18.5255H22.3807C23.1043 18.5255 23.6964 17.9697 23.6964 17.2905C23.6964 16.6112 23.1043 16.0554 22.3807 16.0554H20.5385H20.5254ZM18.0517 22.2306H10.8938C10.5649 22.2306 10.2885 22.0083 10.2491 21.7119L9.7096 18.5255H19.2491L18.7096 21.7119C18.657 22.0083 18.3807 22.2306 18.0649 22.2306H18.0517Z" fill="#0A71FE"/>
<path id="Vector_2" d="M27.6322 37.0509H43.4217C44.1454 37.0509 44.7375 36.4951 44.7375 35.8159V28.4057C44.7375 27.7264 44.1454 27.1707 43.4217 27.1707H27.6322C26.9085 27.1707 26.3164 27.7264 26.3164 28.4057V35.8159C26.3164 36.4951 26.9085 37.0509 27.6322 37.0509ZM28.948 29.6407H42.1059V34.5808H28.948V29.6407Z" fill="#0A71FE"/>
<path id="Vector_3" d="M11.8426 27.1707H6.57946C5.85578 27.1707 5.26367 27.7264 5.26367 28.4057V35.8159C5.26367 36.4951 5.85578 37.0509 6.57946 37.0509H11.8426C12.5663 37.0509 13.1584 36.4951 13.1584 35.8159V28.4057C13.1584 27.7264 12.5663 27.1707 11.8426 27.1707ZM10.5268 34.5808H7.89525V29.6407H10.5268V34.5808Z" fill="#0A71FE"/>
<path id="Vector_4" d="M22.368 27.1707H17.1049C16.3812 27.1707 15.7891 27.7264 15.7891 28.4057V35.8159C15.7891 36.4951 16.3812 37.0509 17.1049 37.0509H22.368C23.0917 37.0509 23.6838 36.4951 23.6838 35.8159V28.4057C23.6838 27.7264 23.0917 27.1707 22.368 27.1707ZM21.0522 34.5808H18.4206V29.6407H21.0522V34.5808Z" fill="#0A71FE"/>
<path id="Vector_5" d="M27.6322 14.8204H43.4217C44.1454 14.8204 44.7375 14.2646 44.7375 13.5854C44.7375 12.9061 44.1454 12.3503 43.4217 12.3503H27.6322C26.9085 12.3503 26.3164 12.9061 26.3164 13.5854C26.3164 14.2646 26.9085 14.8204 27.6322 14.8204Z" fill="#0A71FE"/>
<path id="Vector_6" d="M27.6322 19.7606H43.4217C44.1454 19.7606 44.7375 19.2048 44.7375 18.5256C44.7375 17.8463 44.1454 17.2905 43.4217 17.2905H27.6322C26.9085 17.2905 26.3164 17.8463 26.3164 18.5256C26.3164 19.2048 26.9085 19.7606 27.6322 19.7606Z" fill="#0A71FE"/>
<path id="Vector_7" d="M27.6322 24.7005H43.4217C44.1454 24.7005 44.7375 24.1448 44.7375 23.4655C44.7375 22.7862 44.1454 22.2305 43.4217 22.2305H27.6322C26.9085 22.2305 26.3164 22.7862 26.3164 23.4655C26.3164 24.1448 26.9085 24.7005 27.6322 24.7005Z" fill="#0A71FE"/>
<path id="Vector_8" d="M46.0526 0H40.7895C40.0658 0 39.4737 0.555763 39.4737 1.23503C39.4737 1.91429 40.0658 2.47006 40.7895 2.47006H46.0526C46.7763 2.47006 47.3684 3.02582 47.3684 3.70509V4.94012H24.5L25.8158 2.47006H30.2632C30.9868 2.47006 31.5789 1.91429 31.5789 1.23503C31.5789 0.555763 30.9868 0 30.2632 0H3.94737C1.77632 0 0 1.66729 0 3.70509V38.2859C0 40.3237 1.77632 41.991 3.94737 41.991H46.0526C48.2237 41.991 50 40.3237 50 38.2859V3.70509C50 1.66729 48.2237 0 46.0526 0ZM19.8947 2.47006H22.8684L20.6053 6.73091C20.3816 7.15082 19.9342 7.41017 19.4342 7.41017H17.2632L19.8947 2.47006ZM2.63158 3.70509C2.63158 3.02582 3.22368 2.47006 3.94737 2.47006H16.9474L14.3158 7.41017H2.63158V3.70509ZM47.3684 38.2859C47.3684 38.9652 46.7763 39.5209 46.0526 39.5209H3.94737C3.22368 39.5209 2.63158 38.9652 2.63158 38.2859V9.88023H19.4211C20.9211 9.88023 22.2763 9.08981 22.9474 7.83008L23.1711 7.41017H47.3553V38.2859H47.3684Z" fill="#0A71FE"/>
<path id="Vector_9" d="M35.5267 2.47006C36.2534 2.47006 36.8425 1.91712 36.8425 1.23503C36.8425 0.552941 36.2534 0 35.5267 0C34.8 0 34.2109 0.552941 34.2109 1.23503C34.2109 1.91712 34.8 2.47006 35.5267 2.47006Z" fill="#0A71FE"/>
</g>
</svg>
