<svg width="50" height="50" viewBox="0 0 50 50" fill="none" xmlns="http://www.w3.org/2000/svg">
<g id="Consumer-Durables-ICON-01 1">
<path id="Vector" d="M21.4906 20.61C20.6927 20.4835 19.8751 20.6138 19.1561 20.9823C18.4371 21.3508 17.8539 21.9383 17.4906 22.66C17.3757 22.852 17.1996 22.9999 16.9906 23.08C16.1463 23.3425 15.3846 23.8196 14.7799 24.4646C14.1752 25.1097 13.7482 25.9006 13.5406 26.76C13.4077 27.4498 13.3242 28.1483 13.2906 28.85C12.9576 28.8714 12.6236 28.8714 12.2906 28.85C12.0125 28.8092 11.7286 28.8555 11.4779 28.9826C11.2271 29.1098 11.022 29.3115 10.8906 29.56C10.3906 30.3 9.83063 30.99 9.29063 31.71C9.00063 31.55 8.75063 31.42 8.51063 31.27C8.37238 31.1797 8.21079 31.1315 8.04563 31.1315C7.88047 31.1315 7.71889 31.1797 7.58063 31.27L2.44063 34.27C2.31053 34.3285 2.20009 34.4233 2.12261 34.543C2.04513 34.6628 2.00391 34.8024 2.00391 34.945C2.00391 35.0876 2.04513 35.2272 2.12261 35.347C2.20009 35.4667 2.31053 35.5616 2.44063 35.62L2.75063 35.75V41.45C2.75063 42.25 2.99063 42.45 3.75063 42.45H12.1706C13.0306 42.45 13.2506 42.23 13.2506 41.36V35.67C13.3406 35.67 13.4406 35.67 13.4806 35.58C13.6606 35.37 13.9506 35.15 13.9706 34.91C13.9563 34.7694 13.9124 34.6334 13.8417 34.5111C13.7711 34.3887 13.6753 34.2827 13.5606 34.2C12.5606 33.6 11.5606 33.05 10.5606 32.46C10.8596 32.1061 11.1336 31.7319 11.3806 31.34C11.5465 30.9674 11.8366 30.664 12.2014 30.4816C12.5662 30.2992 12.983 30.2491 13.3806 30.34C13.4923 30.3455 13.6006 30.3796 13.6952 30.4392C13.7898 30.4987 13.8675 30.5817 13.9206 30.68C14.305 31.3855 14.8504 31.9904 15.5123 32.4456C16.1743 32.9008 16.9343 33.1935 17.7306 33.3C18.2206 33.37 18.7306 33.37 19.2606 33.4V44.61C19.2246 44.9208 19.2587 45.2357 19.3606 45.5315C19.4625 45.8273 19.6295 46.0965 19.8493 46.3192C20.069 46.5419 20.336 46.7123 20.6305 46.8181C20.925 46.9238 21.2394 46.962 21.5506 46.93H27.4806C27.7957 46.9655 28.1147 46.9293 28.4137 46.8239C28.7127 46.7186 28.984 46.5469 29.2072 46.3218C29.4305 46.0966 29.5998 45.8239 29.7026 45.524C29.8053 45.224 29.8389 44.9047 29.8006 44.59V33.36H30.7406C31.9432 33.3441 33.1042 32.9173 34.0308 32.1505C34.9573 31.3837 35.5937 30.3231 35.8343 29.1447C36.0749 27.9663 35.9052 26.741 35.3533 25.6724C34.8015 24.6038 33.9007 23.7561 32.8006 23.27C32.3406 23.08 31.7306 23.07 31.4306 22.75C31.1306 22.43 31.1006 21.83 30.9506 21.36C30.9206 21.2284 30.9206 21.0917 30.9506 20.96C31.5306 19.58 32.1206 18.22 32.7006 16.86H35.1906C35.1965 16.8998 35.1965 16.9402 35.1906 16.98C35.1906 17.91 35.1906 18.83 35.1906 19.76C35.1789 19.9727 35.2124 20.1855 35.2888 20.3844C35.3652 20.5833 35.4829 20.7637 35.634 20.9139C35.7851 21.0641 35.9663 21.1806 36.1656 21.2557C36.365 21.3309 36.578 21.363 36.7906 21.35C37.3806 21.35 37.9806 21.35 38.6406 21.35C38.5706 21.6 38.5106 21.8 38.4506 21.99L38.2606 22.57C38.2199 22.685 38.2079 22.8081 38.2255 22.9288C38.2431 23.0495 38.2899 23.1641 38.3619 23.2626C38.4338 23.3611 38.5286 23.4406 38.6382 23.4941C38.7477 23.5477 38.8687 23.5737 38.9906 23.57H43.4106C43.5416 23.582 43.6735 23.5594 43.793 23.5043C43.9125 23.4492 44.0154 23.3637 44.0914 23.2563C44.1674 23.1489 44.2138 23.0234 44.2259 22.8924C44.2381 22.7614 44.2156 22.6296 44.1606 22.51C44.0406 22.12 43.9106 21.74 43.7806 21.31C44.4206 21.31 45.0206 21.31 45.6106 21.31C45.8271 21.3261 46.0445 21.2957 46.2482 21.2208C46.452 21.1459 46.6373 21.0282 46.7917 20.8756C46.9461 20.7231 47.0661 20.5392 47.1435 20.3365C47.221 20.1337 47.2541 19.9167 47.2406 19.7V13.91C47.2573 13.6895 47.2259 13.4681 47.1487 13.2609C47.0715 13.0537 46.9504 12.8657 46.7935 12.7098C46.6367 12.5539 46.448 12.4339 46.2403 12.358C46.0327 12.282 45.811 12.252 45.5906 12.27H36.8506C36.6298 12.2516 36.4075 12.2818 36.1995 12.3583C35.9915 12.4349 35.8028 12.556 35.6465 12.7132C35.4903 12.8704 35.3703 13.0599 35.295 13.2684C35.2197 13.4768 35.1909 13.6992 35.2106 13.92C35.2106 14.36 35.2106 14.81 35.2106 15.29C34.2806 15.29 33.4206 15.29 32.5606 15.29C32.2967 15.2466 32.0261 15.3037 31.8021 15.4499C31.5782 15.5961 31.4171 15.8209 31.3506 16.08C30.8706 17.3 30.3506 18.49 29.7906 19.75C28.9939 19.0109 27.9945 18.5268 26.9206 18.36C26.9206 17.92 26.9206 17.52 26.9206 17.14C26.9441 16.9097 26.8974 16.6776 26.7868 16.4742C26.6762 16.2708 26.5067 16.1055 26.3006 16C25.1106 15.22 23.9306 14.41 22.7306 13.64C22.6169 13.5765 22.5242 13.4811 22.4638 13.3657C22.4034 13.2502 22.378 13.1197 22.3906 12.99C22.3906 12.53 22.3906 12.06 22.3906 11.58H20.8906C20.8906 12.23 20.8906 12.86 20.8906 13.48C20.8652 13.7057 20.9078 13.9338 21.0129 14.1352C21.118 14.3365 21.2809 14.5019 21.4806 14.61C22.7106 15.4 23.9106 16.22 25.1206 17.04C25.25 17.1135 25.3492 17.2304 25.4006 17.37C25.4203 17.6797 25.4203 17.9903 25.4006 18.3C24.7906 18.53 24.2506 18.7 23.7506 18.93C23.6547 18.9904 23.541 19.0163 23.4284 19.0036C23.3157 18.9909 23.2107 18.9402 23.1306 18.86C21.8506 17.77 20.5706 16.69 19.2606 15.64C19.0153 15.4528 18.7189 15.3447 18.4106 15.33C16.7006 15.33 14.9906 15.33 13.2806 15.33H12.6006V11.67C12.6223 11.4453 12.594 11.2186 12.5178 11.0061C12.4415 10.7936 12.3192 10.6007 12.1596 10.441C12 10.2814 11.807 10.1591 11.5945 10.0828C11.382 10.0066 11.1553 9.9783 10.9306 10H3.73063C3.50633 9.98012 3.2804 10.0097 3.06875 10.0866C2.85711 10.1634 2.6649 10.2858 2.50567 10.445C2.34644 10.6043 2.22407 10.7965 2.14718 11.0081C2.07029 11.2198 2.04074 11.4457 2.06063 11.67V22.6C2.06063 23.31 2.32063 23.6 3.06063 23.6H11.6706C12.3806 23.6 12.6706 23.35 12.6706 22.65V16.86C12.7406 16.86 12.7706 16.8 12.8006 16.8C14.6006 16.8 16.4006 16.8 18.2106 16.8C18.3896 16.8283 18.5565 16.9082 18.6906 17.03C19.5806 17.75 20.4606 18.49 21.3406 19.22L22.2906 20.03C21.7806 20.65 21.7806 20.65 21.4906 20.61ZM7.86063 32.87C7.92679 32.8408 7.99831 32.8257 8.07063 32.8257C8.14295 32.8257 8.21447 32.8408 8.28063 32.87C8.98063 33.25 9.67063 33.65 10.4606 34.11H5.72063C6.50063 33.64 7.18063 33.24 7.86063 32.87ZM8.86063 40.87H7.34063V38.68H8.81063L8.86063 40.87ZM11.8606 35.67V40.89H10.3506V38.64C10.3506 38.39 10.3506 38.14 10.3506 37.89C10.3534 37.7908 10.3359 37.692 10.2992 37.5998C10.2624 37.5075 10.2073 37.4237 10.1371 37.3535C10.0669 37.2833 9.98312 37.2282 9.89088 37.1915C9.79863 37.1548 9.69987 37.1372 9.60063 37.14C8.60063 37.14 7.60063 37.14 6.60063 37.14C6.4936 37.1376 6.38732 37.1584 6.28911 37.201C6.19091 37.2437 6.10313 37.3071 6.03183 37.387C5.96052 37.4668 5.9074 37.5612 5.87611 37.6636C5.84483 37.766 5.83614 37.8739 5.85063 37.98C5.85063 38.98 5.85063 39.89 5.85063 40.87H4.34063V35.66L11.8606 35.67ZM40.0806 22C40.2006 21.27 40.2006 21.27 40.8706 21.27H41.5806C42.2506 21.27 42.2506 21.27 42.4006 22H40.0806ZM36.7506 13.75H45.7506V17.48H36.7506V13.75ZM36.7506 19.03H45.7506V19.74H36.7506V19.03ZM3.60063 11.54H11.0806V19H3.60063V11.54ZM11.0806 22H3.61063V20.59H11.0806V22ZM28.4106 44.9C28.4032 44.9711 28.3817 45.04 28.3474 45.1027C28.3131 45.1654 28.2667 45.2207 28.2109 45.2654C28.1551 45.31 28.091 45.3431 28.0223 45.3628C27.9536 45.3825 27.8816 45.3883 27.8106 45.38H21.5106C21.4273 45.3899 21.3427 45.3806 21.2635 45.3528C21.1843 45.325 21.1125 45.2794 21.0536 45.2196C20.9947 45.1597 20.9503 45.0872 20.9238 45.0075C20.8973 44.9279 20.8894 44.8432 20.9006 44.76C20.9006 44.48 20.9006 44.2 20.9006 43.88H28.4306C28.4457 44.2334 28.439 44.5874 28.4106 44.94V44.9ZM20.9306 42.34V33.34H28.4106V42.34H20.9306ZM28.4206 31.81H20.9006C20.881 31.477 20.881 31.143 20.9006 30.81C20.9081 30.7389 20.9296 30.67 20.9639 30.6073C20.9981 30.5446 21.0445 30.4893 21.1004 30.4447C21.1562 30.4 21.2203 30.3669 21.289 30.3472C21.3577 30.3275 21.4296 30.3217 21.5006 30.33H27.8006C27.8794 30.3213 27.9592 30.3297 28.0345 30.3547C28.1097 30.3797 28.1787 30.4207 28.2366 30.4748C28.2946 30.5289 28.3401 30.595 28.3702 30.6684C28.4002 30.7418 28.414 30.8208 28.4106 30.9C28.4406 31.23 28.4206 31.52 28.4206 31.85V31.81ZM26.1906 24.29C26.3895 24.29 26.5803 24.369 26.721 24.5097C26.8616 24.6503 26.9406 24.8411 26.9406 25.04C26.9406 25.2389 26.8616 25.4297 26.721 25.5703C26.5803 25.711 26.3895 25.79 26.1906 25.79C25.9917 25.79 25.801 25.711 25.6603 25.5703C25.5197 25.4297 25.4406 25.2389 25.4406 25.04C25.4406 24.8411 25.5197 24.6503 25.6603 24.5097C25.801 24.369 25.9917 24.29 26.1906 24.29ZM22.9006 21.71C23.1575 21.2421 23.5166 20.8382 23.9512 20.5283C24.3858 20.2184 24.8846 20.0105 25.4106 19.92C25.4106 20.92 25.4106 21.83 25.4106 22.78C25.4106 22.89 25.2106 23.03 25.0806 23.1C24.6012 23.3671 24.2353 23.7995 24.0513 24.3166C23.8673 24.8337 23.8777 25.4001 24.0806 25.91C24.2142 26.2496 24.4279 26.5518 24.7037 26.7908C24.9794 27.0298 25.3089 27.1984 25.664 27.2824C26.0191 27.3663 26.3893 27.363 26.7428 27.2728C27.0964 27.1825 27.4228 27.008 27.6943 26.7641C27.9657 26.5203 28.174 26.2143 28.3015 25.8724C28.429 25.5305 28.4718 25.1628 28.4262 24.8008C28.3806 24.4388 28.2481 24.0931 28.0399 23.7935C27.8317 23.4938 27.554 23.249 27.2306 23.08C27.1582 23.0359 27.0953 22.9778 27.0455 22.9091C26.9957 22.8405 26.9601 22.7626 26.9406 22.68C26.9406 21.87 26.9406 21.05 26.9406 20.23V19.9C27.5819 20.0116 28.1783 20.3029 28.6606 20.74C29.0416 21.069 29.3522 21.4715 29.5738 21.9235C29.7955 22.3754 29.9237 22.8674 29.9506 23.37C30.0006 24.09 30.1906 24.29 30.8806 24.37C31.847 24.4345 32.7515 24.8684 33.4066 25.5818C34.0616 26.2952 34.417 27.2334 34.399 28.2017C34.381 29.1701 33.991 30.0944 33.3099 30.7829C32.6287 31.4715 31.7087 31.8715 30.7406 31.9C30.4806 31.9 30.2206 31.9 29.9506 31.9C29.9506 31.51 29.9506 31.2 29.9506 30.9C29.9506 30.3696 29.7399 29.8609 29.3648 29.4858C28.9898 29.1107 28.4811 28.9 27.9506 28.9C25.7706 28.9 23.5906 28.9 21.4106 28.9C20.8802 28.9 20.3715 29.1107 19.9964 29.4858C19.6213 29.8609 19.4106 30.3696 19.4106 30.9C19.4106 31.22 19.4106 31.53 19.4106 31.84C18.9235 31.9463 18.42 31.9547 17.9296 31.8646C17.4391 31.7745 16.9715 31.5878 16.5539 31.3152C16.1364 31.0427 15.7772 30.6899 15.4972 30.2772C15.2173 29.8645 15.0223 29.4003 14.9235 28.9116C14.8247 28.4228 14.824 27.9193 14.9217 27.4303C15.0193 26.9413 15.2132 26.4766 15.4921 26.0633C15.7711 25.6499 16.1294 25.2962 16.5463 25.0227C16.9633 24.7492 17.4304 24.5613 17.9206 24.47C18.1216 24.4457 18.3104 24.361 18.4622 24.2271C18.6139 24.0932 18.7215 23.9164 18.7706 23.72C18.8576 23.4296 19.0026 23.1599 19.1969 22.9272C19.3912 22.6945 19.6307 22.5036 19.9009 22.3662C20.1711 22.2288 20.4664 22.1476 20.7688 22.1276C21.0713 22.1077 21.3747 22.1493 21.6606 22.25C22.3406 22.42 22.5306 22.34 22.9006 21.71Z" fill="#0A71FE"/>
<path id="Vector_2" d="M46.6301 37.1399C46.2394 37.023 45.842 36.9295 45.4401 36.8599C44.9426 36.8314 44.4628 36.6647 44.0547 36.3785C43.6466 36.0924 43.3265 35.6981 43.1301 35.2399C43.0195 35.0507 42.8994 34.8671 42.7701 34.6899C42.684 34.5016 42.5416 34.3447 42.3624 34.2408C42.1833 34.1369 41.9764 34.0912 41.7701 34.1099C41.3801 34.1099 40.9901 34.1099 40.5901 34.1099H36.9301C36.7443 34.0943 36.5578 34.131 36.3917 34.2158C36.2256 34.3007 36.0865 34.4302 35.9901 34.5899L34.6601 36.5899C34.5514 36.7588 34.483 36.9504 34.4601 37.1499C34.4601 38.3899 34.4601 39.6299 34.4601 40.8699C34.4543 40.9726 34.4703 41.0753 34.5069 41.1713C34.5436 41.2674 34.6001 41.3546 34.6728 41.4273C34.7455 41.5 34.8327 41.5565 34.9288 41.5932C35.0248 41.6298 35.1275 41.6457 35.2301 41.6399C35.3865 41.6549 35.5438 41.6549 35.7001 41.6399C35.8123 41.619 35.9283 41.6387 36.0272 41.6955C36.1262 41.7523 36.2017 41.8425 36.2401 41.9499C36.4201 42.3226 36.7056 42.634 37.0613 42.8456C37.4169 43.0572 37.8268 43.1596 38.2401 43.1399C38.6526 43.1694 39.0644 43.0734 39.4213 42.8646C39.7782 42.6558 40.0637 42.3439 40.2401 41.9699C40.4101 41.6299 40.6301 41.6399 40.9201 41.6399C41.2101 41.6399 41.4101 41.6399 41.5901 41.9699C41.7663 42.309 42.0277 42.5962 42.3486 42.8035C42.6695 43.0108 43.0389 43.131 43.4203 43.1522C43.8017 43.1734 44.1821 43.0949 44.524 42.9244C44.8659 42.7539 45.1575 42.4974 45.3701 42.1799C45.4667 41.9845 45.6245 41.826 45.8194 41.7285C46.0144 41.6311 46.2359 41.6 46.4501 41.6399C46.5644 41.6591 46.6815 41.6516 46.7923 41.618C46.9031 41.5844 47.0046 41.5255 47.0889 41.4461C47.1732 41.3667 47.2379 41.2688 47.278 41.1602C47.3181 41.0515 47.3326 40.9351 47.3201 40.8199C47.3201 39.8199 47.3201 38.9099 47.3201 37.9499C47.329 37.7527 47.2628 37.5594 47.1347 37.409C47.0066 37.2587 46.8263 37.1625 46.6301 37.1399ZM41.4201 35.6599C41.6601 35.6599 41.8501 36.0399 42.1601 36.3399H39.7401V35.6299C40.3 35.5947 40.8619 35.6047 41.4201 35.6599ZM38.1901 35.6599V36.0099V36.3799H36.7101C37.0001 35.6099 37.0701 35.5699 38.1901 35.6499V35.6599ZM38.1901 41.6599C37.9946 41.6627 37.8057 41.589 37.6637 41.4545C37.5218 41.32 37.438 41.1354 37.4301 40.9399C37.4242 40.7909 37.4628 40.6435 37.5411 40.5165C37.6193 40.3895 37.7337 40.2888 37.8695 40.2271C38.0053 40.1654 38.1565 40.1457 38.3036 40.1703C38.4507 40.195 38.5871 40.263 38.6954 40.3656C38.8036 40.4681 38.8789 40.6007 38.9114 40.7462C38.944 40.8918 38.9325 41.0438 38.8782 41.1827C38.824 41.3217 38.7295 41.4413 38.607 41.5263C38.4844 41.6113 38.3393 41.6578 38.1901 41.6599ZM44.1901 40.9499C44.1836 41.0484 44.1577 41.1447 44.1139 41.2332C44.0702 41.3216 44.0094 41.4006 43.9351 41.4656C43.8608 41.5306 43.7745 41.5804 43.681 41.612C43.5875 41.6436 43.4886 41.6565 43.3901 41.6499C43.2917 41.6434 43.1954 41.6175 43.1069 41.5737C43.0185 41.53 42.9395 41.4692 42.8745 41.3949C42.8095 41.3206 42.7597 41.2343 42.7281 41.1408C42.6965 41.0473 42.6836 40.9484 42.6901 40.8499C42.7034 40.651 42.7951 40.4655 42.9452 40.3343C43.0952 40.203 43.2912 40.1367 43.4901 40.1499C43.6891 40.1632 43.8746 40.2549 44.0058 40.405C44.1371 40.555 44.2034 40.751 44.1901 40.9499ZM45.6801 40.2199C45.5701 40.0599 45.5001 39.9899 45.4601 39.9099C45.2818 39.5317 44.9984 39.2128 44.6438 38.9911C44.2892 38.7695 43.8783 38.6545 43.4601 38.6599C43.0418 38.6473 42.6291 38.7582 42.2734 38.9787C41.9177 39.1992 41.6348 39.5196 41.4601 39.8999C41.3201 40.1799 41.1201 40.1799 40.8901 40.1499C40.6601 40.1199 40.3801 40.2799 40.2101 39.9299C40.04 39.544 39.7591 39.2173 39.403 38.9912C39.047 38.7651 38.6318 38.6498 38.2101 38.6599C37.7826 38.6648 37.3658 38.7941 37.0106 39.0321C36.6554 39.2701 36.3772 39.6064 36.2101 39.9999C36.1868 40.0389 36.16 40.0757 36.1301 40.1099H36.0501V37.8899H36.5301C38.3601 37.8899 40.2001 37.8899 42.0301 37.8899C43.3034 37.9072 44.5671 38.1128 45.7801 38.4999L45.6801 40.2199Z" fill="#0A71FE"/>
<path id="Vector_3" d="M18.1405 10H31.2205C31.9305 10 32.2205 9.74003 32.2205 9.00003C32.2205 7.57003 32.2205 6.15003 32.2205 4.72003C32.2503 4.51174 32.2313 4.29938 32.1651 4.09966C32.0989 3.89994 31.9873 3.7183 31.839 3.56904C31.6907 3.41978 31.5098 3.30696 31.3105 3.23945C31.1112 3.17195 30.899 3.15161 30.6905 3.18003H18.6905C18.4826 3.14983 18.2705 3.16859 18.0711 3.2348C17.8717 3.30101 17.6905 3.41285 17.5419 3.56142C17.3933 3.70999 17.2815 3.89119 17.2153 4.09059C17.1491 4.29 17.1303 4.5021 17.1605 4.71003C17.1605 6.12003 17.1605 7.54003 17.1605 8.95003C17.1305 9.77003 17.3705 10 18.1405 10ZM21.6705 8.47003V7.77003H27.6705V8.47003H21.6705ZM18.6705 4.76003H30.6705V8.46003H29.1805C29.1805 8.01003 29.1805 7.56003 29.1805 7.12003C29.1805 6.52003 28.9005 6.24003 28.3205 6.24003H21.0005C20.3905 6.24003 20.1305 6.52003 20.1205 7.14003V8.48003H18.6505L18.6705 4.76003Z" fill="#0A71FE"/>
<path id="Vector_4" d="M43.2898 30.17C42.8795 29.754 42.3906 29.4236 41.8516 29.1982C41.3125 28.9727 40.7341 28.8566 40.1498 28.8566C39.5655 28.8566 38.987 28.9727 38.4479 29.1982C37.9089 29.4236 37.42 29.754 37.0098 30.17L38.0098 31.17C38.5677 30.6382 39.3089 30.3415 40.0798 30.3415C40.8506 30.3415 41.5918 30.6382 42.1498 31.17L43.2898 30.17Z" fill="#0A71FE"/>
<path id="Vector_5" d="M38.6094 31.77L39.5494 32.7H40.6494L41.6494 31.76C41.4511 31.5574 41.2143 31.3967 40.9529 31.2872C40.6914 31.1778 40.4107 31.1219 40.1273 31.1228C39.8438 31.1237 39.5635 31.1815 39.3028 31.2927C39.0421 31.4038 38.8063 31.5661 38.6094 31.77Z" fill="#0A71FE"/>
<path id="Vector_6" d="M31.42 25.86H30V27.31H31.45L31.42 25.86Z" fill="#0A71FE"/>
<path id="Vector_7" d="M20.9297 27.32H22.3697V25.85H20.9297V27.32Z" fill="#0A71FE"/>
<path id="Vector_8" d="M17.9004 27.31H19.3504V25.86H17.9004V27.31Z" fill="#0A71FE"/>
<path id="Vector_9" d="M21.5391 36.22L22.5391 37.22C23.1164 36.6829 23.8756 36.3844 24.6641 36.3844C25.4525 36.3844 26.2118 36.6829 26.7891 37.22L27.7891 36.22C27.3835 35.8011 26.8978 35.4681 26.361 35.2406C25.8242 35.0132 25.2471 34.896 24.6641 34.896C24.081 34.896 23.504 35.0132 22.9671 35.2406C22.4303 35.4681 21.9446 35.8011 21.5391 36.22Z" fill="#0A71FE"/>
<path id="Vector_10" d="M23.1406 37.81L24.0406 38.73H25.2606L26.2006 37.81C26.0075 37.5958 25.7715 37.4245 25.5079 37.3072C25.2443 37.19 24.9591 37.1294 24.6706 37.1294C24.3822 37.1294 24.0969 37.19 23.8333 37.3072C23.5698 37.4245 23.3338 37.5958 23.1406 37.81Z" fill="#0A71FE"/>
<path id="Vector_11" d="M24.6694 39.36C24.5636 39.3573 24.4583 39.3761 24.36 39.4153C24.2617 39.4545 24.1724 39.5134 24.0976 39.5882C24.0228 39.663 23.9639 39.7523 23.9247 39.8506C23.8855 39.9489 23.8667 40.0542 23.8694 40.16C23.8714 40.3154 23.9191 40.4667 24.0067 40.5951C24.0943 40.7235 24.2177 40.8232 24.3617 40.8817C24.5056 40.9403 24.6636 40.9551 24.8159 40.9243C24.9682 40.8935 25.1081 40.8184 25.218 40.7086C25.3278 40.5987 25.4029 40.4588 25.4337 40.3065C25.4645 40.1542 25.4497 39.9962 25.3911 39.8523C25.3326 39.7083 25.2329 39.5849 25.1045 39.4973C24.9761 39.4097 24.8248 39.362 24.6694 39.36Z" fill="#0A71FE"/>
<path id="Vector_12" d="M7.36914 12.27C6.7758 12.27 6.19578 12.446 5.70243 12.7756C5.20908 13.1053 4.82457 13.5738 4.5975 14.122C4.37044 14.6701 4.31103 15.2733 4.42679 15.8553C4.54254 16.4372 4.82826 16.9718 5.24782 17.3913C5.66738 17.8109 6.20193 18.0966 6.78387 18.2124C7.36581 18.3281 7.96901 18.2687 8.51719 18.0417C9.06537 17.8146 9.53391 17.4301 9.86355 16.9367C10.1932 16.4434 10.3691 15.8634 10.3691 15.27C10.3691 14.8761 10.2915 14.4859 10.1408 14.122C9.99002 13.758 9.76904 13.4273 9.49046 13.1487C9.21189 12.8701 8.88117 12.6491 8.51719 12.4984C8.15322 12.3476 7.76311 12.27 7.36914 12.27ZM7.24914 16.79C6.95232 16.7741 6.66679 16.671 6.42834 16.4935C6.18989 16.316 6.00912 16.0721 5.9087 15.7924C5.80827 15.5126 5.79264 15.2094 5.86378 14.9208C5.93492 14.6322 6.08966 14.371 6.30861 14.1699C6.52755 13.9689 6.80096 13.837 7.09458 13.7906C7.38819 13.7443 7.68895 13.7857 7.95916 13.9095C8.22936 14.0334 8.457 14.2343 8.61354 14.487C8.77008 14.7397 8.84856 15.0329 8.83914 15.33C8.83277 15.531 8.78633 15.7287 8.70254 15.9114C8.61875 16.0942 8.4993 16.2584 8.35119 16.3944C8.20309 16.5304 8.02932 16.6355 7.84007 16.7034C7.65083 16.7713 7.44992 16.8008 7.24914 16.79Z" fill="#0A71FE"/>
</g>
</svg>
