<svg width="50" height="50" viewBox="0 0 50 50" fill="none" xmlns="http://www.w3.org/2000/svg">
<path id="Vector" fill-rule="evenodd" clip-rule="evenodd" d="M49.8107 42.4261C49.6207 42.1561 49.3207 42.0061 49.0007 42.0061H45.6407C47.6907 40.3561 49.0007 37.8361 49.0007 35.0061C49.0007 30.3861 45.4907 26.5661 41.0007 26.0661V24.8661C41.4107 24.9961 41.8607 25.0861 42.3507 25.0861C42.8807 25.0861 43.4307 24.9861 44.0007 24.7161C44.3707 24.5361 46.2307 23.5261 46.4207 20.7861C46.4407 20.4461 46.2807 20.1061 46.0007 19.9061C43.7607 18.3261 41.8007 19.1161 41.4207 19.2961C41.2707 19.3661 41.1407 19.4661 41.0007 19.5561V19.0061C41.0007 18.4561 40.5507 18.0061 40.0007 18.0061C39.4507 18.0061 39.0007 18.4561 39.0007 19.0061V26.0661C35.5807 26.4461 32.6607 28.7461 31.5107 32.0061H24.8907L25.5807 18.9761C29.7207 18.6761 33.0007 15.2261 33.0007 11.0061C33.0007 6.78609 29.4107 3.00609 25.0007 3.00609C20.9307 3.00609 17.5607 6.06609 17.0707 10.0061H10.5407L10.2207 5.23609C10.0607 2.84609 8.22068 0.896089 5.85068 0.606089L1.12068 0.00608882C0.570685 -0.0539112 0.0806847 0.336089 0.0106847 0.886089C-0.0593153 1.42609 0.330685 1.92609 0.880685 1.99609L5.60068 2.58609C7.02068 2.76609 8.13068 3.93609 8.22069 5.36609L8.53068 10.0061H1.00068C0.730685 10.0061 0.460685 10.1161 0.270685 10.3161C0.0906847 10.5161 -0.00931534 10.7861 0.000684662 11.0561L2.00068 49.0561C2.03068 49.5861 2.47068 50.0061 3.00068 50.0061H29.0007C29.5507 50.0061 30.0007 49.5561 30.0007 49.0061C30.0007 48.4561 29.5507 48.0061 29.0007 48.0061H21.8807C20.5907 48.0061 19.4407 47.1761 19.0407 45.9461L18.3907 44.0061H47.6107L46.9607 45.9561C46.5607 47.1761 45.4207 48.0061 44.1207 48.0061H37.0007C36.4507 48.0061 36.0007 48.4561 36.0007 49.0061C36.0007 49.5561 36.4507 50.0061 37.0007 50.0061H44.1207C46.2807 50.0061 48.1807 48.6261 48.8607 46.5861L49.9507 43.3261C50.0507 43.0161 50.0007 42.6861 49.8107 42.4261ZM42.2807 21.1061C42.3907 21.0561 43.2307 20.6961 44.3407 21.2361C44.0507 22.4361 43.2407 22.8561 43.1407 22.9061C42.4107 23.2561 41.6107 23.0161 41.1007 22.7761C41.2407 22.2261 41.5507 21.4461 42.2807 21.1061ZM25.0007 5.00609C28.3107 5.00609 31.0007 7.69609 31.0007 11.0061C31.0007 14.0861 28.6707 16.6261 25.6907 16.9661L26.0007 11.0561C26.0307 10.4861 25.5707 10.0061 25.0007 10.0061H19.0907C19.5707 7.17609 22.0307 5.00609 25.0007 5.00609ZM23.9507 12.0061L22.8907 32.0061H20.8907C20.8907 32.0061 21.7807 15.0861 21.7807 15.0561C21.8107 14.4961 21.3407 14.0061 20.7807 14.0061H10.8007L10.6707 12.0061H23.9507ZM19.7307 16.0061L19.3907 22.5361C17.5207 23.1661 15.7707 23.3561 14.2007 23.0261C13.2407 22.8261 12.3107 22.4861 11.3507 22.2761L10.9407 16.0061H19.7307ZM8.93069 16.0061L9.33068 22.0261C9.22069 22.0261 9.13068 22.0061 9.02069 22.0061C8.21068 21.9961 7.40068 22.0661 6.60068 22.2061L6.27068 16.0061H8.93069ZM3.95068 48.0061L2.05068 12.0061H8.66068L8.80068 14.0061H5.22068C4.95068 14.0061 4.68068 14.1161 4.49068 14.3161C4.31068 14.5161 4.21068 14.7861 4.22068 15.0561L5.79068 45.0561C5.82068 45.5861 6.26068 46.0061 6.79068 46.0061H16.9507L17.1407 46.5761C17.3107 47.1061 17.5707 47.5861 17.8807 48.0061H3.95068ZM17.0007 42.0061C16.6807 42.0061 16.3807 42.1561 16.1907 42.4261C16.0007 42.6861 15.9507 43.0161 16.0507 43.3261L16.2807 44.0061H7.74068L6.70068 24.2161C7.46068 24.0661 8.22068 23.9961 8.99068 24.0061C9.16068 24.0061 9.31069 24.0261 9.47069 24.0361L10.0007 32.0761C10.0407 32.6261 10.5407 33.0061 11.0707 33.0061C11.6207 32.9661 12.0307 32.4861 12.0007 31.9361C11.8307 29.4161 11.6707 26.8861 11.4907 24.3661C11.4907 24.4961 13.6407 24.9561 13.8007 24.9861C14.4607 25.1261 15.1507 25.1961 15.8607 25.1961C16.9507 25.1961 18.1007 25.0161 19.2707 24.6861L18.8907 32.0061H18.0007C17.4507 32.0061 17.0007 32.4561 17.0007 33.0061V35.0061C17.0007 37.8361 18.3107 40.3561 20.3607 42.0061H17.0007ZM26.0007 42.0061C22.1407 42.0061 19.0007 38.8661 19.0007 35.0061V34.0061H33.0007V35.0061C33.0007 38.8661 29.8607 42.0061 26.0007 42.0061ZM31.6407 42.0061C32.1507 41.5961 32.6007 41.1461 33.0107 40.6461C33.4107 41.1461 33.8607 41.6061 34.3507 42.0061H31.6407ZM40.0007 42.0061C37.6107 42.0061 35.4207 40.7861 34.1507 38.8061C34.6907 37.6461 35.0007 36.3661 35.0007 35.0061V33.0061C35.0007 32.4561 34.5507 32.0061 34.0007 32.0061H33.6807C34.8207 29.6061 37.2607 28.0061 40.0007 28.0061C43.8607 28.0061 47.0007 31.1461 47.0007 35.0061C47.0007 38.8661 43.8607 42.0061 40.0007 42.0061Z" fill="#0A71FE"/>
</svg>
