<svg width="264" height="34" viewBox="0 0 264 34" fill="none" xmlns="http://www.w3.org/2000/svg">
<path d="M0.0876103 15.7008C0.0876103 11.8353 0.0876103 7.97051 0.0876103 4.10506C0.0876103 3.99306 0.0851625 3.88045 0.0894462 3.76845C0.126164 2.84432 0.58391 2.39388 1.51654 2.39144C3.62719 2.38593 5.73845 2.40245 7.8491 2.38287C8.69727 2.37491 9.26334 2.71702 9.66234 3.47102C13.0361 9.84448 16.4263 16.2088 19.8111 22.5761C19.8735 22.693 19.9524 22.8044 19.9941 22.928C20.1617 23.4268 20.5087 23.5822 21.013 23.5327C21.4273 23.4923 21.5778 23.297 21.4162 22.9072C21.3422 22.7291 21.2467 22.5596 21.158 22.3876C20.9426 21.9714 20.74 21.5479 20.5063 21.1428C20.0706 20.3888 19.8925 19.5773 19.8931 18.7143C19.8949 13.7681 19.8906 8.82181 19.8949 3.87556C19.8961 2.84677 20.3704 2.39266 21.4065 2.39082C22.4162 2.38899 23.4259 2.38838 24.435 2.39082C25.4625 2.39388 25.9288 2.85901 25.9295 3.89269C25.9313 11.7662 25.9313 19.6391 25.9295 27.5126C25.9295 28.5456 25.4625 29.0108 24.4338 29.012C22.3636 29.0144 20.2933 28.9942 18.2237 29.0212C17.3253 29.0328 16.7415 28.6784 16.3186 27.8791C12.8868 21.387 9.43346 14.9058 5.98629 8.42156C5.7103 7.90196 5.35108 7.74223 4.78624 7.89278C4.5641 7.95215 4.5078 8.12351 4.54329 8.32057C4.56654 8.44787 4.62713 8.57089 4.6871 8.68778C5.0249 9.34997 5.36882 10.0091 5.70785 10.6707C5.98323 11.2074 6.10379 11.7852 6.1044 12.3825C6.10991 17.4713 6.11236 22.5608 6.10746 27.6496C6.10685 28.5144 5.62156 28.9979 4.75931 29.0077C3.64799 29.0199 2.53606 29.0205 1.42474 29.0071C0.597985 28.9973 0.142687 28.5456 0.0974017 27.7249C0.0851625 27.5009 0.0882223 27.2763 0.0882223 27.0523C0.0882223 23.2689 0.0882223 19.4848 0.0882223 15.7014L0.0876103 15.7008Z" fill="#2D3133"/>
<path d="M40.2341 7.87628H39.8161C37.1645 7.87628 34.5129 7.87628 31.8618 7.87506C31.6887 7.87506 31.5149 7.86649 31.3429 7.84813C30.6734 7.7753 30.2365 7.33282 30.223 6.65655C30.2028 5.64734 30.2034 4.63692 30.2218 3.62772C30.234 2.92697 30.682 2.47224 31.3802 2.40125C31.532 2.38595 31.6856 2.38901 31.8386 2.38901C39.3039 2.38901 46.7686 2.38901 54.2339 2.38901C54.3967 2.38901 54.5619 2.38473 54.7228 2.40615C55.3838 2.49305 55.8091 2.8982 55.8342 3.5812C55.8721 4.60938 55.8727 5.64184 55.8354 6.67001C55.8097 7.383 55.3758 7.77897 54.6708 7.8518C54.5093 7.86832 54.3453 7.87506 54.1825 7.87506C50.8577 7.87628 47.5335 7.87505 44.2088 7.87873C43.9664 7.87873 43.6776 7.79917 43.5521 8.12353C43.4114 8.48768 43.5179 9.02135 43.7847 9.2227C44.2804 9.59786 44.7742 9.97731 45.287 10.328C45.9792 10.8011 46.2692 11.4302 46.2662 12.2736C46.2478 17.322 46.2576 22.3705 46.2558 27.4189C46.2558 27.6019 46.2607 27.7892 46.2276 27.9673C46.1126 28.5909 45.6915 28.9832 45.0416 28.9961C43.8489 29.0199 42.655 29.0224 41.4629 28.9967C40.7261 28.9814 40.2916 28.5114 40.2463 27.7684C40.2365 27.6056 40.2353 27.4422 40.2353 27.2794C40.2353 20.9561 40.2353 14.6329 40.2353 8.30958V7.87506L40.2341 7.87628Z" fill="#2D3133"/>
<path d="M69.4246 7.87628H69.0067C66.355 7.87628 63.7034 7.87628 61.0524 7.87506C60.8792 7.87506 60.7054 7.86649 60.5335 7.84813C59.864 7.7753 59.427 7.33282 59.4136 6.65655C59.3934 5.64734 59.394 4.63692 59.4123 3.62772C59.4246 2.92697 59.8725 2.47224 60.5708 2.40125C60.7226 2.38595 60.8762 2.38901 61.0292 2.38901C68.4945 2.38901 75.9591 2.38901 83.4244 2.38901C83.5872 2.38901 83.7524 2.38473 83.9134 2.40615C84.5743 2.49305 84.9996 2.8982 85.0247 3.5812C85.0626 4.60938 85.0633 5.64184 85.0259 6.67001C84.9996 7.383 84.5663 7.77897 83.8614 7.8518C83.6998 7.86832 83.5358 7.87506 83.373 7.87506C80.0482 7.87628 76.7241 7.87505 73.3993 7.87873C73.157 7.87873 72.8681 7.79917 72.7427 8.12353C72.6019 8.48768 72.7084 9.02135 72.9752 9.2227C73.4709 9.59786 73.9648 9.97731 74.4776 10.328C75.1697 10.8011 75.4598 11.4302 75.4567 12.2736C75.4384 17.322 75.4482 22.3705 75.4463 27.4189C75.4463 27.6019 75.4512 27.7892 75.4182 27.9673C75.3031 28.5909 74.8821 28.9832 74.2322 28.9961C73.0395 29.0199 71.8455 29.0224 70.6534 28.9967C69.9166 28.9814 69.4828 28.5114 69.4362 27.7684C69.4271 27.616 69.4252 27.4624 69.4252 27.31C69.4252 20.9763 69.4252 14.6426 69.4252 8.30958V7.87506L69.4246 7.87628Z" fill="#2D3133"/>
<path d="M95.8313 23.526C100.941 23.526 106.051 23.526 111.16 23.526C112.464 23.526 112.863 23.9213 112.861 25.2206C112.86 26.0774 112.873 26.9349 112.839 27.7904C112.811 28.534 112.351 28.9612 111.609 29.0053C111.487 29.0126 111.364 29.0114 111.242 29.0114C105.357 29.0114 99.4718 29.0065 93.5872 29.0194C92.9459 29.0206 92.438 28.8156 92.0151 28.3523C91.3346 27.6062 90.6486 26.8657 89.9712 26.1172C89.5875 25.6937 89.3818 25.1937 89.3782 24.6166C89.3775 24.4838 89.3733 24.3516 89.3733 24.2188C89.3733 17.5075 89.3733 10.7956 89.3733 4.08429C89.3733 2.77582 89.76 2.38964 91.0678 2.38964C91.9961 2.38964 92.9239 2.38903 93.8522 2.38964C94.9494 2.39087 95.3962 2.83457 95.3962 3.92762C95.3968 10.3127 95.3962 16.6978 95.3962 23.0829C95.3962 23.2138 95.3962 23.3448 95.3962 23.526H95.8313Z" fill="#2D3133"/>
<path d="M132.905 9.69631V3.04789H134.485V13.0503H133.948L127.955 6.23794V12.8864H126.375V2.88391H126.912L132.905 9.69631Z" fill="#2D3133"/>
<path d="M140.12 5.40316C140.607 5.40316 141.059 5.48763 141.477 5.65657C141.894 5.82551 142.252 6.05905 142.55 6.35719C142.848 6.65533 143.082 7.01309 143.251 7.43048C143.42 7.83793 143.504 8.28016 143.504 8.75718C143.504 8.95594 143.489 9.14476 143.459 9.32364C143.439 9.50252 143.415 9.64165 143.385 9.74103H137.929C138.038 10.3472 138.307 10.8193 138.734 11.1572C139.161 11.4951 139.688 11.664 140.314 11.664C140.741 11.664 141.129 11.5895 141.477 11.4404C141.825 11.2814 142.148 11.0677 142.446 10.7994L143.206 11.8727C142.818 12.2404 142.381 12.5286 141.894 12.7373C141.407 12.946 140.871 13.0503 140.284 13.0503C139.718 13.0503 139.191 12.9559 138.704 12.7671C138.217 12.5683 137.8 12.3 137.452 11.9621C137.104 11.6143 136.831 11.2069 136.632 10.7398C136.433 10.2727 136.334 9.77084 136.334 9.2342C136.334 8.69755 136.428 8.19569 136.617 7.72861C136.816 7.26153 137.084 6.85905 137.422 6.52116C137.77 6.17334 138.172 5.90005 138.63 5.70129C139.087 5.50253 139.584 5.40316 140.12 5.40316ZM140.076 6.72986C139.539 6.72986 139.082 6.89383 138.704 7.22178C138.326 7.53979 138.078 7.97209 137.959 8.51867H141.939C141.919 7.94228 141.725 7.50004 141.357 7.19197C141 6.8839 140.572 6.72986 140.076 6.72986Z" fill="#2D3133"/>
<path d="M152.758 10.3075L154.651 5.56713H156.306L153.071 13.0503H152.534L150.224 8.16091L147.943 13.0503H147.406L144.157 5.56713H145.826L147.749 10.3522L149.97 5.40316H150.507L152.758 10.3075Z" fill="#2D3133"/>
<path d="M168.469 4.46403H165.16V12.8864H163.58V4.46403H160.271V3.04789H168.469V4.46403Z" fill="#2D3133"/>
<path d="M171.654 5.40316C172.101 5.40316 172.508 5.46775 172.876 5.59694C173.244 5.72614 173.557 5.91992 173.815 6.17831C174.084 6.42675 174.292 6.74477 174.441 7.13234C174.59 7.50998 174.665 7.95221 174.665 8.45904V12.8864H173.204V12.0665C172.946 12.3746 172.618 12.618 172.22 12.7969C171.823 12.9659 171.371 13.0503 170.864 13.0503C170.476 13.0503 170.123 13.0006 169.805 12.9013C169.497 12.8019 169.229 12.6578 169 12.469C168.782 12.2801 168.613 12.0565 168.494 11.7982C168.374 11.5398 168.315 11.2516 168.315 10.9336C168.315 10.2876 168.558 9.78078 169.045 9.41308C169.532 9.03544 170.188 8.84662 171.013 8.84662H173.085V8.3696C173.085 7.86277 172.951 7.4752 172.682 7.20688C172.414 6.93855 172.027 6.80439 171.52 6.80439C171.092 6.80439 170.72 6.8988 170.402 7.08762C170.084 7.27644 169.776 7.54476 169.477 7.89259L168.583 6.96837C168.961 6.43172 169.413 6.03918 169.94 5.79073C170.466 5.53235 171.038 5.40316 171.654 5.40316ZM171.192 11.8429C171.45 11.8429 171.694 11.8031 171.922 11.7236C172.151 11.6342 172.349 11.5149 172.518 11.3659C172.697 11.2069 172.836 11.023 172.936 10.8143C173.035 10.5957 173.085 10.3621 173.085 10.1137V9.97954H171.207C170.789 9.97954 170.466 10.0541 170.238 10.2031C170.019 10.3522 169.91 10.5758 169.91 10.8739C169.91 11.192 170.034 11.4354 170.282 11.6044C170.531 11.7634 170.834 11.8429 171.192 11.8429Z" fill="#2D3133"/>
<path d="M178.409 6.46154C178.687 6.13359 179.035 5.8752 179.452 5.68639C179.879 5.49757 180.346 5.40316 180.853 5.40316C181.37 5.40316 181.847 5.50253 182.284 5.70129C182.722 5.89011 183.099 6.15843 183.417 6.50626C183.745 6.84414 183.999 7.24663 184.178 7.71371C184.356 8.18079 184.446 8.68761 184.446 9.2342C184.446 9.78078 184.356 10.2876 184.178 10.7547C183.999 11.2118 183.75 11.6143 183.432 11.9621C183.114 12.3 182.737 12.5683 182.299 12.7671C181.862 12.9559 181.385 13.0503 180.868 13.0503C180.322 13.0503 179.82 12.946 179.363 12.7373C178.915 12.5286 178.558 12.2305 178.289 11.8429V12.8864H176.843V1.70628H178.409V6.46154ZM180.6 6.83421C180.322 6.83421 180.048 6.8839 179.78 6.98327C179.522 7.07271 179.288 7.21681 179.079 7.41557C178.871 7.61433 178.702 7.86277 178.573 8.16091C178.453 8.45904 178.394 8.81681 178.394 9.2342C178.394 9.65159 178.458 10.0143 178.587 10.3224C178.717 10.6205 178.886 10.869 179.094 11.0677C179.303 11.2565 179.537 11.3957 179.795 11.4851C180.063 11.5746 180.332 11.6193 180.6 11.6193C180.918 11.6193 181.211 11.5597 181.479 11.4404C181.758 11.3211 181.996 11.1572 182.195 10.9485C182.394 10.7398 182.548 10.4913 182.657 10.2031C182.776 9.905 182.836 9.57705 182.836 9.21929C182.836 8.86153 182.776 8.53855 182.657 8.25035C182.548 7.95221 182.389 7.6988 182.18 7.4901C181.981 7.28141 181.743 7.1224 181.464 7.01309C181.196 6.89383 180.908 6.83421 180.6 6.83421Z" fill="#2D3133"/>
<path d="M133.575 19.3708H130.266V27.7931H128.686V19.3708H125.377V17.9547H133.575V19.3708Z" fill="#2D3133"/>
<path d="M137.136 20.3099C137.623 20.3099 138.075 20.3944 138.492 20.5633C138.91 20.7323 139.268 20.9658 139.566 21.264C139.864 21.5621 140.097 21.9199 140.266 22.3372C140.435 22.7447 140.52 23.1869 140.52 23.6639C140.52 23.8627 140.505 24.0515 140.475 24.2304C140.455 24.4093 140.43 24.5484 140.401 24.6478H134.945C135.054 25.254 135.322 25.7261 135.75 26.0639C136.177 26.4018 136.704 26.5708 137.33 26.5708C137.757 26.5708 138.145 26.4962 138.492 26.3472C138.84 26.1882 139.163 25.9745 139.461 25.7062L140.222 26.7795C139.834 27.1472 139.397 27.4354 138.91 27.6441C138.423 27.8528 137.886 27.9571 137.3 27.9571C136.733 27.9571 136.207 27.8627 135.72 27.6739C135.233 27.4751 134.815 27.2068 134.468 26.8689C134.12 26.5211 133.847 26.1136 133.648 25.6466C133.449 25.1795 133.35 24.6776 133.35 24.141C133.35 23.6043 133.444 23.1025 133.633 22.6354C133.832 22.1683 134.1 21.7658 134.438 21.4279C134.786 21.0801 135.188 20.8068 135.645 20.6081C136.102 20.4093 136.599 20.3099 137.136 20.3099ZM137.091 21.6366C136.555 21.6366 136.097 21.8006 135.72 22.1286C135.342 22.4466 135.094 22.8789 134.974 23.4254H138.955C138.935 22.849 138.741 22.4068 138.373 22.0987C138.015 21.7907 137.588 21.6366 137.091 21.6366Z" fill="#2D3133"/>
<path d="M145.727 20.3099C146.423 20.3099 147.034 20.464 147.56 20.772C148.087 21.0801 148.51 21.4925 148.828 22.0093L147.724 22.8739C147.476 22.536 147.193 22.2677 146.875 22.0689C146.567 21.8602 146.189 21.7559 145.742 21.7559C145.414 21.7559 145.106 21.8205 144.818 21.9497C144.539 22.0689 144.301 22.2379 144.102 22.4565C143.903 22.6652 143.744 22.9136 143.625 23.2018C143.516 23.49 143.461 23.7981 143.461 24.1261C143.461 24.4639 143.516 24.782 143.625 25.0801C143.744 25.3683 143.903 25.6217 144.102 25.8403C144.301 26.049 144.539 26.213 144.818 26.3323C145.106 26.4515 145.414 26.5111 145.742 26.5111C146.189 26.5111 146.567 26.4118 146.875 26.213C147.183 26.0142 147.461 25.7459 147.71 25.408L148.813 26.2577C148.495 26.7745 148.072 27.1869 147.546 27.495C147.019 27.8031 146.413 27.9571 145.727 27.9571C145.19 27.9571 144.683 27.8577 144.206 27.659C143.739 27.4602 143.327 27.1919 142.969 26.854C142.621 26.5062 142.348 26.0987 142.149 25.6316C141.951 25.1646 141.851 24.6627 141.851 24.1261C141.851 23.5894 141.951 23.0925 142.149 22.6354C142.348 22.1683 142.621 21.7658 142.969 21.4279C143.327 21.0801 143.739 20.8068 144.206 20.6081C144.683 20.4093 145.19 20.3099 145.727 20.3099Z" fill="#2D3133"/>
<path d="M152.103 21.2192C152.352 20.931 152.65 20.7074 152.998 20.5484C153.356 20.3894 153.763 20.3099 154.22 20.3099C154.638 20.3099 155.015 20.3845 155.353 20.5335C155.691 20.6727 155.974 20.8714 156.203 21.1298C156.441 21.3782 156.62 21.6813 156.739 22.0391C156.869 22.3969 156.933 22.7894 156.933 23.2167V27.7931H155.353V23.4403C155.353 22.9335 155.209 22.5261 154.921 22.218C154.643 21.9 154.26 21.741 153.773 21.741C153.286 21.741 152.884 21.9 152.566 22.218C152.257 22.5261 152.103 22.9335 152.103 23.4403V27.7931H150.538V16.613H152.103V21.2192Z" fill="#2D3133"/>
<path d="M164.975 26.377H169.477V27.7931H163.395V17.9547H164.975V26.377Z" fill="#2D3133"/>
<path d="M173.765 20.3099C174.212 20.3099 174.619 20.3745 174.987 20.5037C175.355 20.6329 175.668 20.8267 175.926 21.0851C176.194 21.3335 176.403 21.6515 176.552 22.0391C176.701 22.4167 176.776 22.859 176.776 23.3658V27.7931H175.315V26.9733C175.057 27.2813 174.729 27.5248 174.331 27.7037C173.934 27.8726 173.481 27.9571 172.975 27.9571C172.587 27.9571 172.234 27.9074 171.916 27.808C171.608 27.7087 171.34 27.5646 171.111 27.3757C170.893 27.1869 170.724 26.9633 170.604 26.7049C170.485 26.4465 170.426 26.1583 170.426 25.8403C170.426 25.1944 170.669 24.6875 171.156 24.3198C171.643 23.9422 172.299 23.7534 173.124 23.7534H175.196V23.2764C175.196 22.7695 175.062 22.382 174.793 22.1136C174.525 21.8453 174.137 21.7112 173.63 21.7112C173.203 21.7112 172.831 21.8056 172.512 21.9944C172.194 22.1832 171.886 22.4515 171.588 22.7994L170.694 21.8751C171.072 21.3385 171.524 20.9459 172.05 20.6975C172.577 20.4391 173.149 20.3099 173.765 20.3099ZM173.303 26.7497C173.561 26.7497 173.804 26.7099 174.033 26.6304C174.262 26.541 174.46 26.4217 174.629 26.2726C174.808 26.1136 174.947 25.9298 175.047 25.7211C175.146 25.5025 175.196 25.2689 175.196 25.0205V24.8863H173.317C172.9 24.8863 172.577 24.9608 172.349 25.1099C172.13 25.259 172.021 25.4826 172.021 25.7807C172.021 26.0987 172.145 26.3422 172.393 26.5111C172.642 26.6701 172.945 26.7497 173.303 26.7497Z" fill="#2D3133"/>
<path d="M180.519 21.3683C180.798 21.0404 181.145 20.782 181.563 20.5932C181.99 20.4043 182.457 20.3099 182.964 20.3099C183.481 20.3099 183.958 20.4093 184.395 20.6081C184.832 20.7969 185.21 21.0652 185.528 21.413C185.856 21.7509 186.109 22.1534 186.288 22.6205C186.467 23.0876 186.557 23.5944 186.557 24.141C186.557 24.6875 186.467 25.1944 186.288 25.6615C186.109 26.1186 185.861 26.5211 185.543 26.8689C185.225 27.2068 184.847 27.4751 184.41 27.6739C183.973 27.8627 183.496 27.9571 182.979 27.9571C182.432 27.9571 181.931 27.8528 181.473 27.6441C181.026 27.4354 180.668 27.1372 180.4 26.7497V27.7931H178.954V16.613H180.519V21.3683ZM182.711 21.741C182.432 21.741 182.159 21.7907 181.891 21.89C181.632 21.9795 181.399 22.1236 181.19 22.3223C180.982 22.5211 180.813 22.7695 180.683 23.0677C180.564 23.3658 180.505 23.7236 180.505 24.141C180.505 24.5584 180.569 24.9211 180.698 25.2292C180.827 25.5273 180.996 25.7757 181.205 25.9745C181.414 26.1633 181.647 26.3024 181.906 26.3919C182.174 26.4813 182.442 26.5261 182.711 26.5261C183.029 26.5261 183.322 26.4664 183.59 26.3472C183.868 26.2279 184.107 26.0639 184.306 25.8552C184.505 25.6466 184.659 25.3981 184.768 25.1099C184.887 24.8118 184.947 24.4838 184.947 24.1261C184.947 23.7683 184.887 23.4453 184.768 23.1571C184.659 22.859 184.5 22.6056 184.291 22.3969C184.092 22.1882 183.854 22.0292 183.575 21.9199C183.307 21.8006 183.019 21.741 182.711 21.741Z" fill="#2D3133"/>
<path d="M196.881 33.8005H195.124V0H196.881V33.8005Z" fill="#2D3133"/>
<path d="M212.523 8.41765C213.668 8.41765 214.695 8.65456 215.603 9.12837C216.524 9.60219 217.294 10.2734 217.913 11.1421L216.393 12.3859C215.932 11.7409 215.379 11.2408 214.734 10.8854C214.089 10.5169 213.346 10.3327 212.503 10.3327C211.806 10.3327 211.167 10.4577 210.588 10.7078C210.022 10.9447 209.529 11.2803 209.108 11.7146C208.7 12.1358 208.377 12.6425 208.14 13.2348C207.917 13.8139 207.805 14.4457 207.805 15.1301C207.805 15.8276 207.923 16.4791 208.16 17.0846C208.397 17.6768 208.726 18.1901 209.147 18.6245C209.568 19.0588 210.068 19.401 210.648 19.6511C211.24 19.888 211.891 20.0064 212.602 20.0064C213.484 20.0064 214.254 19.8287 214.912 19.4734C215.583 19.1049 216.116 18.6245 216.511 18.0322V16.6305H212.484V14.7747H218.604V18.4468C218.314 18.9601 217.959 19.4273 217.538 19.8485C217.13 20.2697 216.662 20.6316 216.136 20.9343C215.623 21.237 215.057 21.4739 214.438 21.645C213.833 21.803 213.194 21.882 212.523 21.882C211.549 21.882 210.641 21.7109 209.799 21.3687C208.969 21.0264 208.246 20.5526 207.627 19.9472C207.022 19.3418 206.541 18.631 206.186 17.815C205.83 16.9858 205.653 16.0974 205.653 15.1498C205.653 14.2022 205.83 13.3203 206.186 12.5043C206.541 11.6751 207.022 10.9578 207.627 10.3524C208.246 9.74697 208.969 9.27315 209.799 8.93095C210.641 8.58875 211.549 8.41765 212.523 8.41765Z" fill="#2D3133"/>
<path d="M223.107 21.6648H221.034V6.858H223.107V21.6648Z" fill="#2D3133"/>
<path d="M230.625 11.7541C231.336 11.7541 232.001 11.8857 232.619 12.149C233.238 12.4122 233.778 12.7741 234.238 13.2348C234.712 13.6823 235.081 14.2153 235.344 14.8339C235.62 15.4394 235.758 16.0974 235.758 16.8082C235.758 17.5189 235.62 18.1835 235.344 18.8021C235.081 19.4207 234.712 19.9604 234.238 20.421C233.778 20.8685 233.231 21.2239 232.6 21.4871C231.981 21.7503 231.316 21.882 230.606 21.882C229.895 21.882 229.23 21.7503 228.612 21.4871C227.993 21.2239 227.447 20.8685 226.973 20.421C226.512 19.9604 226.15 19.4207 225.887 18.8021C225.624 18.1835 225.492 17.5189 225.492 16.8082C225.492 16.0974 225.624 15.4394 225.887 14.8339C226.15 14.2153 226.512 13.6823 226.973 13.2348C227.447 12.7741 227.993 12.4122 228.612 12.149C229.243 11.8857 229.915 11.7541 230.625 11.7541ZM230.625 13.6494C230.191 13.6494 229.783 13.7349 229.401 13.906C229.033 14.064 228.717 14.2877 228.454 14.5773C228.191 14.8537 227.987 15.1893 227.842 15.5841C227.697 15.9658 227.625 16.3804 227.625 16.8279C227.625 17.2754 227.697 17.69 227.842 18.0717C227.987 18.4534 228.191 18.789 228.454 19.0785C228.73 19.3549 229.046 19.5721 229.401 19.73C229.77 19.888 230.171 19.9669 230.606 19.9669C231.04 19.9669 231.441 19.888 231.81 19.73C232.178 19.5721 232.494 19.3549 232.758 19.0785C233.034 18.789 233.245 18.4534 233.389 18.0717C233.547 17.69 233.626 17.2754 233.626 16.8279C233.626 16.3804 233.547 15.9658 233.389 15.5841C233.245 15.1893 233.034 14.8537 232.758 14.5773C232.494 14.2877 232.178 14.064 231.81 13.906C231.441 13.7349 231.047 13.6494 230.625 13.6494Z" fill="#2D3133"/>
<path d="M240.208 13.1558C240.576 12.7215 241.037 12.3793 241.59 12.1292C242.156 11.8791 242.774 11.7541 243.446 11.7541C244.13 11.7541 244.762 11.8857 245.341 12.149C245.92 12.399 246.42 12.7544 246.841 13.215C247.276 13.6625 247.611 14.1956 247.848 14.8142C248.085 15.4328 248.204 16.104 248.204 16.8279C248.204 17.5518 248.085 18.223 247.848 18.8416C247.611 19.4471 247.282 19.9801 246.861 20.4408C246.44 20.8883 245.94 21.2436 245.361 21.5068C244.781 21.7569 244.15 21.882 243.465 21.882C242.741 21.882 242.077 21.7438 241.471 21.4674C240.879 21.191 240.405 20.7961 240.05 20.2828V21.6648H238.135V6.858H240.208V13.1558ZM243.11 13.6494C242.741 13.6494 242.38 13.7152 242.024 13.8468C241.682 13.9653 241.373 14.1561 241.096 14.4193C240.82 14.6826 240.596 15.0116 240.425 15.4065C240.267 15.8013 240.188 16.2751 240.188 16.8279C240.188 17.3807 240.274 17.8611 240.445 18.2691C240.616 18.6639 240.84 18.993 241.116 19.2562C241.392 19.5063 241.702 19.6905 242.044 19.809C242.399 19.9275 242.755 19.9867 243.11 19.9867C243.531 19.9867 243.919 19.9077 244.275 19.7498C244.643 19.5918 244.959 19.3747 245.222 19.0983C245.486 18.8219 245.69 18.4928 245.834 18.1112C245.992 17.7163 246.071 17.282 246.071 16.8082C246.071 16.3343 245.992 15.9066 245.834 15.5249C245.69 15.1301 245.479 14.7944 245.203 14.518C244.939 14.2417 244.624 14.0311 244.255 13.8863C243.9 13.7283 243.518 13.6494 243.11 13.6494Z" fill="#2D3133"/>
<path d="M254.301 11.7541C254.893 11.7541 255.433 11.8397 255.92 12.0108C256.407 12.1819 256.822 12.4385 257.164 12.7807C257.519 13.1098 257.796 13.5309 257.993 14.0442C258.19 14.5444 258.289 15.1301 258.289 15.8013V21.6648H256.354V20.579C256.012 20.987 255.578 21.3094 255.051 21.5463C254.525 21.7701 253.926 21.882 253.255 21.882C252.741 21.882 252.274 21.8161 251.853 21.6845C251.445 21.5529 251.09 21.3621 250.787 21.112C250.497 20.8619 250.274 20.5658 250.116 20.2236C249.958 19.8814 249.879 19.4997 249.879 19.0785C249.879 18.223 250.201 17.5518 250.846 17.0648C251.491 16.5647 252.36 16.3146 253.452 16.3146H256.196V15.6828C256.196 15.0116 256.019 14.4983 255.663 14.1429C255.308 13.7876 254.795 13.6099 254.123 13.6099C253.558 13.6099 253.064 13.7349 252.643 13.985C252.222 14.2351 251.814 14.5904 251.419 15.0511L250.234 13.8271C250.734 13.1163 251.333 12.5965 252.031 12.2674C252.728 11.9252 253.485 11.7541 254.301 11.7541ZM253.689 20.2828C254.031 20.2828 254.354 20.2302 254.656 20.1249C254.959 20.0064 255.222 19.8485 255.446 19.6511C255.683 19.4405 255.867 19.197 255.999 18.9206C256.131 18.631 256.196 18.3217 256.196 17.9927V17.815H253.709C253.156 17.815 252.728 17.9137 252.426 18.1112C252.136 18.3086 251.991 18.6047 251.991 18.9996C251.991 19.4207 252.156 19.7432 252.485 19.9669C252.814 20.1775 253.215 20.2828 253.689 20.2828Z" fill="#2D3133"/>
<path d="M263.247 21.6648H261.174V6.858H263.247V21.6648Z" fill="#2D3133"/>
</svg>
