<svg width="212" height="30" viewBox="0 0 212 30" fill="none" xmlns="http://www.w3.org/2000/svg">
<path d="M153.115 12.3907H151.412L144.733 4.11949V12.3907H142.78V0.898432H144.483L151.145 9.15341V0.898432H153.115V12.3907Z" fill="#2D3133"/>
<path d="M159.413 12.5525C158.144 12.5525 157.097 12.1587 156.274 11.3709C155.461 10.5832 155.055 9.57426 155.055 8.3441C155.055 7.14632 155.467 6.14817 156.291 5.34965C157.114 4.54034 158.155 4.13568 159.413 4.13568C160.57 4.13568 161.528 4.49178 162.284 5.20397C163.052 5.91617 163.436 6.89813 163.436 8.14987C163.436 8.36568 163.431 8.55992 163.42 8.73257H156.858C156.903 9.39081 157.164 9.92496 157.643 10.335C158.122 10.7343 158.717 10.9339 159.429 10.9339C160.498 10.9339 161.294 10.5239 161.817 9.70375L163.219 10.6749C162.418 11.9267 161.149 12.5525 159.413 12.5525ZM156.942 7.43767H161.583C161.483 6.87655 161.221 6.43952 160.798 6.12659C160.387 5.80286 159.902 5.641 159.346 5.641C158.767 5.641 158.25 5.79747 157.793 6.1104C157.348 6.42334 157.064 6.86576 156.942 7.43767Z" fill="#2D3133"/>
<path d="M172.388 12.3907L170.552 7.16251L168.732 12.3907H166.995L164.19 4.29754H166.127L167.93 9.8818L169.85 4.29754H171.253L173.139 9.8818L174.976 4.29754H176.93L174.125 12.3907H172.388Z" fill="#2D3133"/>
<path d="M183.922 12.3907V2.71129H180.483V0.898432H189.332V2.71129H185.876V12.3907H183.922Z" fill="#2D3133"/>
<path d="M192.947 12.5525C191.734 12.5525 190.738 12.1425 189.959 11.3224C189.179 10.5023 188.79 9.50951 188.79 8.3441C188.79 7.17869 189.179 6.18594 189.959 5.36583C190.738 4.54573 191.734 4.13568 192.947 4.13568C193.971 4.13568 194.784 4.43782 195.385 5.04211V4.29754H197.221V12.3907H195.385V11.6299C194.784 12.245 193.971 12.5525 192.947 12.5525ZM193.164 10.9339C194.121 10.9339 194.862 10.5562 195.385 9.80087V6.87115C194.851 6.12659 194.11 5.7543 193.164 5.7543C192.441 5.7543 191.845 6.00789 191.378 6.51506C190.91 7.01144 190.677 7.62112 190.677 8.3441C190.677 9.06709 190.91 9.68217 191.378 10.1893C191.845 10.6857 192.441 10.9339 193.164 10.9339Z" fill="#2D3133"/>
<path d="M203.986 12.5525C202.962 12.5525 202.149 12.245 201.548 11.6299V12.3907H199.712V0.574707H201.548V5.04211C202.149 4.43782 202.962 4.13568 203.986 4.13568C205.199 4.13568 206.195 4.54573 206.974 5.36583C207.765 6.18594 208.16 7.17869 208.16 8.3441C208.16 9.50951 207.765 10.5023 206.974 11.3224C206.195 12.1425 205.199 12.5525 203.986 12.5525ZM203.785 10.9339C204.509 10.9339 205.104 10.6857 205.572 10.1893C206.039 9.68217 206.273 9.06709 206.273 8.3441C206.273 7.62112 206.039 7.01144 205.572 6.51506C205.104 6.00789 204.509 5.7543 203.785 5.7543C202.828 5.7543 202.082 6.12659 201.548 6.87115V9.80087C202.071 10.5562 202.817 10.9339 203.785 10.9339Z" fill="#2D3133"/>
<path d="M145.084 28.5769V18.8975H141.645V17.0847H150.494V18.8975H147.037V28.5769H145.084Z" fill="#2D3133"/>
<path d="M154.309 28.7388C153.04 28.7388 151.994 28.3449 151.17 27.5572C150.358 26.7694 149.952 25.7605 149.952 24.5303C149.952 23.3326 150.363 22.3344 151.187 21.5359C152.011 20.7266 153.051 20.3219 154.309 20.3219C155.467 20.3219 156.424 20.678 157.181 21.3902C157.949 22.1024 158.333 23.0844 158.333 24.3361C158.333 24.5519 158.327 24.7462 158.316 24.9188H151.755C151.799 25.5771 152.061 26.1112 152.539 26.5213C153.018 26.9205 153.614 27.1201 154.326 27.1201C155.395 27.1201 156.19 26.7101 156.714 25.89L158.116 26.8612C157.315 28.1129 156.046 28.7388 154.309 28.7388ZM151.838 23.6239H156.48C156.38 23.0628 156.118 22.6258 155.695 22.3128C155.283 21.9891 154.799 21.8272 154.242 21.8272C153.664 21.8272 153.146 21.9837 152.69 22.2966C152.245 22.6096 151.961 23.052 151.838 23.6239Z" fill="#2D3133"/>
<path d="M164.028 28.7388C162.77 28.7388 161.718 28.3395 160.872 27.541C160.037 26.7317 159.62 25.7281 159.62 24.5303C159.62 23.3326 160.037 22.3344 160.872 21.5359C161.718 20.7266 162.77 20.3219 164.028 20.3219C164.885 20.3219 165.653 20.5216 166.332 20.9208C167.022 21.3201 167.551 21.865 167.918 22.5556L166.315 23.3973C166.104 22.9657 165.798 22.6204 165.397 22.3614C164.996 22.1024 164.54 21.9729 164.028 21.9729C163.293 21.9729 162.687 22.2211 162.208 22.7175C161.729 23.2031 161.49 23.8074 161.49 24.5303C161.49 25.2533 161.729 25.863 162.208 26.3594C162.687 26.845 163.293 27.0878 164.028 27.0878C164.54 27.0878 164.996 26.9583 165.397 26.6993C165.798 26.4403 166.104 26.095 166.315 25.6634L167.918 26.5051C167.551 27.1957 167.022 27.7406 166.332 28.1399C165.653 28.5391 164.885 28.7388 164.028 28.7388Z" fill="#2D3133"/>
<path d="M171.433 28.5769H169.596V16.7609H171.433V21.3417C172.001 20.6618 172.819 20.3219 173.887 20.3219C174.878 20.3219 175.668 20.6349 176.258 21.2607C176.859 21.8758 177.16 22.7013 177.16 23.7372V28.5769H175.323V24.0286C175.323 23.3703 175.162 22.8578 174.839 22.4909C174.527 22.124 174.077 21.9405 173.487 21.9405C172.507 21.9405 171.823 22.3668 171.433 23.2193V28.5769Z" fill="#2D3133"/>
<path d="M183.656 28.5769V17.0847H185.61V26.764H191.036V28.5769H183.656Z" fill="#2D3133"/>
<path d="M195.98 28.7388C194.767 28.7388 193.77 28.3287 192.991 27.5086C192.212 26.6885 191.823 25.6958 191.823 24.5303C191.823 23.3649 192.212 22.3722 192.991 21.5521C193.77 20.732 194.767 20.3219 195.98 20.3219C197.004 20.3219 197.816 20.6241 198.418 21.2284V20.4838H200.254V28.5769H198.418V27.8162C197.816 28.4312 197.004 28.7388 195.98 28.7388ZM196.197 27.1201C197.154 27.1201 197.894 26.7425 198.418 25.9871V23.0574C197.883 22.3128 197.143 21.9405 196.197 21.9405C195.473 21.9405 194.878 22.1941 194.41 22.7013C193.943 23.1977 193.709 23.8074 193.709 24.5303C193.709 25.2533 193.943 25.8684 194.41 26.3756C194.878 26.872 195.473 27.1201 196.197 27.1201Z" fill="#2D3133"/>
<path d="M207.018 28.7388C205.994 28.7388 205.182 28.4312 204.581 27.8162V28.5769H202.744V16.7609H204.581V21.2284C205.182 20.6241 205.994 20.3219 207.018 20.3219C208.232 20.3219 209.228 20.732 210.007 21.5521C210.797 22.3722 211.193 23.3649 211.193 24.5303C211.193 25.6958 210.797 26.6885 210.007 27.5086C209.228 28.3287 208.232 28.7388 207.018 28.7388ZM206.818 27.1201C207.542 27.1201 208.137 26.872 208.605 26.3756C209.072 25.8684 209.306 25.2533 209.306 24.5303C209.306 23.8074 209.072 23.1977 208.605 22.7013C208.137 22.1941 207.542 21.9405 206.818 21.9405C205.861 21.9405 205.115 22.3128 204.581 23.0574V25.9871C205.104 26.7425 205.85 27.1201 206.818 27.1201Z" fill="#2D3133"/>
<path d="M0.247855 15.0011C0.247855 10.6472 0.247855 6.29392 0.247855 1.93999C0.247855 1.81383 0.245097 1.68699 0.249922 1.56084C0.29128 0.519923 0.806874 0.012561 1.85736 0.00980356C4.23474 0.00359941 6.61281 0.0222119 8.9902 0.000152652C9.94556 -0.00880891 10.5832 0.376538 11.0326 1.22582C14.8327 8.40472 18.6514 15.5733 22.4639 22.7453C22.5342 22.8769 22.6231 23.0024 22.67 23.1417C22.8588 23.7035 23.2497 23.8786 23.8176 23.8227C24.2843 23.7772 24.4539 23.5573 24.2719 23.1182C24.1885 22.9176 24.081 22.7267 23.981 22.533C23.7384 22.0642 23.5102 21.5872 23.2469 21.1308C22.7561 20.2815 22.5555 19.3675 22.5562 18.3955C22.5583 12.8241 22.5535 7.25281 22.5583 1.68148C22.5597 0.52268 23.0939 0.0111823 24.2609 0.00911421C25.3982 0.00704616 26.5355 0.00635681 27.6722 0.00911421C28.8295 0.012561 29.3548 0.536467 29.3554 1.70078C29.3575 10.5693 29.3575 19.4371 29.3554 28.3056C29.3554 29.4692 28.8295 29.9931 27.6708 29.9945C25.3389 29.9972 23.007 29.9745 20.6758 30.0048C19.6639 30.0179 19.0064 29.6188 18.5301 28.7185C14.6645 21.4059 10.7748 14.1056 6.89198 6.80198C6.58111 6.21672 6.17649 6.0368 5.54027 6.20638C5.29005 6.27324 5.22664 6.46626 5.26662 6.68823C5.29281 6.83162 5.36105 6.97018 5.4286 7.10184C5.8091 7.84772 6.19648 8.59015 6.57835 9.33534C6.88853 9.9399 7.02432 10.5906 7.02501 11.2635C7.03122 16.9954 7.03397 22.728 7.02846 28.46C7.02777 29.434 6.48116 29.9786 5.50994 29.9897C4.25818 30.0035 3.00573 30.0041 1.75397 29.989C0.822727 29.9779 0.309891 29.4692 0.258883 28.5448C0.245097 28.2925 0.248544 28.0395 0.248544 27.7872C0.248544 23.5256 0.248544 19.2634 0.248544 15.0018L0.247855 15.0011Z" fill="#2D3133"/>
<path d="M45.467 6.1877H44.9962C42.0095 6.1877 39.0228 6.1877 36.0367 6.18633C35.8417 6.18633 35.6459 6.17667 35.4522 6.15599C34.6981 6.07396 34.206 5.57556 34.1908 4.81383C34.1681 3.67709 34.1687 2.53897 34.1894 1.40223C34.2032 0.612925 34.7078 0.100737 35.4943 0.0207727C35.6652 0.00353896 35.8382 0.00698571 36.0105 0.00698571C44.4193 0.00698571 52.8273 0.00698571 61.236 0.00698571C61.4194 0.00698571 61.6055 0.00216026 61.7868 0.0262875C62.5312 0.124175 63.0103 0.580525 63.0385 1.34984C63.0813 2.50795 63.082 3.67088 63.0399 4.82899C63.011 5.63209 62.5222 6.0781 61.7282 6.16013C61.5462 6.17874 61.3615 6.18633 61.1781 6.18633C57.4332 6.1877 53.6889 6.18633 49.944 6.19046C49.671 6.19046 49.3457 6.10085 49.2044 6.4662C49.0458 6.87637 49.1658 7.47748 49.4663 7.70428C50.0246 8.12685 50.5809 8.55424 51.1585 8.94924C51.9381 9.48211 52.2648 10.1908 52.2614 11.1407C52.2407 16.8271 52.2517 22.5136 52.2497 28.2C52.2497 28.4062 52.2552 28.6171 52.218 28.8177C52.0884 29.5202 51.6141 29.962 50.8821 29.9765C49.5387 30.0034 48.1939 30.0061 46.8511 29.9772C46.0212 29.96 45.5318 29.4305 45.4808 28.5937C45.4698 28.4103 45.4684 28.2262 45.4684 28.0429C45.4684 20.9205 45.4684 13.7981 45.4684 6.67576V6.18633L45.467 6.1877Z" fill="#2D3133"/>
<path d="M78.3479 6.18795H77.8771C74.8903 6.18795 71.9036 6.18795 68.9176 6.18657C68.7225 6.18657 68.5268 6.17692 68.3331 6.15624C67.579 6.07421 67.0868 5.5758 67.0717 4.81407C67.0489 3.67733 67.0496 2.53921 67.0703 1.40248C67.0841 0.613169 67.5886 0.100982 68.3751 0.0210169C68.5461 0.0037831 68.7191 0.00722985 68.8914 0.00722985C77.3001 0.00722985 85.7082 0.00722985 94.1169 0.00722985C94.3002 0.00722985 94.4863 0.0024044 94.6676 0.0265317C95.4121 0.124419 95.8911 0.58077 95.9194 1.35008C95.9621 2.50819 95.9628 3.67113 95.9208 4.82924C95.8911 5.63233 95.4031 6.07834 94.609 6.16037C94.4271 6.17899 94.2423 6.18657 94.059 6.18657C90.314 6.18795 86.5698 6.18657 82.8248 6.19071C82.5519 6.19071 82.2265 6.10109 82.0852 6.46645C81.9267 6.87661 82.0466 7.47772 82.3472 7.70452C82.9055 8.12709 83.4617 8.55449 84.0394 8.94949C84.819 9.48236 85.1457 10.191 85.1422 11.1409C85.1216 16.8274 85.1326 22.5138 85.1305 28.2003C85.1305 28.4064 85.136 28.6173 85.0988 28.818C84.9692 29.5204 84.495 29.9623 83.763 29.9767C82.4195 30.0036 81.0747 30.0064 79.732 29.9774C78.9021 29.9602 78.4133 29.4308 78.361 28.5939C78.3506 28.4223 78.3485 28.2492 78.3485 28.0776C78.3485 20.9435 78.3485 13.8094 78.3485 6.67601V6.18657L78.3479 6.18795Z" fill="#2D3133"/>
<path d="M107.602 23.815H108.092C113.847 23.815 119.603 23.815 125.358 23.815C126.827 23.815 127.275 24.2604 127.273 25.7239C127.272 26.6889 127.286 27.6547 127.249 28.6184C127.217 29.456 126.699 29.9372 125.863 29.9868C125.726 29.9951 125.587 29.9937 125.449 29.9937C118.821 29.9937 112.192 29.9882 105.564 30.0027C104.841 30.004 104.269 29.7731 103.793 29.2513C103.027 28.4109 102.254 27.5768 101.491 26.7338C101.059 26.2567 100.827 25.6935 100.823 25.0435C100.822 24.8939 100.817 24.745 100.817 24.5954C100.817 17.036 100.817 9.47586 100.817 1.91644C100.817 0.442611 101.253 0.0076306 102.726 0.0076306C103.772 0.0076306 104.817 0.00694125 105.862 0.0076306C107.098 0.0090093 107.601 0.508788 107.601 1.73997C107.602 8.93196 107.601 16.124 107.601 23.316C107.601 23.4635 107.601 23.611 107.601 23.815H107.602Z" fill="#2D3133"/>
</svg>
