<svg width="172" height="31" viewBox="0 0 172 31" fill="none" xmlns="http://www.w3.org/2000/svg">
<path d="M15.7608 0H20.5914L25.6071 16.2247L30.6202 0H36.1599L28.2062 23.6707H23.36L18.1748 7.77472L12.9897 23.6707H8.14345L0.192383 0H5.73206L10.7478 16.2247L15.7608 0Z" fill="#2D3133"/>
<path d="M42.2056 24.6773L42.7296 23.5051L36.1602 7.09692H41.0064L44.9741 18.0901L48.9601 7.09692H53.7907L47.0518 24.6773C45.5085 28.7367 43.3187 30.7676 40.4824 30.7676C39.9767 30.7676 39.4735 30.7243 38.9808 30.6351C38.4855 30.5459 38.1206 30.4593 37.8833 30.3701L37.5444 30.2554V26.2114C38.0058 26.4305 38.5794 26.5426 39.2676 26.5426C40.6753 26.5426 41.6529 25.9209 42.2056 24.6773Z" fill="#2D3133"/>
<path d="M63.207 17.2491L61.1475 19.6088V23.6682H56.4707V0H61.1475V13.865L67.1929 7.09688H72.5449L66.1632 14.2116L72.902 23.6707H67.7169L63.2096 17.2491H63.207Z" fill="#2D3133"/>
<path d="M88.2062 9.34955C89.9893 11.0722 90.8835 13.0827 90.8835 15.3838C90.8835 17.6849 89.9919 19.6955 88.2062 21.4181C86.4205 23.1407 84.3193 24.002 81.9001 24.002C79.4809 24.002 77.3745 23.1407 75.5836 21.4181C73.7926 19.6955 72.8984 17.6849 72.8984 15.3838C72.8984 13.0827 73.7926 11.0722 75.5836 9.34955C77.3745 7.62693 79.4783 6.76562 81.9001 6.76562C84.3219 6.76562 86.4231 7.62693 88.2062 9.34955ZM78.9777 12.2622C78.1566 13.1108 77.7447 14.153 77.7447 15.3889C77.7447 16.6248 78.1566 17.6671 78.9777 18.508C79.7989 19.3489 80.7739 19.7694 81.9001 19.7694C83.0263 19.7694 83.9987 19.3489 84.8224 18.508C85.6436 17.6671 86.0555 16.6274 86.0555 15.3889C86.0555 14.1505 85.6436 13.1082 84.8224 12.2622C84.0013 11.4162 83.0263 10.9906 81.9001 10.9906C80.7739 10.9906 79.8015 11.4136 78.9777 12.2622Z" fill="#2D3133"/>
<path d="M98.2259 7.09679V9.12775C98.3615 8.95192 98.5518 8.73532 98.7994 8.4754C99.0471 8.21802 99.5893 7.86636 100.429 7.42806C101.268 6.98722 102.149 6.76807 103.072 6.76807C105.009 6.76807 106.586 7.42297 107.809 8.73277C109.029 10.0426 109.642 11.8085 109.642 14.0306V23.6706H104.98V14.5428C104.98 13.5311 104.673 12.7131 104.06 12.0914C103.448 11.4696 102.655 11.1587 101.688 11.1587C100.629 11.1587 99.7875 11.4976 99.1644 12.1729C98.5388 12.8507 98.2285 13.8089 98.2285 15.0524V23.6681H93.5674V7.09679H98.2285H98.2259Z" fill="#2D3133"/>
<path d="M122.706 23.6706V21.9862C122.571 22.1391 122.383 22.3302 122.141 22.5545C121.898 22.7813 121.371 23.0769 120.561 23.4464C119.75 23.8159 118.905 23.9994 118.027 23.9994C116.338 23.9994 114.964 23.5407 113.908 22.6207C112.85 21.7034 112.32 20.5872 112.32 19.2774C112.32 17.9676 112.766 16.7954 113.655 15.8934C114.544 14.9913 115.772 14.4026 117.336 14.1274L122.706 13.1871C122.706 12.494 122.448 11.9283 121.929 11.4874C121.411 11.0466 120.691 10.8274 119.768 10.8274C119.002 10.8274 118.306 10.9676 117.675 11.2479C117.044 11.5282 116.601 11.8162 116.34 12.1143L115.952 12.5093L113.368 9.98396C113.436 9.89732 113.527 9.77755 113.647 9.62976C113.765 9.48196 114.03 9.22458 114.44 8.86273C114.852 8.49833 115.297 8.17725 115.782 7.89694C116.267 7.61663 116.903 7.35926 117.691 7.12227C118.478 6.88529 119.283 6.76807 120.105 6.76807C122.242 6.76807 123.989 7.39239 125.339 8.64103C126.69 9.88968 127.365 11.4619 127.365 13.3528V23.6681H122.704L122.706 23.6706ZM119.244 20.2866C120.303 20.2866 121.145 19.9604 121.768 19.3055C122.393 18.6506 122.706 17.7408 122.706 16.5737V16.0615L118.908 16.7394C117.636 16.9381 117 17.5599 117 18.6047C117 19.7259 117.748 20.2891 119.247 20.2891L119.244 20.2866Z" fill="#2D3133"/>
<path d="M134.708 7.09679V9.12775C134.844 8.95192 135.034 8.73532 135.282 8.4754C135.53 8.21802 136.072 7.86636 136.911 7.42806C137.751 6.98722 138.632 6.76807 139.555 6.76807C141.492 6.76807 143.069 7.42297 144.291 8.73277C145.511 10.0426 146.124 11.8085 146.124 14.0306V23.6706H141.463V14.5428C141.463 13.5311 141.155 12.7131 140.543 12.0914C139.93 11.4696 139.137 11.1587 138.17 11.1587C137.112 11.1587 136.27 11.4976 135.647 12.1729C135.021 12.8507 134.711 13.8089 134.711 15.0524V23.6681H130.05V7.09679H134.711H134.708Z" fill="#2D3133"/>
<path d="M165.926 16.9026H153.65C153.83 17.8047 154.32 18.5666 155.12 19.1884C155.918 19.8102 156.927 20.1211 158.142 20.1211C159.02 20.1211 159.834 19.9529 160.582 19.6165C161.33 19.2801 161.856 18.9438 162.161 18.6023L162.652 18.0901L165.066 21.1276L164.761 21.4258C164.615 21.5685 164.31 21.8054 163.848 22.1342C163.387 22.4654 162.897 22.7585 162.378 23.0184C161.859 23.2783 161.187 23.5051 160.36 23.7039C159.534 23.9027 158.679 24.002 157.803 24.002C155.316 24.002 153.194 23.1586 151.437 21.4691C149.68 19.7796 148.804 17.7537 148.804 15.3864C148.804 13.0191 149.672 10.9932 151.405 9.30372C153.139 7.61422 155.217 6.77075 157.636 6.77075C160.055 6.77075 162.07 7.56071 163.681 9.14063C165.292 10.7205 166.095 12.6929 166.095 15.0577L165.926 16.9052V16.9026ZM160.141 11.5207C159.461 10.9473 158.624 10.6619 157.633 10.6619C156.643 10.6619 155.801 10.9422 155.11 11.5029C154.416 12.0635 153.931 12.7948 153.65 13.6995H161.434C161.254 12.8203 160.824 12.0941 160.144 11.5207H160.141Z" fill="#2D3133"/>
<path d="M163.695 0.364258H166.79V1.10835H165.666V4.21722H164.821V1.10835H163.695V0.364258Z" fill="#2D3133"/>
<path d="M169.801 2.04356L171.164 0.364258H171.913V4.21722H171.068V1.64858L169.801 3.22595L168.537 1.65877V4.21722H167.689V0.364258H168.451L169.801 2.04356Z" fill="#2D3133"/>
</svg>
