<svg width="70" height="48" viewBox="0 0 70 48" fill="none" xmlns="http://www.w3.org/2000/svg">
<g id="Layer_1" clip-path="url(#clip0_311_7311)">
<path id="Vector" d="M40.2818 37.4548H35.3156C34.8805 37.4548 34.5273 37.1027 34.5273 36.6688V21.8528C34.5273 21.4189 34.8805 21.0668 35.3156 21.0668H40.2818C40.717 21.0668 41.0701 21.4189 41.0701 21.8528V36.6688C41.0701 37.1027 40.717 37.4548 40.2818 37.4548ZM36.1039 35.8827H39.4936V22.6389H36.1039V35.8827Z" fill="#0A71FE"/>
<path id="Vector_2" d="M48.152 37.4549H43.1857C42.7506 37.4549 42.3975 37.1027 42.3975 36.6688V10.263C42.3975 9.82909 42.7506 9.47693 43.1857 9.47693H48.152C48.5871 9.47693 48.9403 9.82909 48.9403 10.263V36.6688C48.9403 37.1027 48.5871 37.4549 48.152 37.4549ZM43.974 35.8827H47.3637V11.0491H43.974V35.8827Z" fill="#0A71FE"/>
<path id="Vector_3" d="M56.0192 37.4549H51.0529C50.6178 37.4549 50.2646 37.1027 50.2646 36.6688V16.6459C50.2646 16.212 50.6178 15.8599 51.0529 15.8599H56.0192C56.4543 15.8599 56.8074 16.212 56.8074 16.6459V36.6688C56.8074 37.1027 56.4543 37.4549 56.0192 37.4549ZM51.8412 35.8827H55.2309V17.432H51.8412V35.8827Z" fill="#0A71FE"/>
<g id="Group">
<path id="Vector_4" d="M22.6837 18.391C22.4662 18.0388 22.0878 17.8281 21.6716 17.8281C21.2554 17.8281 20.877 18.0388 20.6626 18.391L16.945 24.4311C16.699 24.8305 16.7117 25.3398 16.9828 25.7235C17.2508 26.1102 17.7238 26.2989 18.1842 26.2077L19.6409 25.9215V29.7387C19.6409 30.3896 20.1738 30.921 20.8265 30.921H22.5135C23.1662 30.921 23.699 30.3896 23.699 29.7387V25.9215L25.1558 26.2077C25.6162 26.2989 26.0891 26.1071 26.3572 25.7235C26.6252 25.3367 26.6409 24.8305 26.395 24.4311L22.6774 18.391H22.6837ZM23.0684 24.1953C22.8382 24.1482 22.5986 24.211 22.4157 24.3588C22.2328 24.5098 22.1288 24.7299 22.1288 24.9657V29.3488H21.2207V24.9657C21.2207 24.7299 21.1166 24.5066 20.9337 24.3588C20.7508 24.2079 20.5112 24.1482 20.281 24.1953L18.7581 24.494L21.6747 19.7556L24.5914 24.494L23.0684 24.1953Z" fill="#2D3133"/>
<path id="Vector_5" d="M21.6721 16.6962C22.1072 16.6962 22.4604 16.3441 22.4604 15.9101V12.8602C22.4604 12.4263 22.1072 12.0741 21.6721 12.0741C21.2369 12.0741 20.8838 12.4263 20.8838 12.8602V15.9101C20.8838 16.3441 21.2369 16.6962 21.6721 16.6962Z" fill="#2D3133"/>
<path id="Vector_6" d="M28.7472 19.1267H25.6887C25.2535 19.1267 24.9004 19.4789 24.9004 19.9128C24.9004 20.3467 25.2535 20.6989 25.6887 20.6989H28.7472C29.1824 20.6989 29.5355 20.3467 29.5355 19.9128C29.5355 19.4789 29.1824 19.1267 28.7472 19.1267Z" fill="#2D3133"/>
<path id="Vector_7" d="M18.4457 19.9128C18.4457 19.4789 18.0925 19.1267 17.6574 19.1267H14.5988C14.1637 19.1267 13.8105 19.4789 13.8105 19.9128C13.8105 20.3467 14.1637 20.6989 14.5988 20.6989H17.6574C18.0925 20.6989 18.4457 20.3467 18.4457 19.9128Z" fill="#2D3133"/>
<path id="Vector_8" d="M24.5125 17.869C24.7143 17.869 24.9161 17.7935 25.0706 17.6395L27.2337 15.4825C27.5427 15.1744 27.5427 14.6776 27.2337 14.3694C26.9247 14.0613 26.4265 14.0613 26.1175 14.3694L23.9544 16.5264C23.6454 16.8345 23.6454 17.3313 23.9544 17.6395C24.1089 17.7935 24.3107 17.869 24.5125 17.869Z" fill="#2D3133"/>
<path id="Vector_9" d="M18.2757 17.6395C18.4302 17.7935 18.632 17.869 18.8338 17.869C19.0356 17.869 19.2374 17.7935 19.3919 17.6395C19.7009 17.3313 19.7009 16.8345 19.3919 16.5264L17.2288 14.3694C16.9198 14.0613 16.4216 14.0613 16.1126 14.3694C15.8036 14.6776 15.8036 15.1744 16.1126 15.4825L18.2757 17.6395Z" fill="#2D3133"/>
<path id="Vector_10" d="M5.97481 37.4549C6.40995 37.4549 6.7631 37.1027 6.7631 36.6688V2.35822C6.7631 1.92431 7.11625 1.57215 7.55139 1.57215H62.4509C62.8861 1.57215 63.2392 1.92431 63.2392 2.35822V36.6688C63.2392 37.1027 63.5924 37.4549 64.0275 37.4549C64.4626 37.4549 64.8158 37.1027 64.8158 36.6688V2.35822C64.8158 1.05648 63.7563 0 62.4509 0H7.55139C6.24598 0 5.18652 1.05648 5.18652 2.35822V36.6688C5.18652 37.1027 5.53968 37.4549 5.97481 37.4549Z" fill="#2D3133"/>
<path id="Vector_11" d="M10.8371 5.54028C10.402 5.54028 10.0488 5.89244 10.0488 6.32636V36.6688C10.0488 37.1027 10.402 37.4549 10.8371 37.4549H59.1655C59.6006 37.4549 59.9538 37.1027 59.9538 36.6688V6.32636C59.9538 5.89244 59.6006 5.54028 59.1655 5.54028H10.8371ZM11.6254 7.11243H31.5849V35.8827H11.6254V7.11243ZM58.3772 35.8827H33.1646V7.11243H58.3772V35.8827Z" fill="#2D3133"/>
<path id="Vector_12" d="M67.6351 40.0897H2.36486C1.05946 40.0897 0 41.1462 0 42.4479V45.369C0 46.6707 1.05946 47.7272 2.36486 47.7272H67.6351C68.9405 47.7272 70 46.6707 70 45.369V42.4479C70 41.1462 68.9405 40.0897 67.6351 40.0897ZM68.4234 45.369C68.4234 45.8029 68.0703 46.1551 67.6351 46.1551H2.36486C1.92973 46.1551 1.57658 45.8029 1.57658 45.369V42.4479C1.57658 42.014 1.92973 41.6619 2.36486 41.6619H67.6351C68.0703 41.6619 68.4234 42.014 68.4234 42.4479V45.369Z" fill="#2D3133"/>
</g>
<path id="Vector_13" d="M41.7351 44.5892H28.2649C27.8297 44.5892 27.4766 44.2371 27.4766 43.8032C27.4766 43.3693 27.8297 43.0171 28.2649 43.0171H41.7351C42.1703 43.0171 42.5234 43.3693 42.5234 43.8032C42.5234 44.2371 42.1703 44.5892 41.7351 44.5892Z" fill="#2D3133"/>
</g>
<defs>
<clipPath id="clip0_311_7311">
<rect width="70" height="47.7273" fill="white"/>
</clipPath>
</defs>
</svg>
