<svg width="72" height="76" viewBox="0 0 72 76" fill="none" xmlns="http://www.w3.org/2000/svg">
<g id="Layer_1" clip-path="url(#clip0_285_2765)">
<path id="Vector" d="M17.3081 24.3593H9.65226C9.1057 24.3593 8.66211 23.916 8.66211 23.3698V15.7184C8.66211 15.1721 9.1057 14.7288 9.65226 14.7288H17.3081C17.8547 14.7288 18.2983 15.1721 18.2983 15.7184V23.3698C18.2983 23.916 17.8547 24.3593 17.3081 24.3593ZM10.6424 22.3802H16.318V16.708H10.6424V22.3802Z" fill="#0A71FE"/>
<path id="Vector_2" d="M17.3081 38.2134H9.65226C9.1057 38.2134 8.66211 37.77 8.66211 37.2238V29.5724C8.66211 29.0262 9.1057 28.5828 9.65226 28.5828H17.3081C17.8547 28.5828 18.2983 29.0262 18.2983 29.5724V37.2238C18.2983 37.77 17.8547 38.2134 17.3081 38.2134ZM10.6424 36.2342H16.318V30.562H10.6424V36.2342Z" fill="#0A71FE"/>
<path id="Vector_3" d="M17.3081 52.0674H9.65226C9.1057 52.0674 8.66211 51.6241 8.66211 51.0778V43.4264C8.66211 42.8802 9.1057 42.4369 9.65226 42.4369H17.3081C17.8547 42.4369 18.2983 42.8802 18.2983 43.4264V51.0778C18.2983 51.6241 17.8547 52.0674 17.3081 52.0674ZM10.6424 50.0883H16.318V44.416H10.6424V50.0883Z" fill="#0A71FE"/>
<path id="Vector_4" d="M17.3081 65.9214H9.65226C9.1057 65.9214 8.66211 65.4781 8.66211 64.9318V57.2805C8.66211 56.7342 9.1057 56.2909 9.65226 56.2909H17.3081C17.8547 56.2909 18.2983 56.7342 18.2983 57.2805V64.9318C18.2983 65.4781 17.8547 65.9214 17.3081 65.9214ZM10.6424 63.9423H16.318V58.27H10.6424V63.9423Z" fill="#0A71FE"/>
<path id="Vector_5" d="M56.4906 53.8368H55.7499C57.8015 52.7601 59.2076 50.6068 59.2076 48.1329C59.2076 44.5823 56.3163 41.6927 52.7636 41.6927C49.211 41.6927 46.3197 44.5823 46.3197 48.1329C46.3197 50.6068 47.7257 52.7561 49.7773 53.8368H49.2149C46.5059 53.8368 44.2998 56.0415 44.2998 58.749V67.0693C44.2998 67.6156 44.7434 68.0589 45.29 68.0589C45.8365 68.0589 46.2801 67.6156 46.2801 67.0693V58.749C46.2801 57.1301 47.595 55.8159 49.2149 55.8159H56.4906C58.1105 55.8159 59.4254 57.1301 59.4254 58.749V67.0693C59.4254 67.6156 59.869 68.0589 60.4155 68.0589C60.9621 68.0589 61.4057 67.6156 61.4057 67.0693V58.749C61.4057 56.0415 59.1996 53.8368 56.4906 53.8368ZM48.3 48.1329C48.3 45.6708 50.3041 43.6719 52.7636 43.6719C55.2232 43.6719 57.2273 45.6748 57.2273 48.1329C57.2273 50.591 55.2232 52.5939 52.7636 52.5939C50.3041 52.5939 48.3 50.591 48.3 48.1329Z" fill="#0A71FE"/>
<g id="Group">
<path id="Vector_6" d="M52.8386 71.9776C52.292 71.9776 51.8484 72.4209 51.8484 72.9672V73.8103H1.98031V6.17494H11.4303C11.9769 6.17494 12.4205 5.73161 12.4205 5.18536C12.4205 4.63912 11.9769 4.19579 11.4303 4.19579H0.990154C0.443589 4.19579 0 4.63912 0 5.18536V74.7999C0 75.3461 0.443589 75.7894 0.990154 75.7894H52.8386C53.3851 75.7894 53.8287 75.3461 53.8287 74.7999V72.9672C53.8287 72.4209 53.3851 71.9776 52.8386 71.9776Z" fill="#2D3133"/>
<path id="Vector_7" d="M42.3232 6.17494H51.7732V28.9153C51.7732 29.4616 52.2168 29.9049 52.7633 29.9049C53.3099 29.9049 53.7535 29.4616 53.7535 28.9153V5.18536C53.7535 4.63912 53.3099 4.19579 52.7633 4.19579H42.3232C41.7766 4.19579 41.333 4.63912 41.333 5.18536C41.333 5.73161 41.7766 6.17494 42.3232 6.17494Z" fill="#2D3133"/>
<path id="Vector_8" d="M17.3709 10.3707H36.3818C38.0215 10.3707 39.3523 9.04075 39.3523 7.40201V2.96872C39.3523 1.32999 38.0215 0 36.3818 0H17.3709C15.7312 0 14.4004 1.32999 14.4004 2.96872V7.40201C14.4004 9.04075 15.7312 10.3707 17.3709 10.3707ZM16.3807 2.96872C16.3807 2.42248 16.8243 1.97915 17.3709 1.97915H36.3818C36.9284 1.97915 37.372 2.42248 37.372 2.96872V7.40201C37.372 7.94826 36.9284 8.39159 36.3818 8.39159H17.3709C16.8243 8.39159 16.3807 7.94826 16.3807 7.40201V2.96872Z" fill="#2D3133"/>
<path id="Vector_9" d="M45.0958 19.5421C45.0958 18.9958 44.6523 18.5525 44.1057 18.5525H23.3798C22.8332 18.5525 22.3896 18.9958 22.3896 19.5421C22.3896 20.0883 22.8332 20.5317 23.3798 20.5317H44.1057C44.6523 20.5317 45.0958 20.0883 45.0958 19.5421Z" fill="#2D3133"/>
<path id="Vector_10" d="M35.1191 33.3961C35.1191 32.8499 34.6755 32.4066 34.1289 32.4066H23.3798C22.8332 32.4066 22.3896 32.8499 22.3896 33.3961C22.3896 33.9424 22.8332 34.3857 23.3798 34.3857H34.1289C34.6755 34.3857 35.1191 33.9424 35.1191 33.3961Z" fill="#2D3133"/>
<path id="Vector_11" d="M23.3798 48.2397H30.1683C30.7149 48.2397 31.1584 47.7964 31.1584 47.2502C31.1584 46.7039 30.7149 46.2606 30.1683 46.2606H23.3798C22.8332 46.2606 22.3896 46.7039 22.3896 47.2502C22.3896 47.7964 22.8332 48.2397 23.3798 48.2397Z" fill="#2D3133"/>
<path id="Vector_12" d="M23.3798 62.0938H33.1586C33.7051 62.0938 34.1487 61.6504 34.1487 61.1042C34.1487 60.5579 33.7051 60.1146 33.1586 60.1146H23.3798C22.8332 60.1146 22.3896 60.5579 22.3896 61.1042C22.3896 61.6504 22.8332 62.0938 23.3798 62.0938Z" fill="#2D3133"/>
<path id="Vector_13" d="M52.763 31.5555C42.1565 31.5555 33.5303 40.1767 33.5303 50.777C33.5303 61.3773 42.1565 69.9985 52.763 69.9985C63.3695 69.9985 71.9957 61.3773 71.9957 50.777C71.9957 40.1767 63.3695 31.5555 52.763 31.5555ZM52.763 68.0193C43.2496 68.0193 35.5106 60.2848 35.5106 50.777C35.5106 41.2692 43.2496 33.5347 52.763 33.5347C62.2764 33.5347 70.0154 41.2692 70.0154 50.777C70.0154 60.2848 62.2764 68.0193 52.763 68.0193Z" fill="#2D3133"/>
</g>
</g>
<defs>
<clipPath id="clip0_285_2765">
<rect width="72" height="75.7895" fill="white"/>
</clipPath>
</defs>
</svg>
