<svg width="70" height="47" viewBox="0 0 70 47" fill="none" xmlns="http://www.w3.org/2000/svg">
<g id="Layer_1" clip-path="url(#clip0_311_7268)">
<g id="Group">
<path id="Vector" d="M5.97481 36.8841C6.40995 36.8841 6.7631 36.5373 6.7631 36.11V2.32229C6.7631 1.89499 7.11625 1.54819 7.55139 1.54819H62.4509C62.8861 1.54819 63.2392 1.89499 63.2392 2.32229V36.11C63.2392 36.5373 63.5924 36.8841 64.0275 36.8841C64.4627 36.8841 64.8158 36.5373 64.8158 36.11V2.32229C64.8158 1.04038 63.7563 0 62.4509 0H7.55139C6.24598 0 5.18652 1.04038 5.18652 2.32229V36.11C5.18652 36.5373 5.53968 36.8841 5.97481 36.8841Z" fill="#2D3133"/>
<path id="Vector_2" d="M10.8371 5.45581C10.402 5.45581 10.0488 5.80261 10.0488 6.22991V36.11C10.0488 36.5373 10.402 36.8841 10.8371 36.8841H59.1623C59.5975 36.8841 59.9506 36.5373 59.9506 36.11V6.22991C59.9506 5.80261 59.5975 5.45581 59.1623 5.45581H10.8371ZM11.6254 7.004H24.752V35.3359H11.6254V7.004ZM58.3741 35.3359H26.3286V7.004H58.3741V35.3359Z" fill="#2D3133"/>
<path id="Vector_3" d="M67.6351 39.4789H2.36486C1.05946 39.4789 0 40.5193 0 41.8012V44.6777C0 45.9596 1.05946 47 2.36486 47H67.6351C68.9405 47 70 45.9596 70 44.6777V41.8012C70 40.5193 68.9405 39.4789 67.6351 39.4789ZM68.4234 44.6777C68.4234 45.105 68.0703 45.4518 67.6351 45.4518H2.36486C1.92973 45.4518 1.57658 45.105 1.57658 44.6777V41.8012C1.57658 41.3739 1.92973 41.0271 2.36486 41.0271H67.6351C68.0703 41.0271 68.4234 41.3739 68.4234 41.8012V44.6777Z" fill="#2D3133"/>
</g>
<path id="Vector_4" d="M41.7351 43.9098H28.2649C27.8297 43.9098 27.4766 43.563 27.4766 43.1357C27.4766 42.7084 27.8297 42.3616 28.2649 42.3616H41.7351C42.1703 42.3616 42.5234 42.7084 42.5234 43.1357C42.5234 43.563 42.1703 43.9098 41.7351 43.9098Z" fill="#2D3133"/>
<path id="Vector_5" d="M39.2788 10.9024C39.263 10.8838 39.2536 10.8652 39.2346 10.8497C39.2252 10.8404 39.2157 10.8373 39.2094 10.828C38.2382 9.85888 36.8887 9.25818 35.3972 9.25818C32.4427 9.25818 30.04 11.6176 30.04 14.5189C30.04 17.4202 32.4427 19.7797 35.3972 19.7797C38.3518 19.7797 40.7545 17.4202 40.7545 14.5189C40.7545 13.1163 40.19 11.8468 39.2788 10.9024ZM31.6166 14.5189C31.6166 12.4722 33.313 10.8064 35.3972 10.8064C36.1729 10.8064 36.895 11.0386 37.4941 11.4318L34.8454 13.9647C34.6941 14.1102 34.6058 14.3115 34.6058 14.5189V18.1479C32.8968 17.7918 31.6135 16.2994 31.6135 14.5189H31.6166ZM36.1855 18.1479V14.8441L38.5914 12.5403C38.9603 13.1132 39.1779 13.7882 39.1779 14.5158C39.1779 16.2963 37.8914 17.7887 36.1855 18.1448V18.1479Z" fill="#0A71FE"/>
<path id="Vector_6" d="M47.1171 11.7198H44.3234C43.8883 11.7198 43.5352 11.373 43.5352 10.9457C43.5352 10.5184 43.8883 10.1716 44.3234 10.1716H47.1171C47.5523 10.1716 47.9054 10.5184 47.9054 10.9457C47.9054 11.373 47.5523 11.7198 47.1171 11.7198Z" fill="#0A71FE"/>
<path id="Vector_7" d="M52.9978 14.4074H44.3234C43.8883 14.4074 43.5352 14.0606 43.5352 13.6333C43.5352 13.206 43.8883 12.8593 44.3234 12.8593H52.9978C53.4329 12.8593 53.7861 13.206 53.7861 13.6333C53.7861 14.0606 53.4329 14.4074 52.9978 14.4074Z" fill="#0A71FE"/>
<path id="Vector_8" d="M47.1171 17.092H44.3234C43.8883 17.092 43.5352 16.7452 43.5352 16.3179C43.5352 15.8906 43.8883 15.5438 44.3234 15.5438H47.1171C47.5523 15.5438 47.9054 15.8906 47.9054 16.3179C47.9054 16.7452 47.5523 17.092 47.1171 17.092Z" fill="#0A71FE"/>
<path id="Vector_9" d="M52.9978 19.7796H44.3234C43.8883 19.7796 43.5352 19.4328 43.5352 19.0055C43.5352 18.5782 43.8883 18.2314 44.3234 18.2314H52.9978C53.4329 18.2314 53.7861 18.5782 53.7861 19.0055C53.7861 19.4328 53.4329 19.7796 52.9978 19.7796Z" fill="#0A71FE"/>
<path id="Vector_10" d="M30.3928 33.3574C29.9576 33.3574 29.6045 33.0106 29.6045 32.5833V23.1238C29.6045 22.6965 29.9576 22.3497 30.3928 22.3497C30.8279 22.3497 31.1811 22.6965 31.1811 23.1238V32.5833C31.1811 33.0106 30.8279 33.3574 30.3928 33.3574Z" fill="#2D3133"/>
<path id="Vector_11" d="M36.3147 33.3574C35.8795 33.3574 35.5264 33.0106 35.5264 32.5833V23.1238C35.5264 22.6965 35.8795 22.3497 36.3147 22.3497C36.7498 22.3497 37.1029 22.6965 37.1029 23.1238V32.5833C37.1029 33.0106 36.7498 33.3574 36.3147 33.3574Z" fill="#2D3133"/>
<path id="Vector_12" d="M42.2365 33.3574C41.8014 33.3574 41.4482 33.0106 41.4482 32.5833V23.1238C41.4482 22.6965 41.8014 22.3497 42.2365 22.3497C42.6717 22.3497 43.0248 22.6965 43.0248 23.1238V32.5833C43.0248 33.0106 42.6717 33.3574 42.2365 33.3574Z" fill="#2D3133"/>
<path id="Vector_13" d="M48.1545 33.3574C47.7194 33.3574 47.3662 33.0106 47.3662 32.5833V23.1238C47.3662 22.6965 47.7194 22.3497 48.1545 22.3497C48.5896 22.3497 48.9428 22.6965 48.9428 23.1238V32.5833C48.9428 33.0106 48.5896 33.3574 48.1545 33.3574Z" fill="#2D3133"/>
<path id="Vector_14" d="M54.0764 33.3574C53.6412 33.3574 53.2881 33.0106 53.2881 32.5833V23.1238C53.2881 22.6965 53.6412 22.3497 54.0764 22.3497C54.5115 22.3497 54.8647 22.6965 54.8647 23.1238V32.5833C54.8647 33.0106 54.5115 33.3574 54.0764 33.3574Z" fill="#2D3133"/>
<path id="Vector_15" d="M42.2338 31.515C42.1108 31.515 41.9878 31.4871 41.8712 31.4283L35.918 28.4031L30.5198 29.2856C30.0878 29.3568 29.6842 29.0719 29.6117 28.6477C29.5392 28.2266 29.8293 27.8272 30.2612 27.756L35.918 26.8302C36.0851 26.8023 36.2585 26.8302 36.4099 26.9076L42.0603 29.781L47.5721 23.9258C47.7455 23.7431 47.9977 23.6533 48.25 23.6842L54.1716 24.4243C54.6036 24.4769 54.9094 24.8671 54.8527 25.2913C54.7991 25.7155 54.4049 26.0158 53.9698 25.9601L48.4518 25.2696L42.8076 31.2642C42.6531 31.4252 42.4419 31.5119 42.2275 31.5119L42.2338 31.515Z" fill="#0A71FE"/>
<path id="Vector_16" d="M19.6283 18.9312H14.0315C13.5963 18.9312 13.2432 18.5845 13.2432 18.1572C13.2432 17.7299 13.5963 17.3831 14.0315 17.3831H19.6283C20.0634 17.3831 20.4166 17.7299 20.4166 18.1572C20.4166 18.5845 20.0634 18.9312 19.6283 18.9312Z" fill="#2D3133"/>
<path id="Vector_17" d="M19.6283 11.3452H14.0315C13.5963 11.3452 13.2432 10.9984 13.2432 10.5711C13.2432 10.1438 13.5963 9.797 14.0315 9.797H19.6283C20.0634 9.797 20.4166 10.1438 20.4166 10.5711C20.4166 10.9984 20.0634 11.3452 19.6283 11.3452Z" fill="#0A71FE"/>
<path id="Vector_18" d="M19.6283 23.4365H14.0315C13.5963 23.4365 13.2432 23.0897 13.2432 22.6624C13.2432 22.2351 13.5963 21.8883 14.0315 21.8883H19.6283C20.0634 21.8883 20.4166 22.2351 20.4166 22.6624C20.4166 23.0897 20.0634 23.4365 19.6283 23.4365Z" fill="#2D3133"/>
<path id="Vector_19" d="M19.6283 27.9387H14.0315C13.5963 27.9387 13.2432 27.5919 13.2432 27.1646C13.2432 26.7373 13.5963 26.3905 14.0315 26.3905H19.6283C20.0634 26.3905 20.4166 26.7373 20.4166 27.1646C20.4166 27.5919 20.0634 27.9387 19.6283 27.9387Z" fill="#2D3133"/>
<path id="Vector_20" d="M19.6283 32.4439H14.0315C13.5963 32.4439 13.2432 32.0971 13.2432 31.6698C13.2432 31.2425 13.5963 30.8958 14.0315 30.8958H19.6283C20.0634 30.8958 20.4166 31.2425 20.4166 31.6698C20.4166 32.0971 20.0634 32.4439 19.6283 32.4439Z" fill="#2D3133"/>
</g>
<defs>
<clipPath id="clip0_311_7268">
<rect width="70" height="47" fill="white"/>
</clipPath>
</defs>
</svg>
