<svg width="371" height="247" viewBox="0 0 371 247" fill="none" xmlns="http://www.w3.org/2000/svg">
<path d="M241.812 141.968C252.022 144.704 262.518 138.644 265.253 128.434C267.989 118.223 261.93 107.728 251.719 104.992C241.509 102.256 231.014 108.316 228.278 118.526C225.542 128.737 231.601 139.232 241.812 141.968Z" stroke="url(#paint0_linear_285_2244)" stroke-width="3.70207"/>
<path d="M245.547 128.511C248.231 129.23 250.989 127.637 251.708 124.954C252.427 122.27 250.835 119.512 248.151 118.793C245.467 118.074 242.709 119.666 241.99 122.35C241.271 125.033 242.864 127.792 245.547 128.511Z" stroke="url(#paint1_linear_285_2244)" stroke-width="3.70207"/>
<path d="M237.127 160.36C257.483 165.814 278.407 153.734 283.861 133.378C289.316 113.022 277.235 92.0982 256.879 86.6439C236.523 81.1895 215.6 93.2696 210.145 113.626C204.691 133.982 216.771 154.905 237.127 160.36Z" stroke="url(#paint2_linear_285_2244)" stroke-width="3.70207"/>
<path d="M232.856 176.244C261.974 184.046 291.903 166.766 299.706 137.648C307.508 108.53 290.228 78.5999 261.11 70.7977C231.992 62.9956 202.062 80.2755 194.26 109.394C186.457 138.512 203.737 168.441 232.856 176.244Z" stroke="url(#paint3_linear_285_2244)" stroke-width="3.70207"/>
<path d="M228.724 191.291C266.143 201.318 304.605 179.112 314.631 141.693C324.658 104.274 302.452 65.8124 265.033 55.7861C227.614 45.7598 189.152 67.9657 179.126 105.384C169.1 142.803 191.306 181.265 228.724 191.291Z" stroke="url(#paint4_linear_285_2244)" stroke-width="3.70207"/>
<path d="M224.736 205.503C269.994 217.63 316.514 190.772 328.641 145.513C340.768 100.255 313.91 53.7351 268.652 41.6082C223.393 29.4812 176.873 56.3395 164.746 101.598C152.619 146.856 179.478 193.376 224.736 205.503Z" stroke="url(#paint5_linear_285_2244)" stroke-width="3.70207"/>
<path d="M224.736 205.503C269.994 217.63 316.514 190.772 328.641 145.513C340.768 100.255 313.91 53.7351 268.652 41.6082C223.393 29.4812 176.873 56.3395 164.746 101.598C152.619 146.856 179.478 193.376 224.736 205.503Z" stroke="url(#paint6_linear_285_2244)" stroke-opacity="0.4" stroke-width="3.70207"/>
<path d="M220.57 220.384C274.089 234.724 329.099 202.964 343.439 149.445C357.78 95.9267 326.019 40.9162 272.501 26.576C218.982 12.2357 163.972 43.996 149.631 97.5146C135.291 151.033 167.051 206.044 220.57 220.384Z" stroke="url(#paint7_linear_285_2244)" stroke-opacity="0.2" stroke-width="3.70207"/>
<path d="M246.187 125.311C247.21 125.311 248.039 124.482 248.039 123.46C248.039 122.438 247.21 121.609 246.187 121.609V125.311ZM246.187 121.609H94.5707V125.311H246.187V121.609ZM82.228 125.776L75.5161 130.892L77.7601 133.836L84.472 128.721L82.228 125.776ZM65.4174 134.302H51.5499V138.004H65.4174V134.302ZM41.4512 130.892L34.7396 125.776L32.4955 128.721L39.2071 133.836L41.4512 130.892ZM22.3968 121.609H0.792969V125.311H22.3968V121.609ZM34.7396 125.776C31.1927 123.073 26.8565 121.609 22.3968 121.609V125.311C26.0457 125.311 29.5935 126.509 32.4955 128.721L34.7396 125.776ZM51.5499 134.302C47.9011 134.302 44.3532 133.104 41.4512 130.892L39.2071 133.836C42.7539 136.54 47.0902 138.004 51.5499 138.004V134.302ZM94.5707 121.609C90.1107 121.609 85.7746 123.073 82.228 125.776L84.472 128.721C87.3739 126.509 90.9215 125.311 94.5707 125.311V121.609ZM75.5161 130.892C72.6142 133.104 69.0661 134.302 65.4174 134.302V138.004C69.8768 138.004 74.2135 136.54 77.7601 133.836L75.5161 130.892Z" fill="url(#paint8_linear_285_2244)"/>
<path d="M92.8154 136.153H216.042" stroke="url(#paint9_linear_285_2244)" stroke-width="3.70207"/>
<path d="M243.014 123.46H371" stroke="url(#paint10_linear_285_2244)" stroke-opacity="0.5" stroke-width="3.70207"/>
<path d="M240.899 112.883H325.518" stroke="url(#paint11_linear_285_2244)" stroke-opacity="0.2" stroke-width="3.70207"/>
<path d="M243.014 136.153H294.843" stroke="url(#paint12_linear_285_2244)" stroke-opacity="0.2" stroke-width="3.70207"/>
<path d="M0.792969 102.305H92.8159" stroke="url(#paint13_linear_285_2244)" stroke-opacity="0.4" stroke-width="3.70207"/>
<path d="M0 112.882H83.2474C88.342 112.882 93.2118 110.782 96.7087 107.078L117.697 84.8398C121.194 81.135 126.064 79.0349 131.159 79.0349H146.678C151.772 79.0349 156.642 81.135 160.139 84.8398L181.128 107.078C184.625 110.782 189.494 112.882 194.589 112.882H233.495" stroke="url(#paint14_linear_285_2244)" stroke-width="3.70207"/>
<defs>
<linearGradient id="paint0_linear_285_2244" x1="264.562" y1="124.553" x2="225.691" y2="123.233" gradientUnits="userSpaceOnUse">
<stop stop-color="#2D3133"/>
<stop offset="1" stop-color="#2D3133" stop-opacity="0.2"/>
</linearGradient>
<linearGradient id="paint1_linear_285_2244" x1="250.121" y1="123.849" x2="242.973" y2="123.606" gradientUnits="userSpaceOnUse">
<stop stop-color="#2D3133"/>
<stop offset="1" stop-color="#2D3133"/>
</linearGradient>
<linearGradient id="paint2_linear_285_2244" x1="284.374" y1="125.756" x2="202.746" y2="122.984" gradientUnits="userSpaceOnUse">
<stop stop-color="#2D3133"/>
<stop offset="1" stop-color="#2D3133" stop-opacity="0.2"/>
</linearGradient>
<linearGradient id="paint3_linear_285_2244" x1="301.26" y1="126.794" x2="182.704" y2="122.769" gradientUnits="userSpaceOnUse">
<stop stop-color="#2D3133"/>
<stop offset="1" stop-color="#2D3133" stop-opacity="0.2"/>
</linearGradient>
<linearGradient id="paint4_linear_285_2244" x1="317.172" y1="127.778" x2="163.633" y2="122.565" gradientUnits="userSpaceOnUse">
<stop stop-color="#2D3133"/>
<stop offset="1" stop-color="#2D3133" stop-opacity="0.2"/>
</linearGradient>
<linearGradient id="paint5_linear_285_2244" x1="332.113" y1="128.708" x2="145.534" y2="122.372" gradientUnits="userSpaceOnUse">
<stop stop-color="#2D3133" stop-opacity="0.2"/>
<stop offset="1" stop-color="white" stop-opacity="0"/>
</linearGradient>
<linearGradient id="paint6_linear_285_2244" x1="332.113" y1="128.708" x2="256.373" y2="128.271" gradientUnits="userSpaceOnUse">
<stop stop-color="#2D3133"/>
<stop offset="1" stop-color="#2D3133" stop-opacity="0.2"/>
</linearGradient>
<linearGradient id="paint7_linear_285_2244" x1="347.893" y1="129.593" x2="126.501" y2="122.076" gradientUnits="userSpaceOnUse">
<stop stop-color="#2D3133"/>
<stop offset="1" stop-color="#2D3133" stop-opacity="0.2"/>
</linearGradient>
<linearGradient id="paint8_linear_285_2244" x1="241.957" y1="123.46" x2="0.792969" y2="123.46" gradientUnits="userSpaceOnUse">
<stop stop-color="#2D3133"/>
<stop offset="1" stop-color="#2D3133" stop-opacity="0.2"/>
</linearGradient>
<linearGradient id="paint9_linear_285_2244" x1="-nan" y1="-nan" x2="-nan" y2="-nan" gradientUnits="userSpaceOnUse">
<stop stop-color="white" stop-opacity="0"/>
<stop offset="0.458333" stop-color="white"/>
<stop offset="1" stop-color="white" stop-opacity="0"/>
</linearGradient>
<linearGradient id="paint10_linear_285_2244" x1="-nan" y1="-nan" x2="-nan" y2="-nan" gradientUnits="userSpaceOnUse">
<stop stop-color="white" stop-opacity="0"/>
<stop offset="0.458333" stop-color="white"/>
<stop offset="1" stop-color="white" stop-opacity="0"/>
</linearGradient>
<linearGradient id="paint11_linear_285_2244" x1="-nan" y1="-nan" x2="-nan" y2="-nan" gradientUnits="userSpaceOnUse">
<stop stop-color="white" stop-opacity="0"/>
<stop offset="0.458333" stop-color="white"/>
<stop offset="1" stop-color="white" stop-opacity="0"/>
</linearGradient>
<linearGradient id="paint12_linear_285_2244" x1="-nan" y1="-nan" x2="-nan" y2="-nan" gradientUnits="userSpaceOnUse">
<stop stop-color="white" stop-opacity="0"/>
<stop offset="0.458333" stop-color="white"/>
<stop offset="1" stop-color="white" stop-opacity="0"/>
</linearGradient>
<linearGradient id="paint13_linear_285_2244" x1="-nan" y1="-nan" x2="-nan" y2="-nan" gradientUnits="userSpaceOnUse">
<stop stop-color="white" stop-opacity="0"/>
<stop offset="0.458333" stop-color="white"/>
<stop offset="1" stop-color="white" stop-opacity="0"/>
</linearGradient>
<linearGradient id="paint14_linear_285_2244" x1="0.264434" y1="113.088" x2="233.495" y2="113.088" gradientUnits="userSpaceOnUse">
<stop stop-color="#2D3133"/>
<stop offset="0.247312" stop-color="#2D3133" stop-opacity="0.2"/>
<stop offset="0.814874" stop-color="#2D3133"/>
<stop offset="1" stop-color="white" stop-opacity="0"/>
</linearGradient>
</defs>
</svg>
