<svg width="23" height="28" viewBox="0 0 23 28" fill="none" xmlns="http://www.w3.org/2000/svg">
<path id="Language" d="M23 18.2525L21.4178 16.6973C20.4387 17.8228 19.2334 18.737 17.8777 19.3826C16.5219 20.0283 15.0449 20.3913 13.5396 20.449C12.0342 20.5067 10.533 20.2577 9.13022 19.7178C7.72743 19.1779 6.45339 18.3587 5.38814 17.3116C4.32288 16.2645 3.48943 15.0122 2.94014 13.6333C2.39085 12.2544 2.13759 10.7788 2.19628 9.2991C2.25496 7.81941 2.62432 6.36764 3.28115 5.03499C3.93797 3.70233 4.86808 2.5176 6.01303 1.5552L4.43086 0C2.50218 1.67883 1.11781 3.87767 0.449739 6.32333C-0.218332 8.769 -0.140663 11.3537 0.673098 13.7563C1.48686 16.159 3.00085 18.2737 5.02697 19.8377C7.05309 21.4017 9.50206 22.3461 12.0696 22.5536V25.843H10.9724C10.6814 25.843 10.4023 25.9566 10.1966 26.1589C9.9908 26.3611 9.8752 26.6355 9.8752 26.9215C9.8752 27.2075 9.9908 27.4819 10.1966 27.6841C10.4023 27.8864 10.6814 28 10.9724 28H15.3612C15.6522 28 15.9313 27.8864 16.1371 27.6841C16.3428 27.4819 16.4584 27.2075 16.4584 26.9215C16.4584 26.6355 16.3428 26.3611 16.1371 26.1589C15.9313 25.9566 15.6522 25.843 15.3612 25.843H14.264V22.5493C17.6299 22.2748 20.7586 20.7359 23 18.2525ZM13.1668 17.215C14.6859 17.215 16.1708 16.7722 17.4339 15.9427C18.6969 15.1131 19.6813 13.9341 20.2626 12.5546C20.844 11.1751 20.9961 9.65714 20.6997 8.19268C20.4033 6.72822 19.6719 5.38303 18.5977 4.32721C17.5236 3.2714 16.1551 2.55238 14.6652 2.26108C13.1753 1.96978 11.6311 2.11928 10.2276 2.69069C8.82422 3.26209 7.6247 4.22973 6.78076 5.47124C5.93682 6.71274 5.48637 8.17236 5.48637 9.66551C5.48637 11.6678 6.29556 13.588 7.73592 15.0038C9.17629 16.4196 11.1298 17.215 13.1668 17.215ZM15.3612 6.43001L16.16 5.15307C16.9158 5.6437 17.5363 6.31065 17.966 7.09437L17.5557 8.58701H15.3612V6.43001ZM11.3147 4.60951L13.1668 6.43001V8.58701L14.264 10.744H18.5212C18.3426 11.6122 17.9488 12.4235 17.3745 13.1061C16.8003 13.7887 16.0635 14.3214 15.2296 14.6568L14.264 12.901H10.9724L7.79051 8.58701C7.98224 7.68287 8.40702 6.84228 9.02411 6.14581C9.64121 5.44935 10.4299 4.92034 11.3147 4.60951Z" fill="#2D3133"/>
</svg>
