<svg width="242" height="35" viewBox="0 0 242 35" fill="none" xmlns="http://www.w3.org/2000/svg">
<g id="Group 43">
<g id="Group 40">
<g id="New Tab Tech Lab">
<path d="M175.372 14.2149H173.418L165.756 4.72607V14.2149H163.515V1.03081H165.469L173.112 10.5011V1.03081H175.372V14.2149Z" fill="#2D3133"/>
<path d="M182.597 14.4006C181.141 14.4006 179.941 13.9488 178.996 13.0451C178.064 12.1414 177.598 10.9839 177.598 9.57263C177.598 8.19851 178.07 7.05341 179.015 6.13733C179.96 5.20887 181.154 4.74464 182.597 4.74464C183.925 4.74464 185.023 5.15316 185.891 5.97021C186.773 6.78725 187.213 7.91378 187.213 9.3498C187.213 9.59739 187.207 9.82022 187.194 10.0183H179.666C179.717 10.7734 180.017 11.3862 180.567 11.8566C181.116 12.3147 181.799 12.5437 182.616 12.5437C183.842 12.5437 184.755 12.0733 185.355 11.1324L186.964 12.2466C186.045 13.6826 184.589 14.4006 182.597 14.4006ZM179.762 8.53275H185.087C184.972 7.88902 184.672 7.38766 184.187 7.02865C183.714 6.65727 183.159 6.47158 182.52 6.47158C181.856 6.47158 181.262 6.65108 180.739 7.01008C180.228 7.36909 179.903 7.87664 179.762 8.53275Z" fill="#2D3133"/>
<path d="M197.483 14.2149L195.376 8.21708L193.288 14.2149H191.296L188.078 4.93033H190.3L192.368 11.3367L194.571 4.93033H196.18L198.345 11.3367L200.451 4.93033H202.693L199.475 14.2149H197.483Z" fill="#2D3133"/>
<path d="M210.715 14.2149V3.11055H206.769V1.03081H216.921V3.11055H212.956V14.2149H210.715Z" fill="#2D3133"/>
<path d="M221.068 14.4006C219.676 14.4006 218.534 13.9302 217.64 12.9894C216.746 12.0485 216.299 10.9096 216.299 9.57263C216.299 8.23565 216.746 7.09674 217.64 6.1559C218.534 5.21506 219.676 4.74464 221.068 4.74464C222.243 4.74464 223.175 5.09127 223.865 5.78452V4.93033H225.972V14.2149H223.865V13.3422C223.175 14.0478 222.243 14.4006 221.068 14.4006ZM221.317 12.5437C222.415 12.5437 223.265 12.1104 223.865 11.2439V7.88283C223.252 7.02865 222.403 6.60156 221.317 6.60156C220.487 6.60156 219.804 6.89248 219.268 7.47431C218.732 8.04377 218.463 8.74321 218.463 9.57263C218.463 10.4021 218.732 11.1077 219.268 11.6895C219.804 12.259 220.487 12.5437 221.317 12.5437Z" fill="#2D3133"/>
<path d="M233.732 14.4006C232.557 14.4006 231.625 14.0478 230.935 13.3422V14.2149H228.828V0.659424H230.935V5.78452C231.625 5.09127 232.557 4.74464 233.732 4.74464C235.124 4.74464 236.267 5.21506 237.161 6.1559C238.067 7.09674 238.521 8.23565 238.521 9.57263C238.521 10.9096 238.067 12.0485 237.161 12.9894C236.267 13.9302 235.124 14.4006 233.732 14.4006ZM233.502 12.5437C234.332 12.5437 235.015 12.259 235.552 11.6895C236.088 11.1077 236.356 10.4021 236.356 9.57263C236.356 8.74321 236.088 8.04377 235.552 7.47431C235.015 6.89248 234.332 6.60156 233.502 6.60156C232.404 6.60156 231.548 7.02865 230.935 7.88283V11.2439C231.536 12.1104 232.391 12.5437 233.502 12.5437Z" fill="#2D3133"/>
<path d="M166.159 32.7841V21.6797H162.213V19.6H172.365V21.6797H168.4V32.7841H166.159Z" fill="#2D3133"/>
<path d="M176.742 32.9698C175.286 32.9698 174.086 32.5179 173.141 31.6142C172.209 30.7105 171.743 29.5531 171.743 28.1418C171.743 26.7677 172.215 25.6226 173.16 24.7065C174.105 23.778 175.299 23.3138 176.742 23.3138C178.07 23.3138 179.168 23.7223 180.037 24.5394C180.918 25.3564 181.358 26.483 181.358 27.919C181.358 28.1666 181.352 28.3894 181.339 28.5875H173.812C173.863 29.3426 174.163 29.9554 174.712 30.4258C175.261 30.8839 175.944 31.1129 176.761 31.1129C177.987 31.1129 178.9 30.6425 179.5 29.7016L181.109 30.8158C180.19 32.2518 178.734 32.9698 176.742 32.9698ZM173.907 27.1019H179.232C179.117 26.4582 178.817 25.9568 178.332 25.5978C177.859 25.2264 177.304 25.0408 176.666 25.0408C176.001 25.0408 175.408 25.2203 174.884 25.5793C174.373 25.9383 174.048 26.4458 173.907 27.1019Z" fill="#2D3133"/>
<path d="M187.891 32.9698C186.448 32.9698 185.242 32.5117 184.271 31.5957C183.314 30.6672 182.835 29.5159 182.835 28.1418C182.835 26.7677 183.314 25.6226 184.271 24.7065C185.242 23.778 186.448 23.3138 187.891 23.3138C188.875 23.3138 189.756 23.5428 190.535 24.0009C191.326 24.4589 191.933 25.0841 192.354 25.8764L190.516 26.842C190.273 26.3468 189.922 25.9506 189.462 25.6535C189.002 25.3564 188.479 25.2079 187.891 25.2079C187.049 25.2079 186.353 25.4926 185.804 26.0621C185.254 26.6191 184.98 27.3124 184.98 28.1418C184.98 28.9712 185.254 29.6707 185.804 30.2401C186.353 30.7972 187.049 31.0757 187.891 31.0757C188.479 31.0757 189.002 30.9272 189.462 30.6301C189.922 30.333 190.273 29.9368 190.516 29.4416L192.354 30.4072C191.933 31.1995 191.326 31.8247 190.535 32.2827C189.756 32.7408 188.875 32.9698 187.891 32.9698Z" fill="#2D3133"/>
<path d="M196.387 32.7841H194.28V19.2286H196.387V24.4837C197.038 23.7038 197.977 23.3138 199.202 23.3138C200.339 23.3138 201.246 23.6728 201.922 24.3908C202.612 25.0965 202.957 26.0435 202.957 27.2319V32.7841H200.85V27.5662C200.85 26.811 200.665 26.223 200.294 25.8021C199.937 25.3812 199.419 25.1707 198.743 25.1707C197.619 25.1707 196.834 25.6597 196.387 26.6377V32.7841Z" fill="#2D3133"/>
<path d="M210.41 32.7841V19.6H212.651V30.7044H218.876V32.7841H210.41Z" fill="#2D3133"/>
<path d="M224.548 32.9698C223.156 32.9698 222.013 32.4994 221.119 31.5585C220.225 30.6177 219.778 29.4788 219.778 28.1418C219.778 26.8048 220.225 25.6659 221.119 24.7251C222.013 23.7842 223.156 23.3138 224.548 23.3138C225.722 23.3138 226.654 23.6604 227.344 24.3537V23.4995H229.451V32.7841H227.344V31.9113C226.654 32.617 225.722 32.9698 224.548 32.9698ZM224.797 31.1129C225.895 31.1129 226.744 30.6796 227.344 29.813V26.452C226.731 25.5978 225.882 25.1707 224.797 25.1707C223.966 25.1707 223.283 25.4617 222.747 26.0435C222.211 26.6129 221.943 27.3124 221.943 28.1418C221.943 28.9712 222.211 29.6769 222.747 30.2587C223.283 30.8281 223.966 31.1129 224.797 31.1129Z" fill="#2D3133"/>
<path d="M237.211 32.9698C236.036 32.9698 235.104 32.617 234.415 31.9113V32.7841H232.308V19.2286H234.415V24.3537C235.104 23.6604 236.036 23.3138 237.211 23.3138C238.603 23.3138 239.746 23.7842 240.64 24.7251C241.546 25.6659 242 26.8048 242 28.1418C242 29.4788 241.546 30.6177 240.64 31.5585C239.746 32.4994 238.603 32.9698 237.211 32.9698ZM236.981 31.1129C237.811 31.1129 238.494 30.8281 239.031 30.2587C239.567 29.6769 239.835 28.9712 239.835 28.1418C239.835 27.3124 239.567 26.6129 239.031 26.0435C238.494 25.4617 237.811 25.1707 236.981 25.1707C235.883 25.1707 235.028 25.5978 234.415 26.452V29.813C235.015 30.6796 235.87 31.1129 236.981 31.1129Z" fill="#2D3133"/>
</g>
<g id="Group 39">
<path id="Vector" d="M0.000899725 17.2096C0.000899725 12.2146 0.000899725 7.22052 0.000899725 2.22559C0.000899725 2.08087 -0.00226337 1.93535 0.00327205 1.79063C0.0507185 0.596466 0.642218 0.0144102 1.84736 0.0112468C4.57474 0.00412931 7.30291 0.0254819 10.0303 0.000175125C11.1263 -0.0101058 11.8578 0.431972 12.3734 1.40628C16.7329 9.64206 21.1138 17.866 25.4876 26.0938C25.5682 26.2449 25.6702 26.3888 25.724 26.5486C25.9407 27.1931 26.389 27.394 27.0406 27.3299C27.576 27.2777 27.7705 27.0254 27.5618 26.5217C27.4661 26.2915 27.3427 26.0725 27.228 25.8503C26.9497 25.3125 26.6879 24.7652 26.3859 24.2417C25.8228 23.2674 25.5927 22.2187 25.5935 21.1037C25.5959 14.7121 25.5904 8.32057 25.5959 1.92903C25.5975 0.599629 26.2103 0.0128285 27.5491 0.010456C28.8539 0.00808349 30.1587 0.00729266 31.4626 0.010456C32.7903 0.0144102 33.3929 0.615446 33.3937 1.95117C33.3961 12.1253 33.3961 22.2986 33.3937 32.4727C33.3937 33.8077 32.7904 34.4087 31.4611 34.4103C28.7859 34.4134 26.1107 34.3873 23.4363 34.4221C22.2754 34.4372 21.521 33.9793 20.9746 32.9464C16.5399 24.5572 12.0776 16.1823 7.62317 7.80336C7.26653 7.13194 6.80235 6.92553 6.07246 7.12008C5.78541 7.19679 5.71266 7.41822 5.75853 7.67287C5.78858 7.83737 5.86686 7.99633 5.94436 8.14738C6.38087 9.00306 6.82528 9.85479 7.26337 10.7097C7.61922 11.4033 7.775 12.1498 7.77579 12.9217C7.78291 19.4975 7.78607 26.0741 7.77975 32.6499C7.77895 33.7673 7.15187 34.3921 6.03767 34.4047C4.60162 34.4206 3.16479 34.4213 1.72874 34.4039C0.660405 34.3913 0.0720694 33.8077 0.0135521 32.7471C-0.00226337 32.4577 0.0016905 32.1675 0.0016905 31.878C0.0016905 26.9891 0.0016905 22.0993 0.0016905 17.2104L0.000899725 17.2096Z" fill="#2D3133"/>
<path id="Vector_2" d="M51.8776 7.09872H51.3375C47.9111 7.09872 44.4847 7.09872 41.059 7.09714C40.8353 7.09714 40.6107 7.08607 40.3885 7.06235C39.5234 6.96824 38.9587 6.39646 38.9413 5.52259C38.9153 4.2185 38.916 2.91282 38.9398 1.60873C38.9556 0.703227 39.5344 0.115635 40.4367 0.023898C40.6328 0.00412712 40.8313 0.0080813 41.029 0.0080813C50.6756 0.0080813 60.3215 0.0080813 69.9682 0.0080813C70.1785 0.0080813 70.392 0.00254544 70.6 0.0302247C71.454 0.142524 72.0036 0.666057 72.036 1.54863C72.0851 2.87724 72.0859 4.21138 72.0376 5.53998C72.0044 6.46131 71.4437 6.97298 70.5328 7.06709C70.324 7.08844 70.1121 7.09714 69.9017 7.09714C65.6055 7.09872 61.31 7.09714 57.0137 7.10189C56.7006 7.10189 56.3273 6.99908 56.1652 7.41822C55.9833 7.88877 56.1209 8.57838 56.4657 8.83856C57.1062 9.32335 57.7444 9.81367 58.407 10.2668C59.3014 10.8781 59.6762 11.6911 59.6723 12.7809C59.6486 19.3045 59.6612 25.8281 59.6588 32.3517C59.6588 32.5882 59.6652 32.8302 59.6225 33.0603C59.4738 33.8662 58.9297 34.3731 58.0899 34.3897C56.5487 34.4206 55.0059 34.4237 53.4655 34.3905C52.5134 34.3707 51.952 33.7634 51.8934 32.8033C51.8808 32.5929 51.8792 32.3818 51.8792 32.1714C51.8792 24.0005 51.8792 15.8296 51.8792 7.65864V7.09714L51.8776 7.09872Z" fill="#2D3133"/>
<path id="Vector_3" d="M89.5983 7.09872H89.0582C85.6318 7.09872 82.2054 7.09872 78.7797 7.09714C78.556 7.09714 78.3314 7.08607 78.1092 7.06235C77.2441 6.96824 76.6794 6.39646 76.6621 5.52259C76.636 4.2185 76.6367 2.91282 76.6605 1.60873C76.6763 0.703227 77.2551 0.115635 78.1574 0.023898C78.3535 0.00412712 78.552 0.0080813 78.7497 0.0080813C88.3964 0.0080813 98.0422 0.0080813 107.689 0.0080813C107.899 0.0080813 108.113 0.00254544 108.321 0.0302247C109.175 0.142524 109.724 0.666057 109.757 1.54863C109.806 2.87724 109.807 4.21138 109.758 5.53998C109.724 6.46131 109.164 6.97298 108.253 7.06709C108.045 7.08844 107.833 7.09714 107.622 7.09714C103.326 7.09872 99.0307 7.09714 94.7344 7.10189C94.4213 7.10189 94.048 6.99908 93.8859 7.41822C93.704 7.88877 93.8416 8.57838 94.1864 8.83856C94.8269 9.32335 95.4651 9.81367 96.1277 10.2668C97.0221 10.8781 97.3969 11.6911 97.393 12.7809C97.3693 19.3045 97.3819 25.8281 97.3795 32.3517C97.3795 32.5882 97.3859 32.8302 97.3432 33.0603C97.1945 33.8662 96.6504 34.3731 95.8106 34.3897C94.2694 34.4206 92.7266 34.4237 91.1862 34.3905C90.2341 34.3707 89.6734 33.7634 89.6133 32.8033C89.6015 32.6064 89.5991 32.4079 89.5991 32.211C89.5991 24.0266 89.5991 15.8422 89.5991 7.65864V7.09714L89.5983 7.09872Z" fill="#2D3133"/>
<path id="Vector_4" d="M123.159 27.3212H123.72C130.323 27.3212 136.926 27.3212 143.528 27.3212C145.213 27.3212 145.728 27.8321 145.726 29.5111C145.724 30.6182 145.741 31.7262 145.698 32.8318C145.661 33.7926 145.067 34.3447 144.108 34.4016C143.95 34.4111 143.791 34.4095 143.633 34.4095C136.029 34.4095 128.424 34.4032 120.82 34.4198C119.992 34.4214 119.335 34.1564 118.789 33.5578C117.909 32.5937 117.023 31.6368 116.148 30.6696C115.652 30.1224 115.386 29.4763 115.381 28.7305C115.381 28.5589 115.375 28.3881 115.375 28.2165C115.375 19.5441 115.375 10.871 115.375 2.19872C115.375 0.507914 115.875 0.0088964 117.565 0.0088964C118.764 0.0088964 119.963 0.00810557 121.163 0.0088964C122.581 0.0104781 123.158 0.583835 123.158 1.99627C123.159 10.2471 123.158 18.4979 123.158 26.7487C123.158 26.9179 123.158 27.0871 123.158 27.3212H123.159Z" fill="#2D3133"/>
</g>
</g>
</g>
</svg>
