<svg width="66" height="61" viewBox="0 0 66 61" fill="none" xmlns="http://www.w3.org/2000/svg">
<g id="Layer_1" clip-path="url(#clip0_311_7294)">
<path id="Vector" d="M30.9645 14.5422H24.8946C24.4574 14.5422 24.1025 14.1879 24.1025 13.7514V11.1352C24.1025 10.6987 24.4574 10.3444 24.8946 10.3444H30.9645C31.4017 10.3444 31.7565 10.6987 31.7565 11.1352V13.7514C31.7565 14.1879 31.4017 14.5422 30.9645 14.5422ZM25.6866 12.9605H30.1725V11.9261H25.6866V12.9605Z" fill="#0A71FE"/>
<path id="Vector_2" d="M32.0706 21.024H23.7862C23.349 21.024 22.9941 20.6697 22.9941 20.2331C22.9941 19.7966 23.349 19.4423 23.7862 19.4423H32.0706C32.5078 19.4423 32.8626 19.7966 32.8626 20.2331C32.8626 20.6697 32.5078 21.024 32.0706 21.024Z" fill="#0A71FE"/>
<path id="Vector_3" d="M35.609 23.6686H20.2471C19.8099 23.6686 19.4551 23.3143 19.4551 22.8778C19.4551 22.4412 19.8099 22.0869 20.2471 22.0869H35.609C36.0462 22.0869 36.401 22.4412 36.401 22.8778C36.401 23.3143 36.0462 23.6686 35.609 23.6686Z" fill="#0A71FE"/>
<path id="Vector_4" d="M35.609 29.3374H20.2471C19.8099 29.3374 19.4551 28.9831 19.4551 28.5466C19.4551 28.11 19.8099 27.7557 20.2471 27.7557H35.609C36.0462 27.7557 36.401 28.11 36.401 28.5466C36.401 28.9831 36.0462 29.3374 35.609 29.3374Z" fill="#0A71FE"/>
<path id="Vector_5" d="M35.609 32.039H20.2471C19.8099 32.039 19.4551 31.6847 19.4551 31.2481C19.4551 30.8116 19.8099 30.4573 20.2471 30.4573H35.609C36.0462 30.4573 36.401 30.8116 36.401 31.2481C36.401 31.6847 36.0462 32.039 35.609 32.039Z" fill="#0A71FE"/>
<path id="Vector_6" d="M62.2241 52.7498H51.9248C49.8433 52.7498 48.1484 51.0574 48.1484 48.979V27.9613C48.1484 25.883 49.8433 24.1906 51.9248 24.1906H62.2241C64.3055 24.1906 66.0004 25.883 66.0004 27.9613V48.979C66.0004 51.0574 64.3055 52.7498 62.2241 52.7498ZM51.9248 25.7691C50.7146 25.7691 49.7325 26.7529 49.7325 27.9582V48.9759C49.7325 50.1843 50.7177 51.1649 51.9248 51.1649H62.2241C63.4343 51.1649 64.4164 50.1811 64.4164 48.9759V27.9582C64.4164 26.7497 63.4311 25.7691 62.2241 25.7691H51.9248Z" fill="#0A71FE"/>
<path id="Vector_7" d="M58.7483 49.6054H55.3965C54.9593 49.6054 54.6045 49.2511 54.6045 48.8145C54.6045 48.378 54.9593 48.0237 55.3965 48.0237H58.7483C59.1855 48.0237 59.5403 48.378 59.5403 48.8145C59.5403 49.2511 59.1855 49.6054 58.7483 49.6054Z" fill="#0A71FE"/>
<g id="Group">
<path id="Vector_8" d="M40.8555 34.1236C41.2927 34.1236 41.6475 33.7693 41.6475 33.3328V6.55452C41.6475 6.11797 41.2927 5.76367 40.8555 5.76367H15.001C14.5638 5.76367 14.209 6.11797 14.209 6.55452V33.3328C14.209 33.7693 14.5638 34.1236 15.001 34.1236C15.4382 34.1236 15.793 33.7693 15.793 33.3328V17.617H40.0634V33.3328C40.0634 33.7693 40.4183 34.1236 40.8555 34.1236ZM15.793 16.0353V7.34538H40.0634V16.0353H15.793Z" fill="#2D3133"/>
<path id="Vector_9" d="M41.6947 51.959V48.4856C41.6947 46.4958 40.0727 44.8793 38.0831 44.8793H31.8706V37.654H45.9557C46.3929 37.654 46.7478 37.2997 46.7478 36.8632C46.7478 36.4266 46.3929 36.0723 45.9557 36.0723H1.58403V1.5817H54.2719V22.0015C54.2719 22.4381 54.6267 22.7924 55.0639 22.7924C55.5011 22.7924 55.8559 22.4381 55.8559 22.0015V0.790852C55.8559 0.354302 55.5011 0 55.0639 0H0.792013C0.354822 0 0 0.354302 0 0.790852V36.8632C0 37.2997 0.354822 37.654 0.792013 37.654H23.9853V44.8793H17.7728C15.7801 44.8793 14.1612 46.4989 14.1612 48.4856V51.959C14.1612 52.3955 14.516 52.7498 14.9532 52.7498H40.9059C41.3431 52.7498 41.6979 52.3955 41.6979 51.959H41.6947ZM30.2834 37.6509V45.667C30.2834 46.964 29.2253 48.0205 27.9264 48.0205C26.6275 48.0205 25.5693 46.964 25.5693 45.667V37.6509H30.2866H30.2834ZM40.1107 51.1681H15.7452V48.4856C15.7452 47.3689 16.6544 46.461 17.7728 46.461H24.0645C24.432 48.2546 26.0255 49.6054 27.9264 49.6054C29.8272 49.6054 31.4207 48.2515 31.7882 46.461H38.08C39.1983 46.461 40.1075 47.3689 40.1075 48.4856V51.1681H40.1107Z" fill="#2D3133"/>
<path id="Vector_10" d="M57.6336 53.6451C57.3231 53.3351 56.8226 53.3351 56.5121 53.6451L53.5563 56.5966C53.2458 56.9066 53.2458 57.4064 53.5563 57.7164C53.8668 58.0264 54.3673 58.0264 54.6778 57.7164L56.2808 56.1157V59.4215H28.7188V55.4419C28.7188 55.0054 28.364 54.6511 27.9268 54.6511C27.4896 54.6511 27.1348 55.0054 27.1348 55.4419V60.2123C27.1348 60.6489 27.4896 61.0032 27.9268 61.0032H57.0728C57.51 61.0032 57.8649 60.6489 57.8649 60.2123V56.1157L59.4679 57.7164C59.6231 57.8714 59.8259 57.9473 60.0286 57.9473C60.2314 57.9473 60.4341 57.8714 60.5894 57.7164C60.8998 57.4064 60.8998 56.9066 60.5894 56.5966L57.6336 53.6451Z" fill="#2D3133"/>
<path id="Vector_11" d="M57.0758 32.02C53.7937 32.02 51.123 34.6868 51.123 37.9641C51.123 41.2414 53.7937 43.9081 57.0758 43.9081C60.3579 43.9081 63.0286 41.2414 63.0286 37.9641C63.0286 34.6868 60.3579 32.02 57.0758 32.02ZM57.0758 42.3264C54.6681 42.3264 52.7071 40.3683 52.7071 37.9641C52.7071 35.5599 54.6681 33.6017 57.0758 33.6017C59.4835 33.6017 61.4446 35.5599 61.4446 37.9641C61.4446 40.3683 59.4835 42.3264 57.0758 42.3264Z" fill="#2D3133"/>
</g>
<path id="Vector_12" d="M56.5879 40.0962C56.5879 40.0962 56.5625 40.0962 56.5498 40.0962C56.3249 40.0836 56.119 39.9792 55.9764 39.8083L54.6173 38.1507C54.3417 37.8122 54.3892 37.3156 54.7282 37.0372C55.0672 36.762 55.5646 36.8094 55.8434 37.1479L56.6481 38.1286L58.5204 36.259C58.8308 35.949 59.3314 35.949 59.6419 36.259C59.9523 36.569 59.9523 37.0688 59.6419 37.3788L57.1518 39.8653C57.0029 40.014 56.8001 40.0962 56.591 40.0962H56.5879Z" fill="#0A71FE"/>
</g>
<defs>
<clipPath id="clip0_311_7294">
<rect width="66" height="61" fill="white"/>
</clipPath>
</defs>
</svg>
