<svg width="75" height="67" viewBox="0 0 75 67" fill="none" xmlns="http://www.w3.org/2000/svg">
<g id="Layer_1" clip-path="url(#clip0_285_2786)">
<path id="Vector" d="M56.1656 42.177C56.1066 42.177 56.0511 42.17 55.9921 42.1596C55.5236 42.0624 55.2182 41.6043 55.3153 41.1357C55.593 39.7682 55.7353 38.3591 55.7353 36.9465C55.7353 28.2695 50.2763 20.4013 42.1485 17.3747C41.7008 17.2081 41.4718 16.7084 41.6384 16.2571C41.8049 15.8059 42.3047 15.5803 42.7558 15.7469C51.5569 19.0303 57.4739 27.5476 57.4739 36.9465C57.4739 38.4736 57.3212 40.0008 57.0193 41.4828C56.936 41.8924 56.5751 42.177 56.1691 42.177H56.1656Z" fill="#2D3133" fill-opacity="0.2"/>
<path id="Vector_2" d="M13.3825 41.2954C12.9626 41.2954 12.5948 40.9934 12.5253 40.5665C12.3345 39.376 12.2373 38.1578 12.2373 36.9465C12.2373 27.3012 18.3591 18.7075 27.469 15.563C27.9237 15.4068 28.4165 15.6463 28.5726 16.101C28.7288 16.5556 28.4893 17.0485 28.0347 17.2047C19.6224 20.1097 13.9725 28.0439 13.9725 36.95C13.9725 38.071 14.0628 39.1956 14.2397 40.2958C14.3161 40.7678 13.9933 41.2156 13.5214 41.2919C13.4762 41.2988 13.4277 41.3023 13.3825 41.3023V41.2954Z" fill="#2D3133" fill-opacity="0.2"/>
<path id="Vector_3" d="M34.8534 59.5621C30.5292 59.5621 26.3231 58.3369 22.6965 56.0184C22.2939 55.7616 22.1759 55.2236 22.4327 54.821C22.6895 54.4184 23.2274 54.3004 23.63 54.5572C26.979 56.6953 30.8589 57.8267 34.8534 57.8267C41.4889 57.8267 47.5795 54.7794 51.5635 49.4656C51.8516 49.0838 52.3964 49.004 52.7782 49.2921C53.1599 49.5801 53.2397 50.1251 52.9517 50.5068C48.6345 56.2614 42.0372 59.5621 34.8534 59.5621Z" fill="#2D3133" fill-opacity="0.2"/>
<path id="Vector_4" d="M73.8339 40.4416H52.2582C51.7793 40.4416 51.3906 40.8303 51.3906 41.3093V65.1778C51.3906 65.6568 51.7793 66.0455 52.2582 66.0455C52.7372 66.0455 53.1258 65.6568 53.1258 65.1778V56.9451H73.8339C74.3128 56.9451 74.7015 56.5564 74.7015 56.0774V41.3058C74.7015 40.8268 74.3128 40.4381 73.8339 40.4381V40.4416ZM60.1569 50.25V47.1402H65.9387V50.25H60.1569ZM65.9387 51.9854V55.2132H60.1569V51.9854H65.9387ZM58.4217 45.4048H53.1293V42.177H58.4217V45.4048ZM60.1569 42.177H65.9387V45.4048H60.1569V42.177ZM53.1293 47.1402H58.4217V50.25H53.1293V47.1402ZM67.6739 47.1402H72.9663V50.25H67.6739V47.1402ZM72.9663 45.4048H67.6739V42.177H72.9663V45.4048ZM53.1258 51.9854H58.4182V55.2132H53.1258V51.9854ZM67.6704 55.2132V51.9854H72.9628V55.2132H67.6704Z" fill="#0A71FE"/>
<path id="Vector_5" d="M47.4511 20.5297L41.7805 14.8584C42.7175 13.366 43.2623 11.6028 43.2623 9.71125C43.2623 4.35583 38.9069 0 33.5521 0C28.1972 0 23.8418 4.35583 23.8418 9.71125C23.8418 15.0667 28.1972 19.4225 33.5521 19.4225C35.44 19.4225 37.2064 18.8776 38.6987 17.9405L44.3694 23.6117C44.7928 24.0352 45.3515 24.2504 45.9103 24.2504C46.469 24.2504 47.0278 24.0386 47.4511 23.6117C48.3014 22.7614 48.3014 21.38 47.4511 20.5297ZM25.577 9.71125C25.577 5.31377 29.155 1.73539 33.5521 1.73539C37.9491 1.73539 41.5271 5.31377 41.5271 9.71125C41.5271 14.1087 37.9491 17.6871 33.5521 17.6871C29.155 17.6871 25.577 14.1087 25.577 9.71125ZM46.2226 22.3831C46.0491 22.5566 45.768 22.5566 45.5945 22.3831L40.0938 16.8819C40.3125 16.6806 40.5207 16.4723 40.722 16.2537L46.2226 21.7549C46.3961 21.9284 46.3961 22.2095 46.2226 22.3831Z" fill="#0A71FE"/>
<path id="Vector_6" d="M12.6915 39.5392C6.08034 39.5392 0.701172 44.9189 0.701172 51.5307C0.701172 58.1426 6.08034 63.5223 12.6915 63.5223C19.3027 63.5223 24.6819 58.1426 24.6819 51.5307C24.6819 44.9189 19.3027 39.5392 12.6915 39.5392ZM9.00244 61.0997V56.3968C9.00244 55.5568 9.68612 54.8696 10.5294 54.8696H14.9681C15.808 54.8696 16.4951 55.5534 16.4951 56.3968V61.058C15.3186 61.5301 14.038 61.7904 12.6985 61.7904C11.3589 61.7904 10.1546 61.5439 9.00938 61.0997H9.00244ZM12.6915 52.3776C11.3346 52.3776 10.2344 51.2739 10.2344 49.9203C10.2344 48.5667 11.338 47.463 12.6915 47.463C14.045 47.463 15.1486 48.5667 15.1486 49.9203C15.1486 51.2739 14.045 52.3776 12.6915 52.3776ZM18.2234 60.1626V56.3968C18.2234 54.7308 16.9636 53.3529 15.3499 53.162C16.2869 52.3915 16.8838 51.2253 16.8838 49.9203C16.8838 47.6087 15.0028 45.7276 12.6915 45.7276C10.3802 45.7276 8.49923 47.6087 8.49923 49.9203C8.49923 51.2322 9.10656 52.4054 10.054 53.1759C8.48188 53.4084 7.2707 54.762 7.2707 56.3968V60.232C4.37289 58.4168 2.43986 55.1993 2.43986 51.5342C2.43986 45.8803 7.04165 41.278 12.695 41.278C18.3483 41.278 22.9501 45.8803 22.9501 51.5342C22.9501 55.1542 21.0657 58.3369 18.2269 60.1626H18.2234Z" fill="#0A71FE"/>
<g id="Group">
<path id="Vector_7" d="M26.9931 39.3865L28.2008 39.6988L27.5657 40.7748C27.1874 41.4134 27.2915 42.229 27.819 42.7531L29.0406 43.9748C29.5647 44.4989 30.3802 44.603 31.0222 44.2282L32.0981 43.593L32.4104 44.8043C32.5978 45.5228 33.2468 46.0261 33.9895 46.0261H35.7177C36.4604 46.0261 37.1094 45.5228 37.2968 44.8043L37.6091 43.5965L38.685 44.2317C39.3235 44.61 40.1391 44.5059 40.6631 43.9783L41.8847 42.7566C42.4087 42.2325 42.5128 41.4169 42.138 40.7748L41.5029 39.6988L42.7141 39.3865C43.4325 39.199 43.9357 38.55 43.9357 37.8072V36.0788C43.9357 35.336 43.4325 34.687 42.7141 34.4996L41.5064 34.1872L42.1415 33.1113C42.5198 32.4727 42.4157 31.657 41.8882 31.1329L40.6666 29.9112C40.1425 29.3871 39.327 29.283 38.685 29.6578L37.6091 30.293L37.2968 29.0817C37.1094 28.3632 36.4604 27.86 35.7177 27.86H33.9895C33.2468 27.86 32.5978 28.3632 32.4104 29.0817L32.0981 30.2895L31.0222 29.6544C30.3837 29.2761 29.5681 29.3802 29.0441 29.9077L27.8225 31.1295C27.2985 31.6535 27.1944 32.4692 27.5692 33.1113L28.2043 34.1872L26.9931 34.4996C26.2747 34.687 25.7715 35.336 25.7715 36.0788V37.8072C25.7715 38.55 26.2747 39.199 26.9931 39.3865ZM27.5067 36.1621L29.7521 35.5825C30.0158 35.5131 30.231 35.3256 30.3386 35.0757C30.4427 34.8224 30.4219 34.5378 30.283 34.3018L29.1031 32.3026L30.2102 31.1954L32.2091 32.3755C32.4451 32.5143 32.7297 32.5351 32.983 32.431C33.2364 32.3269 33.4238 32.1117 33.4897 31.8444L34.0693 29.5988H35.6345L36.214 31.8444C36.2834 32.1082 36.4708 32.3234 36.7207 32.431C36.974 32.5351 37.2586 32.5143 37.4946 32.3755L39.4936 31.1954L40.6006 32.3026L39.4207 34.3018C39.2819 34.5378 39.2611 34.8224 39.3652 35.0757C39.4693 35.3291 39.6844 35.5165 39.9517 35.5825L42.197 36.1621V37.7274L39.9517 38.307C39.6879 38.3765 39.4727 38.5639 39.3652 38.8138C39.2611 39.0671 39.2819 39.3517 39.4207 39.5878L40.6006 41.5869L39.4936 42.6941L37.4946 41.514C37.2586 41.3752 36.974 41.3544 36.7207 41.4585C36.4674 41.5626 36.28 41.7778 36.214 42.0451L35.6345 44.2907H34.0693L33.4897 42.0451C33.4203 41.7813 33.2329 41.5661 32.983 41.4585C32.7297 41.3544 32.4451 41.3752 32.2091 41.514L30.2102 42.6941L29.1031 41.5869L30.283 39.5878C30.4219 39.3517 30.4427 39.0671 30.3386 38.8138C30.2345 38.5604 30.0193 38.373 29.7521 38.307L27.5067 37.7274V36.1621Z" fill="#2D3133"/>
<path id="Vector_8" d="M34.853 40.4624C36.793 40.4624 38.372 38.8832 38.372 36.943C38.372 35.0029 36.793 33.4236 34.853 33.4236C32.913 33.4236 31.334 35.0029 31.334 36.943C31.334 38.8832 32.913 40.4624 34.853 40.4624ZM34.853 35.1625C35.8351 35.1625 36.6368 35.9608 36.6368 36.9465C36.6368 37.9322 35.8386 38.7305 34.853 38.7305C33.8674 38.7305 33.0692 37.9322 33.0692 36.9465C33.0692 35.9608 33.8674 35.1625 34.853 35.1625Z" fill="#2D3133"/>
<path id="Vector_9" d="M20.0518 10.7837C10.6469 16.1183 4.80273 26.1419 4.80273 36.9465C4.80273 37.4255 5.19142 37.8142 5.67034 37.8142C6.14926 37.8142 6.53795 37.4255 6.53795 36.9465C6.53795 26.7667 12.0455 17.3227 20.9055 12.297C21.322 12.061 21.4677 11.5299 21.2318 11.1134C20.9958 10.697 20.4648 10.5512 20.0483 10.7872L20.0518 10.7837Z" fill="#2D3133"/>
<path id="Vector_10" d="M47.4964 62.2901C43.5505 64.2616 39.2992 65.2611 34.8536 65.2611C30.408 65.2611 26.5593 64.3518 22.7696 62.5609C22.3358 62.3526 21.8187 62.54 21.6139 62.9739C21.4091 63.4077 21.5931 63.9249 22.0269 64.1297C26.0526 66.0317 30.3663 66.9965 34.8536 66.9965C39.5664 66.9965 44.0815 65.9345 48.2703 63.8416C48.7006 63.6264 48.8741 63.1058 48.659 62.6789C48.4438 62.2485 47.9232 62.075 47.4964 62.2901Z" fill="#2D3133"/>
<path id="Vector_11" d="M47.3156 9.58977C46.8783 9.39194 46.3647 9.58283 46.1669 10.0202C45.9691 10.4575 46.16 10.9711 46.5972 11.169C56.665 15.7643 63.172 25.8816 63.172 36.9465C63.172 37.4255 63.5607 37.8142 64.0396 37.8142C64.5185 37.8142 64.9072 37.4255 64.9072 36.9465C64.9072 25.2048 58.0045 14.4662 47.3191 9.58977H47.3156Z" fill="#2D3133"/>
</g>
</g>
<defs>
<clipPath id="clip0_285_2786">
<rect width="74" height="67" fill="white" transform="translate(0.701172)"/>
</clipPath>
</defs>
</svg>
