<svg width="74" height="50" viewBox="0 0 74 50" fill="none" xmlns="http://www.w3.org/2000/svg">
<g id="Layer_1" clip-path="url(#clip0_311_7233)">
<path id="Vector" d="M8.70422 21.2972H7.15539C6.68041 21.2972 6.29492 20.9142 6.29492 20.4424C6.29492 19.9706 6.68041 19.5876 7.15539 19.5876H8.70422C9.1792 19.5876 9.56469 19.9706 9.56469 20.4424C9.56469 20.9142 9.1792 21.2972 8.70422 21.2972Z" fill="#2D3133"/>
<path id="Vector_2" d="M26.2339 21.2972H23.3117C22.8367 21.2972 22.4513 20.9142 22.4513 20.4424C22.4513 19.9706 22.8367 19.5876 23.3117 19.5876H26.2339C26.7088 19.5876 27.0943 19.9706 27.0943 20.4424C27.0943 20.9142 26.7088 21.2972 26.2339 21.2972ZM20.3896 21.2972H17.4674C16.9925 21.2972 16.607 20.9142 16.607 20.4424C16.607 19.9706 16.9925 19.5876 17.4674 19.5876H20.3896C20.8646 19.5876 21.25 19.9706 21.25 20.4424C21.25 20.9142 20.8646 21.2972 20.3896 21.2972ZM14.5453 21.2972H11.6232C11.1482 21.2972 10.7627 20.9142 10.7627 20.4424C10.7627 19.9706 11.1482 19.5876 11.6232 19.5876H14.5453C15.0203 19.5876 15.4058 19.9706 15.4058 20.4424C15.4058 20.9142 15.0203 21.2972 14.5453 21.2972Z" fill="#2D3133" fill-opacity="0.2"/>
<path id="Vector_3" d="M30.7052 21.2972H29.1564C28.6814 21.2972 28.2959 20.9142 28.2959 20.4424C28.2959 19.9706 28.6814 19.5876 29.1564 19.5876H30.7052C31.1802 19.5876 31.5657 19.9706 31.5657 20.4424C31.5657 20.9142 31.1802 21.2972 30.7052 21.2972Z" fill="#2D3133"/>
<path id="Vector_4" d="M18.9298 9.6143C18.4548 9.6143 18.0693 9.23136 18.0693 8.75954V7.22097C18.0693 6.74914 18.4548 6.36621 18.9298 6.36621C19.4048 6.36621 19.7903 6.74914 19.7903 7.22097V8.75954C19.7903 9.23136 19.4048 9.6143 18.9298 9.6143Z" fill="#2D3133"/>
<path id="Vector_5" d="M18.9298 30.1286C18.4548 30.1286 18.0693 29.7456 18.0693 29.2738V25.8548C18.0693 25.3829 18.4548 25 18.9298 25C19.4048 25 19.7903 25.3829 19.7903 25.8548V29.2738C19.7903 29.7456 19.4048 30.1286 18.9298 30.1286ZM18.9298 23.2905C18.4548 23.2905 18.0693 22.9076 18.0693 22.4357V19.0167C18.0693 18.5449 18.4548 18.1619 18.9298 18.1619C19.4048 18.1619 19.7903 18.5449 19.7903 19.0167V22.4357C19.7903 22.9076 19.4048 23.2905 18.9298 23.2905ZM18.9298 16.4524C18.4548 16.4524 18.0693 16.0695 18.0693 15.5976V12.1786C18.0693 11.7068 18.4548 11.3239 18.9298 11.3239C19.4048 11.3239 19.7903 11.7068 19.7903 12.1786V15.5976C19.7903 16.0695 19.4048 16.4524 18.9298 16.4524Z" fill="#2D3133" fill-opacity="0.2"/>
<path id="Vector_6" d="M18.9298 35.0862C18.4548 35.0862 18.0693 34.7033 18.0693 34.2315V32.6929C18.0693 32.2211 18.4548 31.8381 18.9298 31.8381C19.4048 31.8381 19.7903 32.2211 19.7903 32.6929V34.2315C19.7903 34.7033 19.4048 35.0862 18.9298 35.0862Z" fill="#2D3133"/>
<path id="Vector_7" d="M30.7046 35.0861H7.15539C6.68041 35.0861 6.29492 34.7032 6.29492 34.2314V7.22097C6.29492 6.74914 6.68041 6.36621 7.15539 6.36621H30.7046C31.1796 6.36621 31.5651 6.74914 31.5651 7.22097V34.2314C31.5651 34.7032 31.1796 35.0861 30.7046 35.0861ZM8.01585 33.3766H29.8441V8.07573H8.01585V33.3766Z" fill="#2D3133" fill-opacity="0.2"/>
<path id="Vector_8" d="M45.6051 18.5893H42.1632C41.6882 18.5893 41.3027 18.2063 41.3027 17.7345C41.3027 17.2627 41.6882 16.8798 42.1632 16.8798H45.6051C46.08 16.8798 46.4655 17.2627 46.4655 17.7345C46.4655 18.2063 46.08 18.5893 45.6051 18.5893Z" fill="#0A71FE"/>
<path id="Vector_9" d="M47.1539 22.2648H42.1632C41.6882 22.2648 41.3027 21.8819 41.3027 21.4101C41.3027 20.9382 41.6882 20.5553 42.1632 20.5553H47.1539C47.6289 20.5553 48.0144 20.9382 48.0144 21.4101C48.0144 21.8819 47.6289 22.2648 47.1539 22.2648Z" fill="#0A71FE"/>
<path id="Vector_10" d="M56.0162 18.5893H52.5743C52.0994 18.5893 51.7139 18.2063 51.7139 17.7345C51.7139 17.2627 52.0994 16.8798 52.5743 16.8798H56.0162C56.4912 16.8798 56.8767 17.2627 56.8767 17.7345C56.8767 18.2063 56.4912 18.5893 56.0162 18.5893Z" fill="#0A71FE"/>
<path id="Vector_11" d="M57.565 22.2648H52.5743C52.0994 22.2648 51.7139 21.8819 51.7139 21.4101C51.7139 20.9382 52.0994 20.5553 52.5743 20.5553H57.565C58.04 20.5553 58.4255 20.9382 58.4255 21.4101C58.4255 21.8819 58.04 22.2648 57.565 22.2648Z" fill="#0A71FE"/>
<path id="Vector_12" d="M66.4283 18.5893H62.9864C62.5115 18.5893 62.126 18.2063 62.126 17.7345C62.126 17.2627 62.5115 16.8798 62.9864 16.8798H66.4283C66.9033 16.8798 67.2888 17.2627 67.2888 17.7345C67.2888 18.2063 66.9033 18.5893 66.4283 18.5893Z" fill="#0A71FE"/>
<path id="Vector_13" d="M67.9771 22.2648H62.9864C62.5115 22.2648 62.126 21.8819 62.126 21.4101C62.126 20.9382 62.5115 20.5553 62.9864 20.5553H67.9771C68.4521 20.5553 68.8376 20.9382 68.8376 21.4101C68.8376 21.8819 68.4521 22.2648 67.9771 22.2648Z" fill="#0A71FE"/>
<path id="Vector_14" d="M45.6051 38.7616H42.1632C41.6882 38.7616 41.3027 38.3787 41.3027 37.9069C41.3027 37.4351 41.6882 37.0521 42.1632 37.0521H45.6051C46.08 37.0521 46.4655 37.4351 46.4655 37.9069C46.4655 38.3787 46.08 38.7616 45.6051 38.7616Z" fill="#0A71FE"/>
<path id="Vector_15" d="M47.1539 42.4371H42.1632C41.6882 42.4371 41.3027 42.0541 41.3027 41.5823C41.3027 41.1105 41.6882 40.7275 42.1632 40.7275H47.1539C47.6289 40.7275 48.0144 41.1105 48.0144 41.5823C48.0144 42.0541 47.6289 42.4371 47.1539 42.4371Z" fill="#0A71FE"/>
<path id="Vector_16" d="M56.0162 38.7616H52.5743C52.0994 38.7616 51.7139 38.3787 51.7139 37.9069C51.7139 37.4351 52.0994 37.0521 52.5743 37.0521H56.0162C56.4912 37.0521 56.8767 37.4351 56.8767 37.9069C56.8767 38.3787 56.4912 38.7616 56.0162 38.7616Z" fill="#0A71FE"/>
<path id="Vector_17" d="M57.565 42.4371H52.5743C52.0994 42.4371 51.7139 42.0541 51.7139 41.5823C51.7139 41.1105 52.0994 40.7275 52.5743 40.7275H57.565C58.04 40.7275 58.4255 41.1105 58.4255 41.5823C58.4255 42.0541 58.04 42.4371 57.565 42.4371Z" fill="#0A71FE"/>
<path id="Vector_18" d="M66.4283 38.7616H62.9864C62.5115 38.7616 62.126 38.3787 62.126 37.9069C62.126 37.4351 62.5115 37.0521 62.9864 37.0521H66.4283C66.9033 37.0521 67.2888 37.4351 67.2888 37.9069C67.2888 38.3787 66.9033 38.7616 66.4283 38.7616Z" fill="#0A71FE"/>
<path id="Vector_19" d="M67.9771 42.4371H62.9864C62.5115 42.4371 62.126 42.0541 62.126 41.5823C62.126 41.1105 62.5115 40.7275 62.9864 40.7275H67.9771C68.4521 40.7275 68.8376 41.1105 68.8376 41.5823C68.8376 42.0541 68.4521 42.4371 67.9771 42.4371Z" fill="#0A71FE"/>
<g id="Group">
<path id="Vector_20" d="M73.1395 0H0.860465C0.385488 0 0 0.382932 0 0.854759V49.1452C0 49.6171 0.385488 50 0.860465 50H73.1395C73.6145 50 74 49.6171 74 49.1452V0.854759C74 0.382932 73.6145 0 73.1395 0ZM1.72093 1.70952H36.1395V48.2905H1.72093V1.70952ZM72.2791 48.2905H37.8605V1.70952H72.2791V48.2905Z" fill="#2D3133"/>
<path id="Vector_21" d="M42.1632 14.9138H47.1539C47.6289 14.9138 48.0144 14.5309 48.0144 14.0591V9.10146C48.0144 8.62964 47.6289 8.2467 47.1539 8.2467H42.1632C41.6882 8.2467 41.3027 8.62964 41.3027 9.10146V14.0591C41.3027 14.5309 41.6882 14.9138 42.1632 14.9138ZM43.0237 9.95622H46.2934V13.2043H43.0237V9.95622Z" fill="#2D3133"/>
<path id="Vector_22" d="M52.5743 14.9138H57.565C58.04 14.9138 58.4255 14.5309 58.4255 14.0591V9.10146C58.4255 8.62964 58.04 8.2467 57.565 8.2467H52.5743C52.0994 8.2467 51.7139 8.62964 51.7139 9.10146V14.0591C51.7139 14.5309 52.0994 14.9138 52.5743 14.9138ZM53.4348 9.95622H56.7046V13.2043H53.4348V9.95622Z" fill="#2D3133"/>
<path id="Vector_23" d="M62.9864 14.9138H67.9771C68.4521 14.9138 68.8376 14.5309 68.8376 14.0591V9.10146C68.8376 8.62964 68.4521 8.2467 67.9771 8.2467H62.9864C62.5115 8.2467 62.126 8.62964 62.126 9.10146V14.0591C62.126 14.5309 62.5115 14.9138 62.9864 14.9138ZM63.8469 9.95622H67.1167V13.2043H63.8469V9.95622Z" fill="#2D3133"/>
<path id="Vector_24" d="M42.1632 35.0862H47.1539C47.6289 35.0862 48.0144 34.7033 48.0144 34.2314V29.2738C48.0144 28.802 47.6289 28.4191 47.1539 28.4191H42.1632C41.6882 28.4191 41.3027 28.802 41.3027 29.2738V34.2314C41.3027 34.7033 41.6882 35.0862 42.1632 35.0862ZM43.0237 30.1286H46.2934V33.3767H43.0237V30.1286Z" fill="#2D3133"/>
<path id="Vector_25" d="M52.5743 35.0862H57.565C58.04 35.0862 58.4255 34.7033 58.4255 34.2314V29.2738C58.4255 28.802 58.04 28.4191 57.565 28.4191H52.5743C52.0994 28.4191 51.7139 28.802 51.7139 29.2738V34.2314C51.7139 34.7033 52.0994 35.0862 52.5743 35.0862ZM53.4348 30.1286H56.7046V33.3767H53.4348V30.1286Z" fill="#2D3133"/>
<path id="Vector_26" d="M62.9864 35.0862H67.9771C68.4521 35.0862 68.8376 34.7033 68.8376 34.2314V29.2738C68.8376 28.802 68.4521 28.4191 67.9771 28.4191H62.9864C62.5115 28.4191 62.126 28.802 62.126 29.2738V34.2314C62.126 34.7033 62.5115 35.0862 62.9864 35.0862ZM63.8469 30.1286H67.1167V33.3767H63.8469V30.1286Z" fill="#2D3133"/>
<path id="Vector_27" d="M31.1348 13.2351L19.3602 6.48246C19.0952 6.3286 18.7648 6.3286 18.4998 6.48246L6.72515 13.2351C6.46013 13.3889 6.29492 13.6693 6.29492 13.977V27.4822C6.29492 27.7865 6.46013 28.0703 6.72515 28.2241L18.4998 34.9767C18.634 35.0519 18.782 35.0895 18.93 35.0895C19.078 35.0895 19.226 35.0519 19.3602 34.9767L31.1348 28.2241C31.3999 28.0703 31.5651 27.7899 31.5651 27.4822V13.977C31.5651 13.6727 31.3999 13.3889 31.1348 13.2351ZM18.93 8.20907L28.9837 13.9736L18.93 19.7381L8.87632 13.9736L18.93 8.20907ZM18.93 33.2467L8.01585 26.9864V15.454L18.4998 21.4647C18.634 21.5399 18.782 21.5775 18.93 21.5775C19.078 21.5775 19.226 21.5399 19.3602 21.4647L29.8441 15.454V26.9864L18.93 33.2467Z" fill="#2D3133"/>
</g>
<path id="Vector_28" d="M14.1704 40.16H7.15929C6.68432 40.16 6.29883 39.777 6.29883 39.3052C6.29883 38.8334 6.68432 38.4504 7.15929 38.4504H14.1704C14.6453 38.4504 15.0308 38.8334 15.0308 39.3052C15.0308 39.777 14.6453 40.16 14.1704 40.16Z" fill="#0A71FE"/>
<path id="Vector_29" d="M19.7319 44.1466H7.15539C6.68041 44.1466 6.29492 43.7637 6.29492 43.2919C6.29492 42.8201 6.68041 42.4371 7.15539 42.4371H19.7319C20.2069 42.4371 20.5924 42.8201 20.5924 43.2919C20.5924 43.7637 20.2069 44.1466 19.7319 44.1466Z" fill="#0A71FE"/>
<path id="Vector_30" d="M30.3915 44.1466H24.0929C23.6179 44.1466 23.2324 43.7637 23.2324 43.2919C23.2324 42.8201 23.6179 42.4371 24.0929 42.4371H30.3915C30.8665 42.4371 31.252 42.8201 31.252 43.2919C31.252 43.7637 30.8665 44.1466 30.3915 44.1466Z" fill="#0A71FE"/>
</g>
<defs>
<clipPath id="clip0_311_7233">
<rect width="74" height="50" fill="white"/>
</clipPath>
</defs>
</svg>
