<svg width="77" height="71" viewBox="0 0 77 71" fill="none" xmlns="http://www.w3.org/2000/svg">
<g id="Layer_1" clip-path="url(#clip0_285_2805)">
<path id="Vector" d="M47.6852 68.7075C47.2003 68.7075 46.8067 68.3119 46.8067 67.8244V58.001C46.8067 55.9346 45.134 54.2532 43.0782 54.2532H34.5354C32.4796 54.2532 30.8069 55.9346 30.8069 58.001V67.8244C30.8069 68.3119 30.4133 68.7075 29.9283 68.7075C29.4434 68.7075 29.0498 68.3119 29.0498 67.8244V58.001C29.0498 54.9597 31.5097 52.487 34.5354 52.487H43.0782C46.1039 52.487 48.5637 54.9597 48.5637 58.001V67.8244C48.5637 68.3119 48.1702 68.7075 47.6852 68.7075Z" fill="#0A71FE"/>
<path id="Vector_2" d="M38.6998 52.7837C34.6832 52.7837 31.415 49.4987 31.415 45.4612C31.415 41.4237 34.6832 38.1387 38.6998 38.1387C42.7165 38.1387 45.9846 41.4237 45.9846 45.4612C45.9846 49.4987 42.7165 52.7837 38.6998 52.7837ZM38.6998 39.9084C35.6531 39.9084 33.1721 42.3987 33.1721 45.4647C33.1721 48.5308 35.6496 51.0211 38.6998 51.0211C41.7501 51.0211 44.2275 48.5308 44.2275 45.4647C44.2275 42.3987 41.7501 39.9084 38.6998 39.9084Z" fill="#0A71FE"/>
<path id="Vector_3" d="M68.204 44.9419C67.719 44.9419 67.3254 44.5463 67.3254 44.0589V38.0398C67.3254 36.9624 66.4539 36.0864 65.3821 36.0864H60.1496C59.0778 36.0864 58.2063 36.9624 58.2063 38.0398V44.0589C58.2063 44.5463 57.8127 44.9419 57.3278 44.9419C56.8428 44.9419 56.4492 44.5463 56.4492 44.0589V38.0398C56.4492 35.9875 58.1079 34.3202 60.1496 34.3202H65.3821C67.4238 34.3202 69.0825 35.9875 69.0825 38.0398V44.0589C69.0825 44.5463 68.6889 44.9419 68.204 44.9419Z" fill="#0A71FE"/>
<path id="Vector_4" d="M62.7007 35.1892C60.0545 35.1892 57.9004 33.0238 57.9004 30.3604C57.9004 27.6971 60.0545 25.5353 62.7007 25.5353C65.3468 25.5353 67.5045 27.7006 67.5045 30.3604C67.5045 33.0203 65.3503 35.1892 62.7007 35.1892ZM62.7007 27.3014C61.0209 27.3014 59.6575 28.6755 59.6575 30.3604C59.6575 32.0454 61.0244 33.423 62.7007 33.423C64.3769 33.423 65.7474 32.0489 65.7474 30.3604C65.7474 28.672 64.3804 27.3014 62.7007 27.3014Z" fill="#0A71FE"/>
<path id="Vector_5" d="M20.2049 44.9419C19.72 44.9419 19.3264 44.5463 19.3264 44.0589V38.0398C19.3264 36.9624 18.4549 36.0864 17.3831 36.0864H12.1506C11.0788 36.0864 10.2073 36.9624 10.2073 38.0398V44.0589C10.2073 44.5463 9.81368 44.9419 9.32873 44.9419C8.84378 44.9419 8.4502 44.5463 8.4502 44.0589V38.0398C8.4502 35.9875 10.1089 34.3202 12.1506 34.3202H17.3831C19.4248 34.3202 21.0835 35.9875 21.0835 38.0398V44.0589C21.0835 44.5463 20.6899 44.9419 20.2049 44.9419Z" fill="#0A71FE"/>
<path id="Vector_6" d="M14.7013 35.1892C12.0516 35.1892 9.89746 33.0238 9.89746 30.3604C9.89746 27.6971 12.0516 25.5353 14.7013 25.5353C17.3509 25.5353 19.5016 27.7006 19.5016 30.3604C19.5016 33.0203 17.3474 35.1892 14.7013 35.1892ZM14.7013 27.3014C13.0215 27.3014 11.6545 28.6755 11.6545 30.3604C11.6545 32.0454 13.0215 33.423 14.7013 33.423C16.381 33.423 17.7445 32.0489 17.7445 30.3604C17.7445 28.672 16.3775 27.3014 14.7013 27.3014Z" fill="#0A71FE"/>
<g id="Group">
<path id="Vector_7" d="M60.1181 47.7042C59.6331 47.7042 59.2395 48.0998 59.2395 48.5873C59.2395 59.972 50.0255 69.2338 38.6995 69.2338C27.3734 69.2338 18.1594 59.972 18.1594 48.5873C18.1594 48.0998 17.7658 47.7042 17.2809 47.7042C16.7959 47.7042 16.4023 48.0998 16.4023 48.5873C16.4023 60.947 26.4035 71 38.6995 71C50.9954 71 60.9966 60.947 60.9966 48.5873C60.9966 48.0998 60.603 47.7042 60.1181 47.7042Z" fill="#2D3133"/>
<path id="Vector_8" d="M62.7009 18.2057C54.9838 18.2057 48.7041 24.518 48.7041 32.2785C48.7041 40.0391 54.9838 46.3478 62.7009 46.3478C70.4179 46.3478 76.7011 40.0355 76.7011 32.2785C76.7011 24.5215 70.4214 18.2057 62.7009 18.2057ZM62.7009 44.5816C55.9502 44.5816 50.4612 39.0606 50.4612 32.2785C50.4612 25.4964 55.9537 19.9718 62.7009 19.9718C69.448 19.9718 74.9441 25.4929 74.9441 32.2785C74.9441 39.0641 69.4515 44.5816 62.7009 44.5816Z" fill="#2D3133"/>
<path id="Vector_9" d="M28.6982 32.275C28.6982 24.5144 22.4185 18.2021 14.7014 18.2021C6.98443 18.2021 0.701172 24.518 0.701172 32.275C0.701172 40.032 6.98092 46.3443 14.7014 46.3443C22.422 46.3443 28.6982 40.032 28.6982 32.275ZM14.7014 44.5781C7.95081 44.5781 2.45823 39.0571 2.45823 32.275C2.45823 25.4929 7.95081 19.9683 14.7014 19.9683C21.4521 19.9683 26.9411 25.4894 26.9411 32.275C26.9411 39.0606 21.4486 44.5781 14.7014 44.5781Z" fill="#2D3133"/>
<path id="Vector_10" d="M27.1867 16.3194L29.4919 16.9164L28.2796 18.9793C27.8157 19.7705 27.9422 20.7772 28.5888 21.4272L30.3951 23.2428C31.0417 23.8927 32.0432 24.0199 32.8304 23.5536L34.8826 22.335L35.4765 24.6557C35.7049 25.5459 36.5026 26.1676 37.4163 26.1676H39.9711C40.8847 26.1676 41.6824 25.5459 41.9144 24.6557L42.5083 22.3385L44.5605 23.5572C45.3477 24.0234 46.3492 23.8927 46.9958 23.2463L48.8021 21.4307C49.4487 20.7807 49.5752 19.774 49.1113 18.9828L47.8989 16.9199L50.2077 16.3229C51.0933 16.0933 51.7118 15.2915 51.7118 14.3731V11.8051C51.7118 10.8867 51.0933 10.0848 50.2077 9.85522L47.9024 9.25826L49.1148 7.19537C49.5787 6.40413 49.4522 5.39741 48.8056 4.74746L46.9993 2.93184C46.3527 2.28189 45.3512 2.15473 44.564 2.621L42.5118 3.83965L41.9179 1.51891C41.6895 0.628756 40.8918 0.00706482 39.9781 0.00706482H37.4233C36.5096 0.00706482 35.7119 0.628756 35.48 1.51891L34.8861 3.83612L32.8339 2.61746C32.0467 2.15119 31.0452 2.27836 30.3986 2.92831L28.5923 4.74393C27.9457 5.39388 27.8192 6.4006 28.2831 7.19184L29.4954 9.25473L27.1867 9.85169C26.3011 10.0813 25.6826 10.8831 25.6826 11.8015V14.3696C25.6826 15.288 26.3011 16.0898 27.1867 16.3194ZM27.4397 11.8015C27.4397 11.6885 27.517 11.5896 27.6259 11.5613L31.0627 10.6712C31.3298 10.6005 31.5477 10.4098 31.6566 10.1555C31.7621 9.89761 31.741 9.60796 31.6004 9.36776L29.7977 6.29463C29.7414 6.19572 29.7555 6.07209 29.8363 5.99085L31.6426 4.17522C31.7234 4.09398 31.8464 4.07985 31.9448 4.13637L35.0021 5.94846C35.2375 6.08975 35.5292 6.11095 35.7857 6.00498C36.0423 5.899 36.232 5.68 36.2988 5.40801L37.1844 1.95338C37.2125 1.84388 37.3109 1.76617 37.4233 1.76617H39.9781C40.0905 1.76617 40.1889 1.84388 40.217 1.95338L41.1026 5.40801C41.1729 5.67647 41.3626 5.89547 41.6157 6.00498C41.8722 6.11095 42.1604 6.08975 42.3993 5.94846L45.4566 4.13637C45.555 4.07985 45.678 4.09398 45.7588 4.17522L47.5651 5.99085C47.6459 6.07209 47.66 6.19572 47.6037 6.29109L45.801 9.36423C45.6604 9.60443 45.6393 9.89408 45.7448 10.1519C45.8502 10.4098 46.0681 10.6005 46.3386 10.6677L49.7755 11.5578C49.8844 11.5861 49.9617 11.685 49.9617 11.798V14.366C49.9617 14.4791 49.8844 14.578 49.7755 14.6062L46.3386 15.4964C46.0716 15.567 45.8537 15.7578 45.7448 16.0121C45.6393 16.27 45.6604 16.5596 45.801 16.7998L47.6037 19.8729C47.66 19.9718 47.6459 20.0955 47.5651 20.1767L45.7588 21.9923C45.678 22.0736 45.555 22.0877 45.4566 22.0312L42.3993 20.2156C42.1604 20.0743 41.8722 20.0531 41.6157 20.1591C41.3591 20.265 41.1694 20.484 41.1026 20.756L40.217 24.2106C40.1889 24.3202 40.0905 24.3979 39.9781 24.3979H37.4233C37.3109 24.3979 37.2125 24.3202 37.1844 24.2106L36.2988 20.756C36.2285 20.4876 36.0387 20.2686 35.7857 20.1591C35.6768 20.1131 35.5643 20.0919 35.4484 20.0919C35.2938 20.0919 35.1391 20.1343 35.0021 20.2156L31.9448 22.0277C31.8464 22.0842 31.7234 22.0701 31.6426 21.9888L29.8363 20.1732C29.7555 20.0919 29.7414 19.9683 29.7977 19.8694L31.6004 16.7963C31.741 16.5561 31.7621 16.2664 31.6566 16.0086C31.5512 15.7507 31.3333 15.56 31.0627 15.4928L27.6259 14.6027C27.517 14.5744 27.4397 14.4755 27.4397 14.3625V11.7945V11.8015Z" fill="#2D3133"/>
</g>
<path id="Vector_11" d="M38.6995 17.9019C36.0569 17.9019 33.9062 15.7401 33.9062 13.0838C33.9062 10.4275 36.0569 8.26567 38.6995 8.26567C41.3421 8.26567 43.4928 10.4275 43.4928 13.0838C43.4928 15.7401 41.3421 17.9019 38.6995 17.9019ZM38.6995 10.0283C37.0233 10.0283 35.6633 11.3989 35.6633 13.0802C35.6633 14.7616 37.0268 16.1322 38.6995 16.1322C40.3722 16.1322 41.7357 14.7616 41.7357 13.0802C41.7357 11.3989 40.3722 10.0283 38.6995 10.0283Z" fill="#0A71FE"/>
</g>
<defs>
<clipPath id="clip0_285_2805">
<rect width="76" height="71" fill="white" transform="translate(0.701172)"/>
</clipPath>
</defs>
</svg>
