<svg width="75" height="71" viewBox="0 0 75 71" fill="none" xmlns="http://www.w3.org/2000/svg">
<g id="Layer_1" clip-path="url(#clip0_311_7356)">
<g id="Group">
<path id="Vector" d="M24.9008 36.86C24.0805 36.86 23.3372 37.2038 22.8081 37.7565C22.2825 37.2004 21.5559 36.86 20.749 36.86C19.9421 36.86 19.1854 37.2038 18.6563 37.7565C18.1307 37.2004 17.4041 36.86 16.5972 36.86C16.1552 36.86 15.7334 36.9645 15.3584 37.1431V25.1643C15.3584 25.1441 15.3584 25.1238 15.3584 25.1036C15.2412 23.4655 13.9889 22.2319 12.4488 22.2319C10.9086 22.2319 9.53581 23.5464 9.53581 25.1643V40.3754L6.60612 45.7177C6.3684 46.1188 6.19764 46.5502 6.10054 47.0086C5.92309 47.858 6.01014 48.7242 6.34831 49.523L9.21773 56.227C9.49563 56.8775 9.83715 57.5011 10.2289 58.0875C11.1731 59.493 11.672 60.8244 11.8059 62.304H10.1552C9.69318 62.304 9.31818 62.6815 9.31818 63.1467V70.1574C9.31818 70.6225 9.69318 71 10.1552 71H26.9834C27.4454 71 27.8204 70.6225 27.8204 70.1574V63.1467C27.8204 62.6815 27.4454 62.304 26.9834 62.304H25.5369C25.6575 61.1345 26.009 59.7559 26.5113 59.0077C27.3684 57.7336 27.8204 56.2439 27.8204 54.7035V39.7957C27.8204 39.7755 27.8204 39.7553 27.8204 39.735C27.7032 38.097 26.451 36.8634 24.9108 36.8634L24.9008 36.86ZM26.1396 69.3147H10.9856V63.9893H26.1396V69.3147ZM26.1396 54.7035C26.1396 55.9034 25.7847 57.0663 25.1184 58.0606C24.4052 59.1223 23.9733 60.8547 23.8494 62.304H13.4867C13.3461 60.484 12.7434 58.8223 11.6151 57.1438C11.2802 56.6449 10.9923 56.1124 10.7546 55.5596L7.88514 48.8557C7.6809 48.3804 7.63068 47.8614 7.73782 47.3558C7.79474 47.0828 7.89519 46.8232 8.0559 46.5603L11.1061 41.0024C11.1731 40.8777 11.2099 40.7361 11.2099 40.5945V25.1643C11.2099 24.4767 11.7657 23.9172 12.4488 23.9172C13.182 23.9172 13.6307 24.5711 13.6876 25.198V43.4258C13.6876 43.8909 14.0626 44.2684 14.5247 44.2684C14.9867 44.2684 15.3617 43.8909 15.3617 43.4258V39.7923C15.3617 39.1048 15.9175 38.5452 16.6005 38.5452C17.3338 38.5452 17.7825 39.1991 17.8394 39.826V43.4258C17.8394 43.8909 18.2144 44.2684 18.6764 44.2684C19.1385 44.2684 19.5135 43.8909 19.5135 43.4258V39.7923C19.5135 39.1048 20.0693 38.5452 20.7523 38.5452C21.4856 38.5452 21.9342 39.1991 21.9912 39.826V43.4258C21.9912 43.8909 22.3662 44.2684 22.8282 44.2684C23.2903 44.2684 23.6653 43.8909 23.6653 43.4258V39.7923C23.6653 39.1048 24.2211 38.5452 24.9041 38.5452C25.6374 38.5452 26.086 39.1991 26.143 39.826V54.7001L26.1396 54.7035Z" fill="#2D3133"/>
<path id="Vector_2" d="M74.1629 0H0.837054C0.375 0 0 0.377498 0 0.84263V52.5801C0 53.0452 0.375 53.4227 0.837054 53.4227H5.35714C5.8192 53.4227 6.1942 53.0452 6.1942 52.5801C6.1942 52.115 5.8192 51.7375 5.35714 51.7375H1.67411V1.68526H73.3259V51.7375H30.4688C30.0067 51.7375 29.6317 52.115 29.6317 52.5801C29.6317 53.0452 30.0067 53.4227 30.4688 53.4227H74.1629C74.625 53.4227 75 53.0452 75 52.5801V0.84263C75 0.377498 74.625 0 74.1629 0Z" fill="#2D3133"/>
<path id="Vector_3" d="M62.6117 26.4586C62.6117 21.5343 58.6307 17.5267 53.739 17.5267C48.8472 17.5267 44.8662 21.5343 44.8662 26.4586C44.8662 31.3829 48.8472 35.3905 53.739 35.3905C58.6307 35.3905 62.6117 31.3829 62.6117 26.4586ZM46.5403 26.4586C46.5403 22.4645 49.7713 19.212 53.739 19.212C57.7066 19.212 60.9376 22.4645 60.9376 26.4586C60.9376 30.4527 57.7066 33.7052 53.739 33.7052C49.7713 33.7052 46.5403 30.4527 46.5403 26.4586Z" fill="#2D3133"/>
</g>
<path id="Vector_4" d="M52.9786 29.4078C52.9786 29.4078 52.9519 29.4078 52.9385 29.4078C52.7007 29.3943 52.4831 29.283 52.3324 29.101L50.2164 26.499C49.9251 26.1384 49.9753 25.6092 50.3336 25.3126C50.6918 25.0193 51.2175 25.0699 51.5121 25.4305L53.0423 27.3113L56.2666 24.0655C56.5947 23.7352 57.1237 23.7352 57.4519 24.0655C57.78 24.3958 57.78 24.9283 57.4519 25.2586L53.5713 29.1617C53.4139 29.3201 53.1996 29.4078 52.9786 29.4078Z" fill="#2D3133"/>
<path id="Vector_5" d="M19.4192 27.4697H17.4103C16.9482 27.4697 16.5732 27.0922 16.5732 26.6271C16.5732 26.1619 16.9482 25.7844 17.4103 25.7844H19.4192C19.8813 25.7844 20.2563 26.1619 20.2563 26.6271C20.2563 27.0922 19.8813 27.4697 19.4192 27.4697Z" fill="#2D3133"/>
<path id="Vector_6" d="M32.8124 27.4697H29.4641C29.0021 27.4697 28.6271 27.0922 28.6271 26.6271C28.6271 26.1619 29.0021 25.7844 29.4641 25.7844H32.8124C33.2744 25.7844 33.6494 26.1619 33.6494 26.6271C33.6494 27.0922 33.2744 27.4697 32.8124 27.4697ZM26.1159 27.4697H22.7677C22.3057 27.4697 21.9307 27.0922 21.9307 26.6271C21.9307 26.1619 22.3057 25.7844 22.7677 25.7844H26.1159C26.578 25.7844 26.953 26.1619 26.953 26.6271C26.953 27.0922 26.578 27.4697 26.1159 27.4697Z" fill="#2D3133"/>
<path id="Vector_7" d="M38.1692 27.4697H36.1603C35.6982 27.4697 35.3232 27.0922 35.3232 26.6271C35.3232 26.1619 35.6982 25.7844 36.1603 25.7844H38.1692C38.6313 25.7844 39.0063 26.1619 39.0063 26.6271C39.0063 27.0922 38.6313 27.4697 38.1692 27.4697Z" fill="#2D3133"/>
<path id="Vector_8" d="M38.8397 30.8065C38.6254 30.8065 38.4111 30.7256 38.2471 30.5604C37.9189 30.2301 37.9189 29.6976 38.2471 29.3673L40.9692 26.6271L38.2471 23.8868C37.9189 23.5565 37.9189 23.024 38.2471 22.6937C38.5752 22.3633 39.1042 22.3633 39.4323 22.6937L42.7471 26.0305C43.0752 26.3608 43.0752 26.8933 42.7471 27.2236L39.4323 30.5604C39.2683 30.7256 39.054 30.8065 38.8397 30.8065Z" fill="#2D3133"/>
<path id="Vector_9" d="M24.1067 67.5789H22.0978C21.6357 67.5789 21.2607 67.2014 21.2607 66.7363C21.2607 66.2712 21.6357 65.8937 22.0978 65.8937H24.1067C24.5688 65.8937 24.9438 66.2712 24.9438 66.7363C24.9438 67.2014 24.5688 67.5789 24.1067 67.5789Z" fill="#0A71FE"/>
<path id="Vector_10" d="M53.7384 42.6371C47.5676 42.6371 41.8656 39.007 39.2172 33.3918C39.0197 32.9704 39.1971 32.4682 39.6156 32.2694C40.0342 32.0705 40.5331 32.2492 40.7306 32.6705C43.1045 37.7027 48.2105 40.9518 53.7418 40.9518C61.6804 40.9518 68.1391 34.4501 68.1391 26.4586C68.1391 18.4671 61.6804 11.9654 53.7418 11.9654C47.9125 11.9654 42.6926 15.4673 40.4493 20.8838C40.2719 21.3118 39.7831 21.5174 39.3545 21.3354C38.9293 21.1568 38.725 20.6613 38.9058 20.2332C41.4103 14.1865 47.2362 10.2767 53.7418 10.2767C62.6045 10.2767 69.8132 17.5335 69.8132 26.4552C69.8132 35.377 62.6045 42.6337 53.7418 42.6337L53.7384 42.6371Z" fill="#0A71FE"/>
</g>
<defs>
<clipPath id="clip0_311_7356">
<rect width="75" height="71" fill="white"/>
</clipPath>
</defs>
</svg>
