<svg width="54" height="50" viewBox="0 0 54 50" fill="none" xmlns="http://www.w3.org/2000/svg">
<g id="Layer_1" clip-path="url(#clip0_311_7330)">
<path id="Vector" d="M13.9782 21.2325C13.8973 21.2325 13.8139 21.2174 13.7356 21.1847C13.4121 21.0514 13.2605 20.6842 13.3944 20.3622L15.9242 14.3084C16.0581 13.9865 16.4296 13.8356 16.7506 13.9689C17.0741 14.1022 17.2257 14.4694 17.0918 14.7913L14.562 20.8451C14.4609 21.0866 14.2259 21.2325 13.9782 21.2325Z" fill="#0A71FE"/>
<path id="Vector_2" d="M20.2835 21.2123C20.1217 21.2123 19.96 21.1519 19.8361 21.0287C19.5885 20.7822 19.5885 20.3848 19.8361 20.1383L22.4114 17.5755L19.8361 15.0126C19.5885 14.7661 19.5885 14.3687 19.8361 14.1222C20.0838 13.8758 20.4831 13.8758 20.7308 14.1222L23.7509 17.1278C23.9985 17.3742 23.9985 17.7716 23.7509 18.0181L20.7308 21.0236C20.607 21.1469 20.4452 21.2072 20.2835 21.2072V21.2123Z" fill="#0A71FE"/>
<path id="Vector_3" d="M10.203 21.2123C10.0412 21.2123 9.87947 21.1519 9.75564 21.0287L6.73556 18.0231C6.48789 17.7766 6.48789 17.3793 6.73556 17.1328L9.75564 14.1272C10.0033 13.8808 10.4026 13.8808 10.6503 14.1272C10.898 14.3737 10.898 14.7711 10.6503 15.0176L8.07501 17.5805L10.6503 20.1433C10.898 20.3898 10.898 20.7872 10.6503 21.0337C10.5265 21.1569 10.3647 21.2173 10.203 21.2173V21.2123Z" fill="#0A71FE"/>
<path id="Vector_4" d="M9.84087 26.7732H7.17967C6.8309 26.7732 6.54785 26.4915 6.54785 26.1444C6.54785 25.7973 6.8309 25.5156 7.17967 25.5156H9.84087C10.1896 25.5156 10.4727 25.7973 10.4727 26.1444C10.4727 26.4915 10.1896 26.7732 9.84087 26.7732Z" fill="#0A71FE"/>
<path id="Vector_5" d="M9.84087 37.8672H7.17967C6.8309 37.8672 6.54785 37.5855 6.54785 37.2384C6.54785 36.8913 6.8309 36.6096 7.17967 36.6096H9.84087C10.1896 36.6096 10.4727 36.8913 10.4727 37.2384C10.4727 37.5855 10.1896 37.8672 9.84087 37.8672Z" fill="#0A71FE"/>
<g id="Group">
<path id="Vector_6" d="M53.3682 0H0.631815C0.283053 0 0 0.28169 0 0.628773V49.3712C0 49.7183 0.283053 50 0.631815 50H53.3682C53.7169 50 54 49.7183 54 49.3712V0.628773C54 0.28169 53.7169 0 53.3682 0ZM52.7364 1.25755V6.66499H1.26363V1.25755H52.7364ZM1.26363 48.7425V7.92253H52.7364V48.7425H1.26363Z" fill="#846F75"/>
<path id="Vector_7" d="M4.50584 4.5272H7.28583C7.63459 4.5272 7.91764 4.24551 7.91764 3.89843C7.91764 3.55134 7.63459 3.26965 7.28583 3.26965H4.50584C4.15708 3.26965 3.87402 3.55134 3.87402 3.89843C3.87402 4.24551 4.15708 4.5272 4.50584 4.5272Z" fill="#846F75"/>
<path id="Vector_8" d="M10.4658 4.5272H13.2458C13.5945 4.5272 13.8776 4.24551 13.8776 3.89843C13.8776 3.55134 13.5945 3.26965 13.2458 3.26965H10.4658C10.117 3.26965 9.83398 3.55134 9.83398 3.89843C9.83398 4.24551 10.117 4.5272 10.4658 4.5272Z" fill="#846F75"/>
<path id="Vector_9" d="M16.4267 4.5272H19.2067C19.5555 4.5272 19.8385 4.24551 19.8385 3.89843C19.8385 3.55134 19.5555 3.26965 19.2067 3.26965H16.4267C16.078 3.26965 15.7949 3.55134 15.7949 3.89843C15.7949 4.24551 16.078 4.5272 16.4267 4.5272Z" fill="#846F75"/>
<path id="Vector_10" d="M46.6279 4.5272H49.4079C49.7567 4.5272 50.0397 4.24551 50.0397 3.89843C50.0397 3.55134 49.7567 3.26965 49.4079 3.26965H46.6279C46.2791 3.26965 45.9961 3.55134 45.9961 3.89843C45.9961 4.24551 46.2791 4.5272 46.6279 4.5272Z" fill="#846F75"/>
<path id="Vector_11" d="M12.3681 26.7732H21.8024C22.1512 26.7732 22.4342 26.4915 22.4342 26.1444C22.4342 25.7973 22.1512 25.5156 21.8024 25.5156H12.3681C12.0194 25.5156 11.7363 25.7973 11.7363 26.1444C11.7363 26.4915 12.0194 26.7732 12.3681 26.7732Z" fill="#846F75"/>
<path id="Vector_12" d="M12.3681 37.8672H14.5593C14.908 37.8672 15.1911 37.5855 15.1911 37.2384C15.1911 36.8913 14.908 36.6096 14.5593 36.6096H12.3681C12.0194 36.6096 11.7363 36.8913 11.7363 37.2384C11.7363 37.5855 12.0194 37.8672 12.3681 37.8672Z" fill="#846F75"/>
<path id="Vector_13" d="M22.8768 36.6096H17.0869C16.7381 36.6096 16.4551 36.8913 16.4551 37.2384C16.4551 37.5855 16.7381 37.8672 17.0869 37.8672H22.8768C23.2256 37.8672 23.5087 37.5855 23.5087 37.2384C23.5087 36.8913 23.2256 36.6096 22.8768 36.6096Z" fill="#846F75"/>
<path id="Vector_14" d="M20.9406 40.3093H12.3681C12.0194 40.3093 11.7363 40.591 11.7363 40.9381C11.7363 41.2852 12.0194 41.5669 12.3681 41.5669H20.9406C21.2894 41.5669 21.5724 41.2852 21.5724 40.9381C21.5724 40.591 21.2894 40.3093 20.9406 40.3093Z" fill="#846F75"/>
<path id="Vector_15" d="M12.3681 30.4729H17.6324C17.9812 30.4729 18.2642 30.1912 18.2642 29.8441C18.2642 29.497 17.9812 29.2153 17.6324 29.2153H12.3681C12.0194 29.2153 11.7363 29.497 11.7363 29.8441C11.7363 30.1912 12.0194 30.4729 12.3681 30.4729Z" fill="#846F75"/>
<path id="Vector_16" d="M26.7765 29.2153H20.1601C19.8114 29.2153 19.5283 29.497 19.5283 29.8441C19.5283 30.1912 19.8114 30.4729 20.1601 30.4729H26.7765C27.1253 30.4729 27.4083 30.1912 27.4083 29.8441C27.4083 29.497 27.1253 29.2153 26.7765 29.2153Z" fill="#846F75"/>
<path id="Vector_17" d="M12.3681 34.17H17.6324C17.9812 34.17 18.2642 33.8883 18.2642 33.5412C18.2642 33.1942 17.9812 32.9125 17.6324 32.9125H12.3681C12.0194 32.9125 11.7363 33.1942 11.7363 33.5412C11.7363 33.8883 12.0194 34.17 12.3681 34.17Z" fill="#846F75"/>
<path id="Vector_18" d="M24.8255 32.9125H20.1601C19.8114 32.9125 19.5283 33.1942 19.5283 33.5412C19.5283 33.8883 19.8114 34.17 20.1601 34.17H24.8255C25.1742 34.17 25.4573 33.8883 25.4573 33.5412C25.4573 33.1942 25.1742 32.9125 24.8255 32.9125Z" fill="#846F75"/>
</g>
<path id="Vector_19" d="M45.751 11.4009H31.3203C30.9715 11.4009 30.6885 11.6826 30.6885 12.0297V26.3908C30.6885 26.7379 30.9715 27.0196 31.3203 27.0196H45.751C46.0997 27.0196 46.3828 26.7379 46.3828 26.3908V12.0297C46.3828 11.6826 46.0997 11.4009 45.751 11.4009ZM31.9521 13.5488L37.6435 19.2127L31.9521 24.8767V13.5513V13.5488ZM32.8468 12.6584H44.227L38.5356 18.3224L32.8442 12.6584H32.8468ZM38.5382 20.1006L44.2295 25.7646H32.8493L38.5407 20.1006H38.5382ZM39.4328 19.2102L45.1242 13.5463V24.8717L39.4328 19.2077V19.2102Z" fill="#0A71FE"/>
<path id="Vector_20" d="M49.4909 28.7023H41.2773C40.9286 28.7023 40.6455 28.984 40.6455 29.331V37.5051C40.6455 37.8522 40.9286 38.1339 41.2773 38.1339H49.4909C49.8397 38.1339 50.1227 37.8522 50.1227 37.5051V29.331C50.1227 28.984 49.8397 28.7023 49.4909 28.7023ZM41.9091 30.8502L44.4895 33.4181L41.9091 35.986V30.8476V30.8502ZM42.8038 29.9598H47.967L45.3867 32.5277L42.8063 29.9598H42.8038ZM45.3841 34.3084L47.9645 36.8763H42.8013L45.3816 34.3084H45.3841ZM46.2788 33.4181L48.8591 30.8502V35.9885L46.2788 33.4206V33.4181Z" fill="#0A71FE"/>
<path id="Vector_21" d="M38.424 36.8762H31.3174C30.9686 36.8762 30.6855 37.1579 30.6855 37.505V44.5774C30.6855 44.9245 30.9686 45.2062 31.3174 45.2062H38.424C38.7728 45.2062 39.0558 44.9245 39.0558 44.5774V37.505C39.0558 37.1579 38.7728 36.8762 38.424 36.8762ZM31.9492 39.0241L33.976 41.0412L31.9492 43.0583V39.0241ZM32.8438 38.1338H36.9001L34.8732 40.1509L32.8464 38.1338H32.8438ZM34.8707 41.929L36.8976 43.9461H32.8413L34.8682 41.929H34.8707ZM35.7653 41.0387L37.7922 39.0216V43.0558L35.7653 41.0387Z" fill="#0A71FE"/>
</g>
<defs>
<clipPath id="clip0_311_7330">
<rect width="54" height="50" fill="white"/>
</clipPath>
</defs>
</svg>
